# Created by Kenney (www.kenney.nl)

mtllib cannon.mtl

g cannon

v 0.7011875 0.6356061 -0.2096571 1 1 1
v 0.7011875 0.5337827 -0.1674805 1 1 1
v 0.7011875 0.7374294 -0.1674805 1 1 1
v 0.7011875 0.7796061 -0.06565712 1 1 1
v 0.7011875 0.4916061 -0.06565712 1 1 1
v 0.7011875 0.7374294 0.03616626 1 1 1
v 0.7011875 0.5337827 0.03616626 1 1 1
v 0.7011875 0.6356061 0.07834289 1 1 1
v -0.7011875 0.7374294 -0.1674805 1 1 1
v -0.7011875 0.7796061 -0.06565712 1 1 1
v -0.7011875 0.5337827 -0.1674805 1 1 1
v -0.7011875 0.6356061 -0.2096571 1 1 1
v -0.7011875 0.5337827 0.03616626 1 1 1
v -0.7011875 0.4916061 -0.06565712 1 1 1
v -0.7011875 0.7374294 0.03616626 1 1 1
v -0.7011875 0.6356061 0.07834289 1 1 1
v 4.439755E-16 0.3370224 -0.7803428 1 1 1
v 0.2177889 0.4272335 -0.7803428 1 1 1
v -0.2177889 0.4272335 -0.7803428 1 1 1
v 4.439755E-16 0.4583023 -0.7803428 1 1 1
v -0.132031 0.5129914 -0.7803428 1 1 1
v 0.132031 0.5129914 -0.7803428 1 1 1
v -0.308 0.6450223 -0.7803428 1 1 1
v -0.1867201 0.6450223 -0.7803428 1 1 1
v 0.308 0.6450223 -0.7803428 1 1 1
v 0.1867201 0.6450223 -0.7803428 1 1 1
v 0.132031 0.7770534 -0.7803428 1 1 1
v -0.2177889 0.8628113 -0.7803428 1 1 1
v 0.2177889 0.8628113 -0.7803428 1 1 1
v -0.132031 0.7770534 -0.7803428 1 1 1
v 4.439755E-16 0.9530224 -0.7803428 1 1 1
v 4.439755E-16 0.8317424 -0.7803428 1 1 1
v 0.2896592 0.3553631 -0.3183429 1 1 1
v 4.439755E-16 0.2353824 -0.3183429 1 1 1
v 0.40964 0.6450223 -0.3183429 1 1 1
v 0.2896592 0.9346815 -0.3183429 1 1 1
v 4.439755E-16 1.054662 -0.3183429 1 1 1
v -0.2896592 0.9346815 -0.3183429 1 1 1
v -0.2896592 0.3553631 -0.3183429 1 1 1
v -0.40964 0.6450223 -0.3183429 1 1 1
v 0.2177889 0.4272335 0.759657 1 1 1
v 4.439755E-16 0.3370224 0.759657 1 1 1
v -0.2177889 0.4272335 0.759657 1 1 1
v -0.308 0.6450223 0.759657 1 1 1
v 0.2177889 0.8628113 0.759657 1 1 1
v 0.308 0.6450223 0.759657 1 1 1
v 4.439755E-16 0.9530224 0.759657 1 1 1
v -0.2177889 0.8628113 0.759657 1 1 1
v 4.439755E-16 0.2423263 0.9906571 1 1 1
v -0.2847492 0.3602732 0.9906571 1 1 1
v 0.2847492 0.3602732 0.9906571 1 1 1
v 4.439755E-16 0.4135994 0.9906571 1 1 1
v 0.1636408 0.4813816 0.9906571 1 1 1
v -0.1636408 0.4813816 0.9906571 1 1 1
v 0.4026961 0.6450223 0.9906571 1 1 1
v 0.231423 0.6450223 0.9906571 1 1 1
v -0.4026961 0.6450223 0.9906571 1 1 1
v -0.231423 0.6450223 0.9906571 1 1 1
v -0.1636408 0.8086631 0.9906571 1 1 1
v 0.2847492 0.9297715 0.9906571 1 1 1
v -0.2847492 0.9297715 0.9906571 1 1 1
v 0.1636408 0.8086631 0.9906571 1 1 1
v 4.439755E-16 0.8764454 0.9906571 1 1 1
v 4.439755E-16 1.047718 0.9906571 1 1 1
v 0.2733591 0.9183816 0.759657 1 1 1
v 4.439755E-16 1.031611 0.759657 1 1 1
v -0.2733591 0.9183816 0.759657 1 1 1
v 0.2733591 0.3716632 0.759657 1 1 1
v 4.439755E-16 0.2584341 0.759657 1 1 1
v -0.2733591 0.3716632 0.759657 1 1 1
v -0.3865882 0.6450223 0.759657 1 1 1
v 0.3865882 0.6450223 0.759657 1 1 1
v 9.998473E-16 0.4900447 -0.9343429 1 1 1
v 0.1095857 0.5354366 -0.9343429 1 1 1
v -0.1095857 0.5354366 -0.9343429 1 1 1
v -0.1549776 0.6450223 -0.9343429 1 1 1
v 0.1549776 0.6450223 -0.9343429 1 1 1
v -0.1095857 0.7546081 -0.9343429 1 1 1
v 0.1095857 0.7546081 -0.9343429 1 1 1
v 4.439755E-16 0.8 -0.9343429 1 1 1
v 4.439755E-16 0.4760836 0.759657 1 1 1
v -0.1194578 0.5255646 0.759657 1 1 1
v 0.1194578 0.5255646 0.759657 1 1 1
v 0.1689388 0.6450223 0.759657 1 1 1
v -0.1689388 0.6450223 0.759657 1 1 1
v 0.1194578 0.7644801 0.759657 1 1 1
v -0.1194578 0.7644801 0.759657 1 1 1
v 4.439755E-16 0.8139611 0.759657 1 1 1
v 0.439375 0 0.7343429 1 1 1
v -0.439375 0 0.7343429 1 1 1
v 0.439375 0.3 0.7343429 1 1 1
v -0.439375 0.3 0.7343429 1 1 1
v 0.539375 0.3 -0.6343429 1 1 1
v 0.539375 0 -0.6343429 1 1 1
v 0.539375 0.3 0.6343429 1 1 1
v 0.539375 0 0.6343429 1 1 1
v -0.539375 0 0.6343429 1 1 1
v -0.539375 0.3 0.6343429 1 1 1
v -0.439375 0 -0.7343429 1 1 1
v 0.439375 0 -0.7343429 1 1 1
v -0.439375 0.3 -0.7343429 1 1 1
v 0.439375 0.3 -0.7343429 1 1 1
v -0.539375 0 -0.6343429 1 1 1
v -0.539375 0.3 -0.6343429 1 1 1

vn 1 0 0
vn 0 0.7071068 -0.7071068
vn 0 1 0
vn 0 -0.7071068 -0.7071068
vn 0 0 -1
vn 0 -0.7071068 0.7071068
vn 0 -1 0
vn -1 0 0
vn 0 0 1
vn 0 0.7071068 0.7071068
vn 0 2.201657E-13 -0.9999999
vn 0.7058729 -0.7058729 -0.05905002
vn 0.6905919 -0.6905919 -0.2148618
vn 0 -0.9982549 -0.05905001
vn 0 -0.9766444 -0.2148618
vn 0.9766444 4.73052E-14 -0.2148618
vn 0.9982549 1.300079E-14 -0.05905001
vn 0.7058729 0.7058729 -0.05905002
vn 0 0.9982549 -0.05905001
vn 0.6905919 0.6905919 -0.2148618
vn 0 0.9766444 -0.2148618
vn -0.6905919 0.6905919 -0.2148618
vn -0.7058729 0.7058729 -0.05905002
vn -0.6905919 -0.6905919 -0.2148618
vn -0.9766444 4.73052E-14 -0.2148618
vn -0.7058729 -0.7058729 -0.05905002
vn -0.9982549 1.300079E-14 -0.05905001
vn 0.7039845 -0.7039845 0.09386939
vn 0 -0.9955845 0.09386939
vn -0.7039845 -0.7039845 0.09386939
vn -0.9955845 -2.066682E-14 0.09386939
vn 0.7039845 0.7039845 0.09386939
vn 0.9955845 -2.066682E-14 0.09386939
vn 0 0.9955845 0.09386939
vn -0.7039845 0.7039845 0.09386939
vn 0 -2.201657E-13 0.9999999
vn 0.7053939 0.7053939 -0.069562
vn 0 0.9975775 -0.06956201
vn -0.7053939 0.7053939 -0.069562
vn 0.7053939 -0.7053939 -0.069562
vn 0 -0.9975775 -0.06956201
vn -0.7053939 -0.7053939 -0.069562
vn -0.9975775 1.531517E-14 -0.06956201
vn 0.9975775 1.531517E-14 -0.06956201
vn 0 -0.9794111 -0.2018758
vn -0.6925482 -0.6925482 -0.2018758
vn 0.6925482 0.6925482 -0.2018758
vn 0 0.9794111 -0.2018758
vn 0.9794111 4.444612E-14 -0.2018758
vn 0.6925482 -0.6925482 -0.2018758
vn -0.6925482 0.6925482 -0.2018758
vn -0.9794111 4.444612E-14 -0.2018758
vn 0 0.6872042 0.7264642
vn 0.4859267 0.4859267 0.7264642
vn -0.4859267 0.4859267 0.7264642
vn -0.6872042 -1.599425E-13 0.7264642
vn 0.6872042 -1.599425E-13 0.7264642
vn -0.4859267 -0.4859267 0.7264642
vn 0.4859267 -0.4859267 0.7264642
vn 0 -0.6872042 0.7264642
vn -0.6825764 0.6825764 0.2611106
vn -0.9653088 -5.74876E-14 0.2611106
vn 0.9653088 -5.74876E-14 0.2611106
vn 0.6825764 0.6825764 0.2611106
vn 0 0.9653088 0.2611106
vn 0.6825764 -0.6825764 0.2611106
vn 0 -0.9653088 0.2611106
vn -0.6825764 -0.6825764 0.2611106
vn 0.4038652 0 0.9148185
vn -0.4038652 0 0.9148185
vn 0.9348231 0 -0.3551136
vn 0.9348231 0 0.3551136
vn -0.9348231 0 0.3551136
vn -0.4038652 0 -0.9148185
vn 0.4038652 0 -0.9148185
vn -0.9348231 0 -0.3551136

vt 0.46875 0.175
vt 0.46875 0.1396447
vt 0.46875 0.2103553
vt 0.46875 0.225
vt 0.46875 0.125
vt 0.46875 0.137406
vt 0.46875 0.148417
vt 0.46875 0.1522092
vt 0.46875 0.1588845
vt 0.46875 0.1911155
vt 0.46875 0.201583
vt 0.46875 0.212594
vt 0.46875 0.1977907
vt 0.46875 0.1258476
vt 0.46875 0.140244
vt 0.46875 0.1467529
vt 0.46875 0.1550263
vt 0.46875 0.1949737
vt 0.46875 0.209756
vt 0.46875 0.2032471
vt 0.46875 0.2241524
vt 0.46875 0.2083658
vt 0.46875 0.2221863
vt 0.46875 0.1416342
vt 0.46875 0.1278137
vt 0.46875 0.1560837
vt 0.46875 0.1616241
vt 0.46875 0.1883758
vt 0.46875 0.1939163
vt 0.21875 0.1543796
vt 0.21875 0.1604192
vt 0.21875 0.175
vt 0.21875 0.1895808
vt 0.21875 0.1956204
vt 0.21875 0.1550263
vt 0.21875 0.1467529
vt 0.21875 0.1949737
vt 0.21875 0.2032471
vt 0.84375 0.025
vt 0.84375 0.125

usemtl colormap

f 3/3/1 2/2/1 1/1/1
f 2/2/1 3/3/1 4/4/1
f 2/2/1 4/4/1 5/5/1
f 5/5/1 4/4/1 6/3/1
f 5/5/1 6/3/1 7/2/1
f 7/2/1 6/3/1 8/1/1
f 9/3/2 4/4/3 3/3/2
f 4/4/3 9/3/2 10/4/3
f 11/2/4 1/1/5 2/2/4
f 1/1/5 11/2/4 12/1/5
f 13/2/6 5/5/7 7/2/6
f 5/5/7 13/2/6 14/5/7
f 14/5/7 2/2/4 5/5/7
f 2/2/4 14/5/7 11/2/4
f 11/2/8 9/3/8 12/1/8
f 9/3/8 11/2/8 14/5/8
f 9/3/8 14/5/8 10/4/8
f 10/4/8 14/5/8 13/2/8
f 10/4/8 13/2/8 15/3/8
f 15/3/8 13/2/8 16/1/8
f 8/1/9 13/2/6 7/2/6
f 13/2/6 8/1/9 16/1/9
f 6/3/10 16/1/9 8/1/9
f 16/1/9 6/3/10 15/3/10
f 10/4/3 6/3/10 4/4/3
f 6/3/10 10/4/3 15/3/10
f 12/1/5 3/3/2 1/1/5
f 3/3/2 12/1/5 9/3/2
f 19/7/11 18/7/11 17/6/11
f 18/7/11 19/7/11 20/8/11
f 20/8/11 19/7/11 21/9/11
f 22/9/11 18/7/11 20/8/11
f 21/9/11 19/7/11 23/1/11
f 21/9/11 23/1/11 24/1/11
f 18/7/11 22/9/11 25/1/11
f 25/1/11 22/9/11 26/1/11
f 25/1/11 26/1/11 27/10/11
f 24/1/11 23/1/11 28/11/11
f 25/1/11 27/10/11 29/11/11
f 24/1/11 28/11/11 30/10/11
f 29/11/11 28/11/11 31/12/11
f 29/11/11 27/10/11 32/13/11
f 30/10/11 28/11/11 32/13/11
f 32/13/11 28/11/11 29/11/11
f 34/5/14 18/7/13 33/2/12
f 18/7/13 34/5/14 17/6/15
f 35/1/17 18/7/13 25/1/16
f 18/7/13 35/1/17 33/2/12
f 29/11/20 37/4/19 36/3/18
f 37/4/19 29/11/20 31/12/21
f 28/11/22 37/4/19 31/12/21
f 37/4/19 28/11/22 38/3/23
f 39/2/26 23/1/25 19/7/24
f 23/1/25 39/2/26 40/1/27
f 39/2/26 17/6/15 34/5/14
f 17/6/15 39/2/26 19/7/24
f 41/7/28 34/5/14 33/2/12
f 34/5/14 41/7/28 42/6/29
f 23/1/25 38/3/23 28/11/22
f 38/3/23 23/1/25 40/1/27
f 36/3/18 25/1/16 29/11/20
f 25/1/16 36/3/18 35/1/17
f 43/7/30 34/5/14 42/6/29
f 34/5/14 43/7/30 39/2/26
f 43/7/30 40/1/27 39/2/26
f 40/1/27 43/7/30 44/1/31
f 45/11/32 35/1/17 36/3/18
f 35/1/17 45/11/32 46/1/33
f 38/3/23 47/12/34 37/4/19
f 47/12/34 38/3/23 48/11/35
f 40/1/27 48/11/35 38/3/23
f 48/11/35 40/1/27 44/1/31
f 37/4/19 45/11/32 36/3/18
f 45/11/32 37/4/19 47/12/34
f 35/1/17 41/7/28 33/2/12
f 41/7/28 35/1/17 46/1/33
f 51/15/36 50/15/36 49/14/36
f 50/15/36 51/15/36 52/16/36
f 52/16/36 51/15/36 53/17/36
f 54/17/36 50/15/36 52/16/36
f 53/17/36 51/15/36 55/1/36
f 53/17/36 55/1/36 56/1/36
f 50/15/36 54/17/36 57/1/36
f 57/1/36 54/17/36 58/1/36
f 57/1/36 58/1/36 59/18/36
f 56/1/36 55/1/36 60/19/36
f 57/1/36 59/18/36 61/19/36
f 56/1/36 60/19/36 62/18/36
f 61/19/36 59/18/36 63/20/36
f 62/18/36 60/19/36 63/20/36
f 61/19/36 63/20/36 60/19/36
f 61/19/36 60/19/36 64/21/36
f 65/22/37 64/21/38 60/19/37
f 64/21/38 65/22/37 66/23/38
f 67/22/39 64/21/38 66/23/38
f 64/21/38 67/22/39 61/19/39
f 49/14/41 68/24/40 51/15/40
f 68/24/40 49/14/41 69/25/41
f 50/15/42 69/25/41 49/14/41
f 69/25/41 50/15/42 70/24/42
f 50/15/42 71/1/43 70/24/42
f 71/1/43 50/15/42 57/1/43
f 71/1/43 61/19/39 67/22/39
f 61/19/39 71/1/43 57/1/43
f 72/1/44 51/15/40 68/24/40
f 51/15/40 72/1/44 55/1/44
f 60/19/37 72/1/44 65/22/37
f 72/1/44 60/19/37 55/1/44
f 75/27/11 74/27/11 73/26/11
f 74/27/11 75/27/11 76/1/11
f 74/27/11 76/1/11 77/1/11
f 77/1/11 76/1/11 78/28/11
f 77/1/11 78/28/11 79/28/11
f 79/28/11 78/28/11 80/29/11
f 20/8/45 75/27/46 73/26/45
f 75/27/46 20/8/45 21/9/46
f 79/28/47 32/13/48 27/10/47
f 32/13/48 79/28/47 80/29/48
f 26/1/49 74/27/50 77/1/49
f 74/27/50 26/1/49 22/9/50
f 78/28/51 32/13/48 80/29/48
f 32/13/48 78/28/51 30/10/51
f 20/8/45 74/27/50 22/9/50
f 74/27/50 20/8/45 73/26/45
f 79/28/47 26/1/49 77/1/49
f 26/1/49 79/28/47 27/10/47
f 75/27/46 24/1/52 76/1/52
f 24/1/52 75/27/46 21/9/46
f 24/1/52 78/28/51 76/1/52
f 78/28/51 24/1/52 30/10/51
f 72/1/11 41/7/11 46/1/11
f 72/1/11 46/1/11 45/11/11
f 68/24/11 41/7/11 72/1/11
f 72/1/11 45/11/11 65/22/11
f 68/24/11 42/6/11 41/7/11
f 42/6/11 68/24/11 69/25/11
f 70/24/11 42/6/11 69/25/11
f 42/6/11 70/24/11 43/7/11
f 43/7/11 70/24/11 71/1/11
f 43/7/11 71/1/11 44/1/11
f 65/22/11 45/11/11 47/12/11
f 65/22/11 47/12/11 66/23/11
f 44/1/11 71/1/11 67/22/11
f 47/12/11 67/22/11 66/23/11
f 44/1/11 67/22/11 48/11/11
f 48/11/11 67/22/11 47/12/11
f 83/31/55 82/31/54 81/30/53
f 82/31/54 83/31/55 84/32/56
f 82/31/54 84/32/56 85/32/57
f 85/32/57 84/32/56 86/33/58
f 85/32/57 86/33/58 87/33/59
f 87/33/59 86/33/58 88/34/60
f 53/35/61 84/32/56 83/31/55
f 84/32/56 53/35/61 56/32/62
f 58/32/63 82/31/54 85/32/57
f 82/31/54 58/32/63 54/35/64
f 82/31/54 52/36/65 81/30/53
f 52/36/65 82/31/54 54/35/64
f 83/31/55 52/36/65 53/35/61
f 52/36/65 83/31/55 81/30/53
f 59/37/66 85/32/57 87/33/59
f 85/32/57 59/37/66 58/32/63
f 59/37/66 88/34/60 63/38/67
f 88/34/60 59/37/66 87/33/59
f 63/38/67 86/33/58 62/37/68
f 86/33/58 63/38/67 88/34/60
f 56/32/62 86/33/58 84/32/56
f 86/33/58 56/32/62 62/37/68
f 91/40/69 90/39/70 89/39/69
f 90/39/70 91/40/69 92/40/70
f 95/40/72 94/39/71 93/40/71
f 94/39/71 95/40/72 96/39/72
f 92/40/70 97/39/73 90/39/70
f 97/39/73 92/40/70 98/40/73
f 95/40/72 89/39/69 96/39/72
f 89/39/69 95/40/72 91/40/69
f 101/40/74 100/39/75 99/39/74
f 100/39/75 101/40/74 102/40/75
f 97/39/73 104/40/76 103/39/76
f 104/40/76 97/39/73 98/40/73
f 102/40/75 94/39/71 100/39/75
f 94/39/71 102/40/75 93/40/71
f 104/40/76 99/39/74 103/39/76
f 99/39/74 104/40/76 101/40/74
f 89/39/7 94/39/7 96/39/7
f 94/39/7 89/39/7 100/39/7
f 100/39/7 89/39/7 90/39/7
f 100/39/7 90/39/7 99/39/7
f 99/39/7 90/39/7 97/39/7
f 99/39/7 97/39/7 103/39/7
f 102/40/3 95/40/3 93/40/3
f 95/40/3 102/40/3 91/40/3
f 91/40/3 102/40/3 101/40/3
f 91/40/3 101/40/3 92/40/3
f 92/40/3 101/40/3 104/40/3
f 92/40/3 104/40/3 98/40/3

g cannon




usemtl colormap

f 3/3/1 2/2/1 1/1/1
f 2/2/1 3/3/1 4/4/1
f 2/2/1 4/4/1 5/5/1
f 5/5/1 4/4/1 6/3/1
f 5/5/1 6/3/1 7/2/1
f 7/2/1 6/3/1 8/1/1
f 9/3/2 4/4/3 3/3/2
f 4/4/3 9/3/2 10/4/3
f 11/2/4 1/1/5 2/2/4
f 1/1/5 11/2/4 12/1/5
f 13/2/6 5/5/7 7/2/6
f 5/5/7 13/2/6 14/5/7
f 14/5/7 2/2/4 5/5/7
f 2/2/4 14/5/7 11/2/4
f 11/2/8 9/3/8 12/1/8
f 9/3/8 11/2/8 14/5/8
f 9/3/8 14/5/8 10/4/8
f 10/4/8 14/5/8 13/2/8
f 10/4/8 13/2/8 15/3/8
f 15/3/8 13/2/8 16/1/8
f 8/1/9 13/2/6 7/2/6
f 13/2/6 8/1/9 16/1/9
f 6/3/10 16/1/9 8/1/9
f 16/1/9 6/3/10 15/3/10
f 10/4/3 6/3/10 4/4/3
f 6/3/10 10/4/3 15/3/10
f 12/1/5 3/3/2 1/1/5
f 3/3/2 12/1/5 9/3/2
f 19/7/11 18/7/11 17/6/11
f 18/7/11 19/7/11 20/8/11
f 20/8/11 19/7/11 21/9/11
f 22/9/11 18/7/11 20/8/11
f 21/9/11 19/7/11 23/1/11
f 21/9/11 23/1/11 24/1/11
f 18/7/11 22/9/11 25/1/11
f 25/1/11 22/9/11 26/1/11
f 25/1/11 26/1/11 27/10/11
f 24/1/11 23/1/11 28/11/11
f 25/1/11 27/10/11 29/11/11
f 24/1/11 28/11/11 30/10/11
f 29/11/11 28/11/11 31/12/11
f 29/11/11 27/10/11 32/13/11
f 30/10/11 28/11/11 32/13/11
f 32/13/11 28/11/11 29/11/11
f 34/5/14 18/7/13 33/2/12
f 18/7/13 34/5/14 17/6/15
f 35/1/17 18/7/13 25/1/16
f 18/7/13 35/1/17 33/2/12
f 29/11/20 37/4/19 36/3/18
f 37/4/19 29/11/20 31/12/21
f 28/11/22 37/4/19 31/12/21
f 37/4/19 28/11/22 38/3/23
f 39/2/26 23/1/25 19/7/24
f 23/1/25 39/2/26 40/1/27
f 39/2/26 17/6/15 34/5/14
f 17/6/15 39/2/26 19/7/24
f 41/7/28 34/5/14 33/2/12
f 34/5/14 41/7/28 42/6/29
f 23/1/25 38/3/23 28/11/22
f 38/3/23 23/1/25 40/1/27
f 36/3/18 25/1/16 29/11/20
f 25/1/16 36/3/18 35/1/17
f 43/7/30 34/5/14 42/6/29
f 34/5/14 43/7/30 39/2/26
f 43/7/30 40/1/27 39/2/26
f 40/1/27 43/7/30 44/1/31
f 45/11/32 35/1/17 36/3/18
f 35/1/17 45/11/32 46/1/33
f 38/3/23 47/12/34 37/4/19
f 47/12/34 38/3/23 48/11/35
f 40/1/27 48/11/35 38/3/23
f 48/11/35 40/1/27 44/1/31
f 37/4/19 45/11/32 36/3/18
f 45/11/32 37/4/19 47/12/34
f 35/1/17 41/7/28 33/2/12
f 41/7/28 35/1/17 46/1/33
f 51/15/36 50/15/36 49/14/36
f 50/15/36 51/15/36 52/16/36
f 52/16/36 51/15/36 53/17/36
f 54/17/36 50/15/36 52/16/36
f 53/17/36 51/15/36 55/1/36
f 53/17/36 55/1/36 56/1/36
f 50/15/36 54/17/36 57/1/36
f 57/1/36 54/17/36 58/1/36
f 57/1/36 58/1/36 59/18/36
f 56/1/36 55/1/36 60/19/36
f 57/1/36 59/18/36 61/19/36
f 56/1/36 60/19/36 62/18/36
f 61/19/36 59/18/36 63/20/36
f 62/18/36 60/19/36 63/20/36
f 61/19/36 63/20/36 60/19/36
f 61/19/36 60/19/36 64/21/36
f 65/22/37 64/21/38 60/19/37
f 64/21/38 65/22/37 66/23/38
f 67/22/39 64/21/38 66/23/38
f 64/21/38 67/22/39 61/19/39
f 49/14/41 68/24/40 51/15/40
f 68/24/40 49/14/41 69/25/41
f 50/15/42 69/25/41 49/14/41
f 69/25/41 50/15/42 70/24/42
f 50/15/42 71/1/43 70/24/42
f 71/1/43 50/15/42 57/1/43
f 71/1/43 61/19/39 67/22/39
f 61/19/39 71/1/43 57/1/43
f 72/1/44 51/15/40 68/24/40
f 51/15/40 72/1/44 55/1/44
f 60/19/37 72/1/44 65/22/37
f 72/1/44 60/19/37 55/1/44
f 75/27/11 74/27/11 73/26/11
f 74/27/11 75/27/11 76/1/11
f 74/27/11 76/1/11 77/1/11
f 77/1/11 76/1/11 78/28/11
f 77/1/11 78/28/11 79/28/11
f 79/28/11 78/28/11 80/29/11
f 20/8/45 75/27/46 73/26/45
f 75/27/46 20/8/45 21/9/46
f 79/28/47 32/13/48 27/10/47
f 32/13/48 79/28/47 80/29/48
f 26/1/49 74/27/50 77/1/49
f 74/27/50 26/1/49 22/9/50
f 78/28/51 32/13/48 80/29/48
f 32/13/48 78/28/51 30/10/51
f 20/8/45 74/27/50 22/9/50
f 74/27/50 20/8/45 73/26/45
f 79/28/47 26/1/49 77/1/49
f 26/1/49 79/28/47 27/10/47
f 75/27/46 24/1/52 76/1/52
f 24/1/52 75/27/46 21/9/46
f 24/1/52 78/28/51 76/1/52
f 78/28/51 24/1/52 30/10/51
f 72/1/11 41/7/11 46/1/11
f 72/1/11 46/1/11 45/11/11
f 68/24/11 41/7/11 72/1/11
f 72/1/11 45/11/11 65/22/11
f 68/24/11 42/6/11 41/7/11
f 42/6/11 68/24/11 69/25/11
f 70/24/11 42/6/11 69/25/11
f 42/6/11 70/24/11 43/7/11
f 43/7/11 70/24/11 71/1/11
f 43/7/11 71/1/11 44/1/11
f 65/22/11 45/11/11 47/12/11
f 65/22/11 47/12/11 66/23/11
f 44/1/11 71/1/11 67/22/11
f 47/12/11 67/22/11 66/23/11
f 44/1/11 67/22/11 48/11/11
f 48/11/11 67/22/11 47/12/11
f 83/31/55 82/31/54 81/30/53
f 82/31/54 83/31/55 84/32/56
f 82/31/54 84/32/56 85/32/57
f 85/32/57 84/32/56 86/33/58
f 85/32/57 86/33/58 87/33/59
f 87/33/59 86/33/58 88/34/60
f 53/35/61 84/32/56 83/31/55
f 84/32/56 53/35/61 56/32/62
f 58/32/63 82/31/54 85/32/57
f 82/31/54 58/32/63 54/35/64
f 82/31/54 52/36/65 81/30/53
f 52/36/65 82/31/54 54/35/64
f 83/31/55 52/36/65 53/35/61
f 52/36/65 83/31/55 81/30/53
f 59/37/66 85/32/57 87/33/59
f 85/32/57 59/37/66 58/32/63
f 59/37/66 88/34/60 63/38/67
f 88/34/60 59/37/66 87/33/59
f 63/38/67 86/33/58 62/37/68
f 86/33/58 63/38/67 88/34/60
f 56/32/62 86/33/58 84/32/56
f 86/33/58 56/32/62 62/37/68
f 91/40/69 90/39/70 89/39/69
f 90/39/70 91/40/69 92/40/70
f 95/40/72 94/39/71 93/40/71
f 94/39/71 95/40/72 96/39/72
f 92/40/70 97/39/73 90/39/70
f 97/39/73 92/40/70 98/40/73
f 95/40/72 89/39/69 96/39/72
f 89/39/69 95/40/72 91/40/69
f 101/40/74 100/39/75 99/39/74
f 100/39/75 101/40/74 102/40/75
f 97/39/73 104/40/76 103/39/76
f 104/40/76 97/39/73 98/40/73
f 102/40/75 94/39/71 100/39/75
f 94/39/71 102/40/75 93/40/71
f 104/40/76 99/39/74 103/39/76
f 99/39/74 104/40/76 101/40/74
f 89/39/7 94/39/7 96/39/7
f 94/39/7 89/39/7 100/39/7
f 100/39/7 89/39/7 90/39/7
f 100/39/7 90/39/7 99/39/7
f 99/39/7 90/39/7 97/39/7
f 99/39/7 97/39/7 103/39/7
f 102/40/3 95/40/3 93/40/3
f 95/40/3 102/40/3 91/40/3
f 91/40/3 102/40/3 101/40/3
f 91/40/3 101/40/3 92/40/3
f 92/40/3 101/40/3 104/40/3
f 92/40/3 104/40/3 98/40/3

g Group

v -0.3785837 0.8590295 0.2343428 1 1 1
v -0.3785837 0.8590295 0.6343428 1 1 1
v -0.6683614 0.7813838 0.2343428 1 1 1
v -0.6683614 0.7813838 0.6343428 1 1 1
v -0.5185698 0.2223543 0.6343428 1 1 1
v -0.2287921 0.3 0.6343428 1 1 1
v -0.300938 0.5692518 -0.6343429 1 1 1
v -0.2287921 0.3 -0.6343429 1 1 1
v -0.300938 0.5692518 -0.06565714 1 1 1
v -0.5907156 0.4916061 -0.06565714 1 1 1
v -0.5185698 0.2223543 -0.6343429 1 1 1
v -0.5907156 0.4916061 -0.6343429 1 1 1

vn -0.2391176 0.892399 -0.3826834
vn -0.258819 0.9659258 0
vn 0.9659258 0.258819 0
vn -0.9659258 -0.258819 0

vt 0.84375 0.225
vt 0.84375 0.1213283

usemtl colormap

f 107/41/77 106/41/78 105/41/77
f 106/41/78 107/41/77 108/41/78
f 110/39/9 108/41/9 109/39/9
f 108/41/9 110/39/9 106/41/9
f 113/42/79 112/39/79 111/42/79
f 112/39/79 113/42/79 110/39/79
f 110/39/79 113/42/79 105/41/79
f 110/39/79 105/41/79 106/41/79
f 107/41/77 113/42/77 114/42/77
f 113/42/77 107/41/77 105/41/77
f 116/42/5 112/39/5 115/39/5
f 112/39/5 116/42/5 111/42/5
f 109/39/80 116/42/80 115/39/80
f 116/42/80 109/39/80 114/42/80
f 114/42/80 109/39/80 107/41/80
f 107/41/80 109/39/80 108/41/80
f 116/42/78 113/42/77 111/42/78
f 113/42/77 116/42/78 114/42/77

g Group

v 0.2287922 0.3 -0.6343429 1 1 1
v 0.5185699 0.2223543 -0.6343429 1 1 1
v 0.300938 0.5692518 -0.6343429 1 1 1
v 0.5907157 0.4916061 -0.6343429 1 1 1
v 0.2287922 0.3 0.6343428 1 1 1
v 0.3785837 0.8590295 0.6343428 1 1 1
v 0.5185699 0.2223543 0.6343428 1 1 1
v 0.6683614 0.7813838 0.6343428 1 1 1
v 0.300938 0.5692518 -0.06565714 1 1 1
v 0.3785837 0.8590295 0.2343428 1 1 1
v 0.5907157 0.4916061 -0.06565714 1 1 1
v 0.6683614 0.7813838 0.2343428 1 1 1

vn -0.9659258 0.258819 0
vn 0.9659258 -0.258819 0
vn 0.2391176 0.892399 -0.3826834
vn 0.258819 0.9659258 0


usemtl colormap

f 119/42/5 118/39/5 117/39/5
f 118/39/5 119/42/5 120/42/5
f 123/39/9 122/41/9 121/39/9
f 122/41/9 123/39/9 124/41/9
f 121/39/81 119/42/81 117/39/81
f 119/42/81 121/39/81 125/42/81
f 125/42/81 121/39/81 126/41/81
f 126/41/81 121/39/81 122/41/81
f 127/42/82 118/39/82 120/42/82
f 118/39/82 127/42/82 123/39/82
f 123/39/82 127/42/82 128/41/82
f 123/39/82 128/41/82 124/41/82
f 126/41/83 124/41/84 128/41/83
f 124/41/84 126/41/83 122/41/84
f 119/42/84 127/42/83 120/42/84
f 127/42/83 119/42/84 125/42/83
f 126/41/83 127/42/83 125/42/83
f 127/42/83 126/41/83 128/41/83

