# Created by Kenney (www.kenney.nl)

mtllib chest.mtl

g chest

v 0.31875 0.255 -0.31875 1 1 1
v -0.31875 0.255 -0.31875 1 1 1
v 0.31875 0.51 -0.31875 1 1 1
v -0.31875 0.51 -0.31875 1 1 1
v -0.31875 0.51 0.31875 1 1 1
v -0.31875 0.255 0.31875 1 1 1
v 0.31875 0.255 0.31875 1 1 1
v 0.31875 0.51 0.31875 1 1 1
v 0.6375 0 0.6375 1 1 1
v 0.6375 0 0.3825 1 1 1
v 0.3825 0 0.6375 1 1 1
v 0.51 0 0.3825 1 1 1
v 0.51 0 -0.3825 1 1 1
v 0.3825 0 0.51 1 1 1
v 0.3825 0 -0.6375 1 1 1
v 0.6375 0 -0.6375 1 1 1
v 0.6375 0 -0.3825 1 1 1
v 0.3825 0 -0.51 1 1 1
v -0.3825 0 0.51 1 1 1
v -0.3825 0 -0.51 1 1 1
v -0.51 0 0.3825 1 1 1
v -0.3825 0 -0.6375 1 1 1
v -0.6375 0 0.6375 1 1 1
v -0.3825 0 0.6375 1 1 1
v -0.6375 0 0.3825 1 1 1
v -0.51 0 -0.3825 1 1 1
v -0.6375 0 -0.6375 1 1 1
v -0.6375 0 -0.3825 1 1 1
v -0.6375 0.51 0.3825 1 1 1
v -0.6375 0.51 0.6375 1 1 1
v 0.6375 0.51 0.3825 1 1 1
v 0.6375 0.51 0.6375 1 1 1
v 0.51 0.51 0.3825 1 1 1
v -0.51 0.51 0.3825 1 1 1
v -0.3825 0.51 -0.6375 1 1 1
v -0.3825 0.51 -0.51 1 1 1
v -0.3825 0.51 0.51 1 1 1
v -0.3825 0.51 0.6375 1 1 1
v 0.3825 0.51 -0.6375 1 1 1
v 0.6375 0.51 -0.6375 1 1 1
v -0.6375 0.51 -0.6375 1 1 1
v 0.6375 0.51 -0.3825 1 1 1
v 0.51 0.51 -0.3825 1 1 1
v -0.6375 0.51 -0.3825 1 1 1
v -0.51 0.51 -0.3825 1 1 1
v 0.3825 0.51 0.51 1 1 1
v 0.3825 0.51 0.6375 1 1 1
v 0.3825 0.51 -0.51 1 1 1

vn 0 0 1
vn 1 0 0
vn 0 1 0
vn -1 0 0
vn 0 0 -1
vn 0 -1 0

vt 0.21875 0.125
vt 0.21875 0.175
vt 0.59375 0.075
vt 0.59375 0.175
vt 0.84375 0.075
vt 0.84375 0.175

usemtl colormap

f 3/2/1 2/1/1 1/1/1
f 2/1/1 3/2/1 4/2/1
f 5/2/2 2/1/2 4/2/2
f 2/1/2 5/2/2 6/1/2
f 1/1/3 6/1/3 7/1/3
f 6/1/3 1/1/3 2/1/3
f 7/1/4 3/2/4 1/1/4
f 3/2/4 7/1/4 8/2/4
f 5/2/5 7/1/5 6/1/5
f 7/1/5 5/2/5 8/2/5
f 11/3/6 10/3/6 9/3/6
f 10/3/6 11/3/6 12/3/6
f 12/3/6 11/3/6 13/3/6
f 14/3/6 13/3/6 11/3/6
f 15/3/6 13/3/6 14/3/6
f 16/3/6 13/3/6 15/3/6
f 13/3/6 16/3/6 17/3/6
f 15/3/6 14/3/6 18/3/6
f 19/3/6 18/3/6 14/3/6
f 18/3/6 19/3/6 20/3/6
f 19/3/6 21/3/6 20/3/6
f 20/3/6 21/3/6 22/3/6
f 19/3/6 23/3/6 21/3/6
f 23/3/6 19/3/6 24/3/6
f 21/3/6 23/3/6 25/3/6
f 26/3/6 22/3/6 21/3/6
f 22/3/6 26/3/6 27/3/6
f 27/3/6 26/3/6 28/3/6
f 23/3/4 29/4/4 25/3/4
f 29/4/4 23/3/4 30/4/4
f 32/4/2 10/3/2 31/4/2
f 10/3/2 32/4/2 9/3/2
f 33/4/5 10/3/5 12/3/5
f 10/3/5 33/4/5 31/4/5
f 29/4/5 21/3/5 25/3/5
f 21/3/5 29/4/5 34/4/5
f 36/4/2 22/3/2 35/4/2
f 22/3/2 36/4/2 20/3/2
f 38/4/2 19/3/2 37/4/2
f 19/3/2 38/4/2 24/3/2
f 39/4/5 16/3/5 15/3/5
f 16/3/5 39/4/5 40/4/5
f 38/4/1 23/3/1 24/3/1
f 23/3/1 38/4/1 30/4/1
f 41/4/5 22/3/5 27/3/5
f 22/3/5 41/4/5 35/4/5
f 42/4/2 16/3/2 40/4/2
f 16/3/2 42/4/2 17/3/2
f 42/4/1 13/3/1 17/3/1
f 13/3/1 42/4/1 43/4/1
f 28/3/4 41/4/4 27/3/4
f 41/4/4 28/3/4 44/4/4
f 45/4/1 28/3/1 26/3/1
f 28/3/1 45/4/1 44/4/1
f 11/3/4 46/4/4 14/3/4
f 46/4/4 11/3/4 47/4/4
f 18/3/4 39/4/4 15/3/4
f 39/4/4 18/3/4 48/4/4
f 32/4/1 11/3/1 9/3/1
f 11/3/1 32/4/1 47/4/1
f 37/4/3 30/4/3 38/4/3
f 30/4/3 37/4/3 34/4/3
f 30/4/3 34/4/3 29/4/3
f 31/4/3 47/4/3 32/4/3
f 47/4/3 31/4/3 33/4/3
f 47/4/3 33/4/3 46/4/3
f 35/4/3 45/4/3 36/4/3
f 45/4/3 35/4/3 41/4/3
f 45/4/3 41/4/3 44/4/3
f 40/4/3 43/4/3 42/4/3
f 43/4/3 40/4/3 39/4/3
f 43/4/3 39/4/3 48/4/3
f 46/6/1 19/5/1 14/5/1
f 19/5/1 46/6/1 37/6/1
f 21/5/4 45/6/4 26/5/4
f 45/6/4 21/5/4 34/6/4
f 33/6/2 13/5/2 43/6/2
f 13/5/2 33/6/2 12/5/2
f 36/6/5 18/5/5 20/5/5
f 18/5/5 36/6/5 48/6/5
f 34/5/3 36/5/3 45/5/3
f 37/5/3 36/5/3 34/5/3
f 4/5/3 36/5/3 37/5/3
f 37/5/3 5/5/3 4/5/3
f 3/5/3 36/5/3 4/5/3
f 37/5/3 8/5/3 5/5/3
f 3/5/3 48/5/3 36/5/3
f 48/5/3 3/5/3 8/5/3
f 46/5/3 8/5/3 37/5/3
f 46/5/3 48/5/3 8/5/3
f 46/5/3 43/5/3 48/5/3
f 43/5/3 46/5/3 33/5/3

g chest




usemtl colormap

f 3/2/1 2/1/1 1/1/1
f 2/1/1 3/2/1 4/2/1
f 5/2/2 2/1/2 4/2/2
f 2/1/2 5/2/2 6/1/2
f 1/1/3 6/1/3 7/1/3
f 6/1/3 1/1/3 2/1/3
f 7/1/4 3/2/4 1/1/4
f 3/2/4 7/1/4 8/2/4
f 5/2/5 7/1/5 6/1/5
f 7/1/5 5/2/5 8/2/5
f 11/3/6 10/3/6 9/3/6
f 10/3/6 11/3/6 12/3/6
f 12/3/6 11/3/6 13/3/6
f 14/3/6 13/3/6 11/3/6
f 15/3/6 13/3/6 14/3/6
f 16/3/6 13/3/6 15/3/6
f 13/3/6 16/3/6 17/3/6
f 15/3/6 14/3/6 18/3/6
f 19/3/6 18/3/6 14/3/6
f 18/3/6 19/3/6 20/3/6
f 19/3/6 21/3/6 20/3/6
f 20/3/6 21/3/6 22/3/6
f 19/3/6 23/3/6 21/3/6
f 23/3/6 19/3/6 24/3/6
f 21/3/6 23/3/6 25/3/6
f 26/3/6 22/3/6 21/3/6
f 22/3/6 26/3/6 27/3/6
f 27/3/6 26/3/6 28/3/6
f 23/3/4 29/4/4 25/3/4
f 29/4/4 23/3/4 30/4/4
f 32/4/2 10/3/2 31/4/2
f 10/3/2 32/4/2 9/3/2
f 33/4/5 10/3/5 12/3/5
f 10/3/5 33/4/5 31/4/5
f 29/4/5 21/3/5 25/3/5
f 21/3/5 29/4/5 34/4/5
f 36/4/2 22/3/2 35/4/2
f 22/3/2 36/4/2 20/3/2
f 38/4/2 19/3/2 37/4/2
f 19/3/2 38/4/2 24/3/2
f 39/4/5 16/3/5 15/3/5
f 16/3/5 39/4/5 40/4/5
f 38/4/1 23/3/1 24/3/1
f 23/3/1 38/4/1 30/4/1
f 41/4/5 22/3/5 27/3/5
f 22/3/5 41/4/5 35/4/5
f 42/4/2 16/3/2 40/4/2
f 16/3/2 42/4/2 17/3/2
f 42/4/1 13/3/1 17/3/1
f 13/3/1 42/4/1 43/4/1
f 28/3/4 41/4/4 27/3/4
f 41/4/4 28/3/4 44/4/4
f 45/4/1 28/3/1 26/3/1
f 28/3/1 45/4/1 44/4/1
f 11/3/4 46/4/4 14/3/4
f 46/4/4 11/3/4 47/4/4
f 18/3/4 39/4/4 15/3/4
f 39/4/4 18/3/4 48/4/4
f 32/4/1 11/3/1 9/3/1
f 11/3/1 32/4/1 47/4/1
f 37/4/3 30/4/3 38/4/3
f 30/4/3 37/4/3 34/4/3
f 30/4/3 34/4/3 29/4/3
f 31/4/3 47/4/3 32/4/3
f 47/4/3 31/4/3 33/4/3
f 47/4/3 33/4/3 46/4/3
f 35/4/3 45/4/3 36/4/3
f 45/4/3 35/4/3 41/4/3
f 45/4/3 41/4/3 44/4/3
f 40/4/3 43/4/3 42/4/3
f 43/4/3 40/4/3 39/4/3
f 43/4/3 39/4/3 48/4/3
f 46/6/1 19/5/1 14/5/1
f 19/5/1 46/6/1 37/6/1
f 21/5/4 45/6/4 26/5/4
f 45/6/4 21/5/4 34/6/4
f 33/6/2 13/5/2 43/6/2
f 13/5/2 33/6/2 12/5/2
f 36/6/5 18/5/5 20/5/5
f 18/5/5 36/6/5 48/6/5
f 34/5/3 36/5/3 45/5/3
f 37/5/3 36/5/3 34/5/3
f 4/5/3 36/5/3 37/5/3
f 37/5/3 5/5/3 4/5/3
f 3/5/3 36/5/3 4/5/3
f 37/5/3 8/5/3 5/5/3
f 3/5/3 48/5/3 36/5/3
f 48/5/3 3/5/3 8/5/3
f 46/5/3 8/5/3 37/5/3
f 46/5/3 48/5/3 8/5/3
f 46/5/3 43/5/3 48/5/3
f 43/5/3 46/5/3 33/5/3

g lid

v -0.6375 0.82875 -0.5520912 1 1 1
v -0.6375 0.51 -0.3825 1 1 1
v -0.6375 1.062091 -0.31875 1 1 1
v -0.6375 0.7804683 -0.2704684 1 1 1
v -0.6375 1.1475 0 1 1 1
v -0.6375 0.8925 0 1 1 1
v -0.6375 0.7804683 0.2704683 1 1 1
v -0.6375 1.062091 0.31875 1 1 1
v -0.6375 0.51 0.3825 1 1 1
v -0.6375 0.82875 0.5520912 1 1 1
v -0.6375 0.51 0.6374999 1 1 1
v 0.6375 0.51 0.6374999 1 1 1
v 0.3825 0.51 0.6374999 1 1 1
v 0.6375 0.82875 0.5520912 1 1 1
v 0.3825 0.82875 0.5520912 1 1 1
v -0.3825 1.1475 0 1 1 1
v -0.3825 1.062091 0.31875 1 1 1
v -0.3825 0.51 0.6374999 1 1 1
v -0.3825 0.82875 0.5520912 1 1 1
v 0.1275 0.6375 0.4758365 1 1 1
v 0.1275 0.51 0.51 1 1 1
v 0.1275 0.6375 0.6374999 1 1 1
v 0.1275 0.3825 0.51 1 1 1
v 0.1275 0.3825 0.6374999 1 1 1
v -0.1275 0.3825 0.51 1 1 1
v -0.1275 0.51 0.51 1 1 1
v -0.1275 0.3825 0.6374999 1 1 1
v -0.1275 0.6375 0.6374999 1 1 1
v -0.1275 0.6375 0.4758365 1 1 1
v 0.6375 1.1475 0 1 1 1
v 0.6375 1.062091 0.31875 1 1 1
v 0.3825 1.1475 0 1 1 1
v 0.3825 1.062091 0.31875 1 1 1
v 0.3825 0.82875 -0.5520912 1 1 1
v 0.6375 0.82875 -0.5520912 1 1 1
v -0.51 0.51 0.3825 1 1 1
v -0.51 0.7804683 0.2704683 1 1 1
v -0.3825 1.062091 -0.31875 1 1 1
v -0.51 0.7804683 -0.2704684 1 1 1
v -0.51 0.8925 0 1 1 1
v 0.6375 1.062091 -0.31875 1 1 1
v 0.3825 1.062091 -0.31875 1 1 1
v -0.3825 0.82875 -0.5520912 1 1 1
v 0.6375 0.8925 0 1 1 1
v 0.51 0.8925 0 1 1 1
v 0.6375 0.7804683 0.2704683 1 1 1
v 0.51 0.7804683 0.2704683 1 1 1
v 0.6375 0.51 -0.3825 1 1 1
v 0.51 0.51 -0.3825 1 1 1
v 0.6375 0.7804683 -0.2704684 1 1 1
v 0.51 0.7804683 -0.2704684 1 1 1
v -0.3825 0.765 -0.441673 1 1 1
v -0.3825 0.9516729 -0.255 1 1 1
v -0.3825 1.02 0 1 1 1
v -0.3825 0.9516729 0.2550001 1 1 1
v -0.3825 0.765 0.4416729 1 1 1
v 0.51 0.51 0.3825 1 1 1
v 0.6375 0.51 0.3825 1 1 1
v 0.3825 0.765 -0.441673 1 1 1
v 0.3825 0.9516729 -0.255 1 1 1
v 0.3825 1.02 0 1 1 1
v 0.3825 0.9516729 0.2550001 1 1 1
v 0.3825 0.765 0.4416729 1 1 1
v -0.51 0.51 -0.3825 1 1 1
v 0.51 0.51 -0.3824998 1 1 1
v 0.3825 0.51 -0.5099998 1 1 1
v 0.51 0.51 0.3825003 1 1 1
v 0.3825 0.51 0.5100002 1 1 1
v -0.3825 0.51 -0.5099998 1 1 1
v 0.1275 0.51 0.5100002 1 1 1
v -0.1275 0.51 0.5100002 1 1 1
v -0.3825 0.51 0.5100002 1 1 1
v -0.51 0.51 -0.3824998 1 1 1
v -0.51 0.51 0.3825003 1 1 1

vn 0 0.258819 0.9659258
vn 0 0.5 0.8660254
vn 0 0.8660254 0.5
vn 0.6401844 0.7682213 0
vn 0.7071068 0.7071068 0
vn 0.7071068 -0.7071068 0
vn -0.7071068 -0.7071068 0
vn -0.7071068 0.7071068 0
vn -0.6401844 0.7682213 0
vn 0 0.258819 -0.9659258
vn 0 0.5 -0.8660254
vn 0 -0.3826834 -0.9238795
vn 0 -0.7071068 -0.7071068
vn 0 0.8660254 -0.5
vn 0 -0.7071068 0.7071068
vn 0 -0.3826834 0.9238795

vt 0.59375 0.125
vt 0.59375 0.2116025
vt 0.59375 0.1674264
vt 0.59375 0.225
vt 0.59375 0.185
vt 0.59375 0.145
vt 0.59375 0.165
vt 0.59375 0.194282
vt 0.59375 0.205
vt 0.84375 0.125
vt 0.84375 0.165
vt 0.84375 0.145
vt 0.84375 0.194282
vt 0.84375 0.205
vt 0.84375 0.1674264
vt 0.84375 0.185
vt 0.84375 0.225
vt 0.84375 0.025
vt 0.84375 0.09669811
vt 0.84375 0.160849

usemtl colormap

f 50/7/4 49/4/4 41/7/4
f 49/4/4 50/7/4 51/8/4
f 51/8/4 50/7/4 52/9/4
f 51/8/4 52/9/4 53/10/4
f 53/10/4 52/9/4 54/11/4
f 53/10/4 54/11/4 55/9/4
f 53/10/4 55/9/4 56/8/4
f 56/8/4 55/9/4 57/7/4
f 56/8/4 57/7/4 58/4/4
f 58/4/4 57/7/4 59/7/4
f 62/4/8 61/7/7 60/7/7
f 61/7/7 62/4/8 63/4/8
f 53/10/3 65/8/9 64/10/3
f 65/8/9 53/10/3 56/8/9
f 67/4/8 59/7/7 66/7/7
f 59/7/7 67/4/8 58/4/8
f 70/12/11 69/7/2 68/12/10
f 69/7/2 70/12/11 71/7/12
f 71/7/12 70/12/11 72/7/12
f 75/7/13 74/7/4 73/7/13
f 76/12/14 74/7/4 75/7/13
f 74/7/4 76/12/14 77/12/15
f 80/10/3 79/8/9 78/10/3
f 79/8/9 80/10/3 81/8/9
f 79/8/9 63/4/8 62/4/8
f 63/4/8 79/8/9 81/8/9
f 82/4/17 40/7/16 39/7/16
f 40/7/16 82/4/17 83/4/17
f 55/9/19 84/7/18 57/7/18
f 84/7/18 55/9/19 85/9/19
f 70/12/1 75/7/1 72/7/1
f 75/7/1 70/12/1 76/12/1
f 74/7/5 71/7/5 73/7/5
f 71/7/5 74/7/5 69/7/5
f 51/8/20 64/10/3 86/8/20
f 64/10/3 51/8/20 53/10/3
f 77/12/15 70/12/11 68/12/10
f 70/12/11 77/12/15 76/12/14
f 88/11/6 52/9/21 87/9/21
f 52/9/21 88/11/6 54/11/6
f 90/8/20 78/10/3 89/8/20
f 78/10/3 90/8/20 80/10/3
f 51/8/20 91/4/17 49/4/17
f 91/4/17 51/8/20 86/8/20
f 94/9/19 93/11/6 92/11/6
f 93/11/6 94/9/19 95/9/19
f 98/9/21 97/7/22 96/7/22
f 97/7/22 98/9/21 99/9/21
f 92/11/6 99/9/21 98/9/21
f 99/9/21 92/11/6 93/11/6
f 72/7/12 73/7/13 71/7/12
f 73/7/13 72/7/12 75/7/13
f 91/4/2 36/7/2 35/7/2
f 36/7/2 91/4/2 100/13/2
f 100/13/2 91/4/2 86/8/2
f 100/13/2 86/8/2 101/14/2
f 101/14/2 86/8/2 64/10/2
f 101/14/2 64/10/2 102/15/2
f 102/15/2 64/10/2 65/8/2
f 102/15/2 65/8/2 103/14/2
f 103/14/2 65/8/2 104/13/2
f 104/13/2 65/8/2 67/4/2
f 104/13/2 67/4/2 37/7/2
f 37/7/2 67/4/2 66/7/2
f 65/8/9 58/4/8 67/4/8
f 58/4/8 65/8/9 56/8/9
f 49/4/17 35/7/16 41/7/16
f 35/7/16 49/4/17 91/4/17
f 95/9/19 106/7/18 105/7/18
f 106/7/18 95/9/19 94/9/19
f 48/7/4 82/4/4 39/7/4
f 82/4/4 48/7/4 107/13/4
f 82/4/4 107/13/4 90/8/4
f 90/8/4 107/13/4 108/14/4
f 90/8/4 108/14/4 80/10/4
f 80/10/4 108/14/4 109/15/4
f 80/10/4 109/15/4 110/14/4
f 80/10/4 110/14/4 81/8/4
f 81/8/4 110/14/4 111/13/4
f 81/8/4 111/13/4 63/4/4
f 63/4/4 111/13/4 46/7/4
f 63/4/4 46/7/4 61/7/4
f 83/4/2 96/7/2 40/7/2
f 96/7/2 83/4/2 89/8/2
f 96/7/2 89/8/2 98/9/2
f 98/9/2 89/8/2 78/10/2
f 98/9/2 78/10/2 92/11/2
f 92/11/2 78/10/2 94/9/2
f 94/9/2 78/10/2 79/8/2
f 94/9/2 79/8/2 106/7/2
f 106/7/2 79/8/2 62/4/2
f 106/7/2 62/4/2 60/7/2
f 85/9/19 54/11/6 88/11/6
f 54/11/6 85/9/19 55/9/19
f 87/9/21 50/7/22 112/7/22
f 50/7/22 87/9/21 52/9/21
f 90/8/20 83/4/17 82/4/17
f 83/4/17 90/8/20 89/8/20
f 66/7/6 84/7/6 37/7/6
f 84/7/6 66/7/6 59/7/6
f 84/7/6 59/7/6 57/7/6
f 36/7/6 41/7/6 35/7/6
f 41/7/6 36/7/6 112/7/6
f 41/7/6 112/7/6 50/7/6
f 96/7/6 39/7/6 40/7/6
f 39/7/6 96/7/6 97/7/6
f 39/7/6 97/7/6 48/7/6
f 60/7/6 105/7/6 106/7/6
f 105/7/6 60/7/6 61/7/6
f 105/7/6 61/7/6 46/7/6
f 36/16/16 107/17/17 48/16/16
f 107/17/17 36/16/16 100/17/17
f 111/17/8 69/16/7 46/16/7
f 69/16/7 111/17/8 68/18/7
f 68/18/7 111/17/8 77/18/7
f 104/17/8 77/18/7 111/17/8
f 37/16/7 77/18/7 104/17/8
f 77/18/7 37/16/7 74/16/7
f 101/19/20 109/20/3 108/19/20
f 109/20/3 101/19/20 102/20/3
f 102/20/3 110/19/9 109/20/3
f 110/19/9 102/20/3 103/19/9
f 110/19/9 104/17/8 111/17/8
f 104/17/8 110/19/9 103/19/9
f 100/17/17 108/19/20 107/17/17
f 108/19/20 100/17/17 101/19/20
f 99/21/2 105/16/2 97/16/2
f 105/16/2 99/21/2 93/22/2
f 105/16/2 93/22/2 95/21/2
f 84/16/4 87/21/4 112/16/4
f 87/21/4 84/16/4 88/22/4
f 88/22/4 84/16/4 85/21/4
f 115/23/6 114/24/6 113/23/6
f 114/24/6 115/23/6 116/24/6
f 114/24/6 116/24/6 117/23/6
f 117/23/6 116/24/6 118/25/6
f 117/23/6 118/25/6 119/26/6
f 117/23/6 119/26/6 120/23/6
f 117/23/6 120/23/6 121/23/6
f 121/23/6 120/23/6 122/23/6

