# Created by Kenney (www.kenney.nl)

mtllib crate.mtl

g crate

v 0.385 0.60368 -0.5005 1 1 1
v -0.385 0.60368 -0.5004998 1 1 1
v 0.385 0.60368 -0.5775 1 1 1
v -0.385 0.60368 -0.5774999 1 1 1
v 0.385 0.154 -0.5005 1 1 1
v -0.385 0.154 -0.5004998 1 1 1
v 0.385 0.154 -0.5775 1 1 1
v -0.385 0.154 -0.5774999 1 1 1
v -0.385 0.60368 -0.5005 1 1 1
v -0.385 0.60368 0.5005 1 1 1
v -0.462 0.60368 -0.5005 1 1 1
v -0.462 0.60368 0.5005 1 1 1
v -0.385 0.154 -0.5005 1 1 1
v -0.385 0.154 0.5005 1 1 1
v -0.462 0.154 -0.5005 1 1 1
v -0.462 0.154 0.5005 1 1 1
v 0.385 0.60368 0.5774999 1 1 1
v -0.385 0.60368 0.5775 1 1 1
v 0.385 0.60368 0.5005 1 1 1
v -0.385 0.60368 0.5005001 1 1 1
v 0.385 0.154 0.5774999 1 1 1
v -0.385 0.154 0.5775 1 1 1
v 0.385 0.154 0.5005 1 1 1
v -0.385 0.154 0.5005001 1 1 1
v 0.462 0.60368 -0.5005 1 1 1
v 0.462 0.60368 0.5005 1 1 1
v 0.385 0.60368 -0.5005 1 1 1
v 0.385 0.60368 0.5005 1 1 1
v 0.462 0.154 -0.5005 1 1 1
v 0.462 0.154 0.5005 1 1 1
v 0.385 0.154 -0.5005 1 1 1
v 0.385 0.154 0.5005 1 1 1
v 0.539 0 0.6544999 1 1 1
v 0.539 0 -0.6544999 1 1 1
v -0.539 0 0.6544999 1 1 1
v -0.539 0 -0.6544999 1 1 1
v 0.539 0.154 -0.6544999 1 1 1
v 0.539 0.154 0.6544999 1 1 1
v -0.539 0.154 -0.6544999 1 1 1
v -0.539 0.154 0.6544999 1 1 1
v 0.539 0.77 -0.6545 1 1 1
v 0.539 0.77 -0.5005 1 1 1
v 0.385 0.77 -0.6545 1 1 1
v 0.385 0.77 -0.5005 1 1 1
v 0.539 0.154 -0.6545 1 1 1
v 0.539 0.154 -0.5005 1 1 1
v 0.385 0.154 -0.5005 1 1 1
v 0.385 0.154 -0.6545 1 1 1
v 0.539 0.77 0.5005 1 1 1
v 0.539 0.77 0.6545 1 1 1
v 0.385 0.77 0.5005 1 1 1
v 0.385 0.77 0.6545 1 1 1
v 0.539 0.154 0.5005 1 1 1
v 0.539 0.154 0.6545 1 1 1
v 0.385 0.154 0.6545 1 1 1
v 0.385 0.154 0.5005 1 1 1
v -0.385 0.77 0.5005 1 1 1
v -0.385 0.77 0.6545 1 1 1
v -0.539 0.77 0.5005 1 1 1
v -0.539 0.77 0.6545 1 1 1
v -0.385 0.154 0.5005 1 1 1
v -0.385 0.154 0.6545 1 1 1
v -0.539 0.154 0.6545 1 1 1
v -0.539 0.154 0.5005 1 1 1
v -0.385 0.77 -0.6545 1 1 1
v -0.385 0.77 -0.5005 1 1 1
v -0.539 0.77 -0.6545 1 1 1
v -0.539 0.77 -0.5005 1 1 1
v -0.385 0.154 -0.6545 1 1 1
v -0.385 0.154 -0.5005 1 1 1
v -0.539 0.154 -0.5005 1 1 1
v -0.539 0.154 -0.6545 1 1 1

vn 0 1 0
vn 1.788139E-07 0 1
vn -1.788139E-07 0 -1
vn 1 0 0
vn -1 0 0
vn 0 -1 0
vn 0 0 -1
vn 0 0 1
vn 0 0.9999999 0
vn 0.9999999 0 0
vn 0 0 0.9999999
vn -0.9999999 0 0
vn 0 0 -0.9999999

vt 0.96875 0.225
vt 0.96875 0.025
vt 0.96875 0.075
vt 0.96875 0.175
vt 0.84375 0.225
vt 0.84375 0.025

usemtl colormap

f 3/1/1 2/1/1 1/1/1
f 2/1/1 3/1/1 4/1/1
f 2/1/2 5/2/2 1/1/2
f 5/2/2 2/1/2 6/2/2
f 8/2/3 3/1/3 7/2/3
f 3/1/3 8/2/3 4/1/3
f 11/1/1 10/1/1 9/1/1
f 10/1/1 11/1/1 12/1/1
f 10/1/4 13/2/4 9/1/4
f 13/2/4 10/1/4 14/2/4
f 16/2/5 11/1/5 15/2/5
f 11/1/5 16/2/5 12/1/5
f 19/1/1 18/1/1 17/1/1
f 18/1/1 19/1/1 20/1/1
f 18/1/2 21/2/2 17/1/2
f 21/2/2 18/1/2 22/2/2
f 24/2/3 19/1/3 23/2/3
f 19/1/3 24/2/3 20/1/3
f 27/1/1 26/1/1 25/1/1
f 26/1/1 27/1/1 28/1/1
f 26/1/4 29/2/4 25/1/4
f 29/2/4 26/1/4 30/2/4
f 32/2/5 27/1/5 31/2/5
f 27/1/5 32/2/5 28/1/5
f 35/3/6 34/3/6 33/3/6
f 34/3/6 35/3/6 36/3/6
f 39/4/1 38/4/1 37/4/1
f 38/4/1 39/4/1 40/4/1
f 39/4/7 34/3/7 36/3/7
f 34/3/7 39/4/7 37/4/7
f 38/4/4 34/3/4 37/4/4
f 34/3/4 38/4/4 33/3/4
f 38/4/8 35/3/8 33/3/8
f 35/3/8 38/4/8 40/4/8
f 35/3/5 39/4/5 36/3/5
f 39/4/5 35/3/5 40/4/5
f 43/5/9 42/5/9 41/5/9
f 42/5/9 43/5/9 44/5/9
f 42/5/10 45/6/10 41/5/10
f 45/6/10 42/5/10 46/6/10
f 42/5/11 47/6/11 46/6/11
f 47/6/11 42/5/11 44/5/11
f 47/6/12 43/5/12 48/6/12
f 43/5/12 47/6/12 44/5/12
f 43/5/13 45/6/13 48/6/13
f 45/6/13 43/5/13 41/5/13
f 51/5/9 50/5/9 49/5/9
f 50/5/9 51/5/9 52/5/9
f 50/5/10 53/6/10 49/5/10
f 53/6/10 50/5/10 54/6/10
f 50/5/11 55/6/11 54/6/11
f 55/6/11 50/5/11 52/5/11
f 55/6/12 51/5/12 56/6/12
f 51/5/12 55/6/12 52/5/12
f 51/5/13 53/6/13 56/6/13
f 53/6/13 51/5/13 49/5/13
f 59/5/9 58/5/9 57/5/9
f 58/5/9 59/5/9 60/5/9
f 58/5/10 61/6/10 57/5/10
f 61/6/10 58/5/10 62/6/10
f 58/5/11 63/6/11 62/6/11
f 63/6/11 58/5/11 60/5/11
f 63/6/12 59/5/12 64/6/12
f 59/5/12 63/6/12 60/5/12
f 59/5/13 61/6/13 64/6/13
f 61/6/13 59/5/13 57/5/13
f 67/5/9 66/5/9 65/5/9
f 66/5/9 67/5/9 68/5/9
f 66/5/10 69/6/10 65/5/10
f 69/6/10 66/5/10 70/6/10
f 66/5/11 71/6/11 70/6/11
f 71/6/11 66/5/11 68/5/11
f 71/6/12 67/5/12 72/6/12
f 67/5/12 71/6/12 68/5/12
f 67/5/13 69/6/13 72/6/13
f 69/6/13 67/5/13 65/5/13

g crate




usemtl colormap

f 3/1/1 2/1/1 1/1/1
f 2/1/1 3/1/1 4/1/1
f 2/1/2 5/2/2 1/1/2
f 5/2/2 2/1/2 6/2/2
f 8/2/3 3/1/3 7/2/3
f 3/1/3 8/2/3 4/1/3
f 11/1/1 10/1/1 9/1/1
f 10/1/1 11/1/1 12/1/1
f 10/1/4 13/2/4 9/1/4
f 13/2/4 10/1/4 14/2/4
f 16/2/5 11/1/5 15/2/5
f 11/1/5 16/2/5 12/1/5
f 19/1/1 18/1/1 17/1/1
f 18/1/1 19/1/1 20/1/1
f 18/1/2 21/2/2 17/1/2
f 21/2/2 18/1/2 22/2/2
f 24/2/3 19/1/3 23/2/3
f 19/1/3 24/2/3 20/1/3
f 27/1/1 26/1/1 25/1/1
f 26/1/1 27/1/1 28/1/1
f 26/1/4 29/2/4 25/1/4
f 29/2/4 26/1/4 30/2/4
f 32/2/5 27/1/5 31/2/5
f 27/1/5 32/2/5 28/1/5
f 35/3/6 34/3/6 33/3/6
f 34/3/6 35/3/6 36/3/6
f 39/4/1 38/4/1 37/4/1
f 38/4/1 39/4/1 40/4/1
f 39/4/7 34/3/7 36/3/7
f 34/3/7 39/4/7 37/4/7
f 38/4/4 34/3/4 37/4/4
f 34/3/4 38/4/4 33/3/4
f 38/4/8 35/3/8 33/3/8
f 35/3/8 38/4/8 40/4/8
f 35/3/5 39/4/5 36/3/5
f 39/4/5 35/3/5 40/4/5
f 43/5/9 42/5/9 41/5/9
f 42/5/9 43/5/9 44/5/9
f 42/5/10 45/6/10 41/5/10
f 45/6/10 42/5/10 46/6/10
f 42/5/11 47/6/11 46/6/11
f 47/6/11 42/5/11 44/5/11
f 47/6/12 43/5/12 48/6/12
f 43/5/12 47/6/12 44/5/12
f 43/5/13 45/6/13 48/6/13
f 45/6/13 43/5/13 41/5/13
f 51/5/9 50/5/9 49/5/9
f 50/5/9 51/5/9 52/5/9
f 50/5/10 53/6/10 49/5/10
f 53/6/10 50/5/10 54/6/10
f 50/5/11 55/6/11 54/6/11
f 55/6/11 50/5/11 52/5/11
f 55/6/12 51/5/12 56/6/12
f 51/5/12 55/6/12 52/5/12
f 51/5/13 53/6/13 56/6/13
f 53/6/13 51/5/13 49/5/13
f 59/5/9 58/5/9 57/5/9
f 58/5/9 59/5/9 60/5/9
f 58/5/10 61/6/10 57/5/10
f 61/6/10 58/5/10 62/6/10
f 58/5/11 63/6/11 62/6/11
f 63/6/11 58/5/11 60/5/11
f 63/6/12 59/5/12 64/6/12
f 59/5/12 63/6/12 60/5/12
f 59/5/13 61/6/13 64/6/13
f 61/6/13 59/5/13 57/5/13
f 67/5/9 66/5/9 65/5/9
f 66/5/9 67/5/9 68/5/9
f 66/5/10 69/6/10 65/5/10
f 69/6/10 66/5/10 70/6/10
f 66/5/11 71/6/11 70/6/11
f 71/6/11 66/5/11 68/5/11
f 71/6/12 67/5/12 72/6/12
f 67/5/12 71/6/12 68/5/12
f 67/5/13 69/6/13 72/6/13
f 69/6/13 67/5/13 65/5/13

