# Created by Kenney (www.kenney.nl)

mtllib flag-high.mtl

g flag-high

v 0.09210001 0 0.09210002 1 1 1
v 0.09210002 0 -0.09210001 1 1 1
v -0.09210002 0 0.09210001 1 1 1
v -0.09210001 0 -0.09210002 1 1 1
v 0.05249701 3.359893 -0.052497 1 1 1
v 0.052497 3.359893 0.05249701 1 1 1
v -0.05249701 3.359893 0.052497 1 1 1
v -0.052497 3.359893 -0.05249701 1 1 1
v -0.02967691 3.596843 0.02967691 1 1 1
v -0.02967691 3.596843 -0.02967691 1 1 1
v 0.02967691 3.596843 0.02967691 1 1 1
v 0.02967691 3.596843 -0.02967691 1 1 1
v 0.0860811 3.444339 -0.08608109 1 1 1
v -0.08608109 3.444339 -0.0860811 1 1 1
v 0.08608109 3.444339 0.0860811 1 1 1
v -0.0860811 3.444339 0.08608109 1 1 1
v -0.09210003 2.5 0.13815 1 1 1
v 0.0921 2.5 0.13815 1 1 1
v -0.13815 2.5 0.0921 1 1 1
v 0.13815 2.5 0.09210003 1 1 1
v -0.13815 2.5 -0.09210003 1 1 1
v 0.13815 2.5 -0.0921 1 1 1
v -0.0921 2.5 -0.13815 1 1 1
v 0.09210003 2.5 -0.13815 1 1 1
v 0.0921 2.6575 0.13815 1 1 1
v -0.09210003 2.6575 0.13815 1 1 1
v 0.13815 2.6575 0.09210003 1 1 1
v -0.13815 2.6575 0.0921 1 1 1
v 0.13815 2.6575 -0.0921 1 1 1
v -0.13815 2.6575 -0.09210003 1 1 1
v 0.09210003 2.6575 -0.13815 1 1 1
v -0.0921 2.6575 -0.13815 1 1 1
v -0.13815 3.1 -0.09210003 1 1 1
v -0.0921 3.1 -0.13815 1 1 1
v -0.13815 3.2575 -0.09210003 1 1 1
v -0.0921 3.2575 -0.13815 1 1 1
v 0.0921 3.2575 0.13815 1 1 1
v 0.0921 3.1 0.13815 1 1 1
v -0.09210003 3.2575 0.13815 1 1 1
v -0.09210003 3.1 0.13815 1 1 1
v 0.13815 3.2575 0.09210003 1 1 1
v -0.13815 3.2575 0.0921 1 1 1
v 0.13815 3.2575 -0.0921 1 1 1
v 0.09210003 3.2575 -0.13815 1 1 1
v -0.13815 3.1 0.0921 1 1 1
v 0.13815 3.1 -0.0921 1 1 1
v 0.13815 3.1 0.09210003 1 1 1
v 0.09210003 3.1 -0.13815 1 1 1
v 0.6558281 3.25 0.05345133 1 1 1
v 0.6558281 2.5 0.05345133 1 1 1
v 0.4085973 3.25 -0.07683612 1 1 1
v 0.4085973 2.5 -0.07683612 1 1 1
v 0.2379028 3.25 -0.07683615 1 1 1
v 0.2379028 2.5 -0.07683615 1 1 1
v 0.09210002 3.25 1.117587E-08 1 1 1
v 0.09210002 2.5 1.117587E-08 1 1 1
v 1.1373 3.25 1.359731E-07 1 1 1
v 1.1373 2.5 1.359731E-07 1 1 1
v 1.05489 3.25 -0.04342902 1 1 1
v 1.05489 2.5 -0.04342902 1 1 1
v 0.7745721 3.25 0.05345134 1 1 1
v 0.7745721 2.5 0.05345134 1 1 1
v 0.9584104 3.25 -0.04342903 1 1 1
v 0.9584104 2.5 -0.04342903 1 1 1
v 0.8760001 3.25 1.043081E-07 1 1 1
v 0.8760001 2.5 1.043081E-07 1 1 1
v -0.1329695 5.414335E-16 0.1994541 1 1 1
v 0.1329693 5.414335E-16 0.1994541 1 1 1
v -0.1994541 5.414335E-16 0.1329694 1 1 1
v 0.1994541 5.414335E-16 0.1329694 1 1 1
v -0.1994541 5.414335E-16 -0.1329695 1 1 1
v 0.1994541 5.414335E-16 -0.1329694 1 1 1
v -0.1329694 5.414335E-16 -0.1994541 1 1 1
v 0.1329694 5.414335E-16 -0.1994541 1 1 1
v -0.1023174 0.23625 0.153476 1 1 1
v -0.1534761 0.23625 0.1023173 1 1 1
v 0.1023173 0.23625 0.153476 1 1 1
v 0.153476 0.23625 0.1023174 1 1 1
v 0.153476 0.23625 -0.1023174 1 1 1
v -0.153476 0.23625 -0.1023174 1 1 1
v -0.1023174 0.23625 -0.153476 1 1 1
v 0.1023174 0.23625 -0.153476 1 1 1

vn 0 -0.9999999 0
vn 0.9999306 0.01178616 1.19201E-07
vn -0.9999306 0.01178616 -1.19201E-07
vn -1.19201E-07 0.01178616 0.9999306
vn 1.19201E-07 0.01178616 -0.9999306
vn 0 0.9999999 0
vn 1.192045E-07 -0.008994307 -0.9999596
vn 1.107707E-07 -0.369546 -0.9292124
vn -1.192045E-07 -0.008994307 0.9999596
vn -1.107707E-07 -0.369546 0.9292124
vn -0.9292124 -0.369546 -1.107707E-07
vn -0.9999596 -0.008994307 -1.192045E-07
vn 0.9292124 -0.369546 1.107707E-07
vn 0.9999596 -0.008994307 1.192045E-07
vn 0.9379066 0.3468881 1.118072E-07
vn -0.9379066 0.3468881 -1.118072E-07
vn -1.118072E-07 0.3468881 0.9379066
vn 1.118072E-07 0.3468881 -0.9379066
vn 0.3826833 0 0.9238796
vn -0.3826835 0 0.9238794
vn 0.9238796 0 -0.3826833
vn 0.9238794 0 0.3826835
vn 0.3826835 0 -0.9238794
vn -0.3826833 0 -0.9238796
vn -0.9238796 0 0.3826833
vn -0.9238794 0 -0.3826835
vn -0.240132 0 0.9707402
vn 0.240132 0 -0.9707402
vn 0.2401318 0 0.9707402
vn 0.4662113 0 0.8846734
vn -0.4662113 0 -0.8846734
vn -0.2401318 0 -0.9707402
vn -0.4662116 0 0.8846733
vn 0.4662116 0 -0.8846733
vn 0 -0.9999998 0
vn 0 0.9999998 0
vn 0.8966273 0.2240496 -0.3819178
vn 0.8966272 0.2240496 0.381918
vn 0.9048926 0.2231342 -0.3624646
vn 0.9048924 0.2231342 0.3624649
vn 0.3819178 0.2240496 0.8966273
vn 0.3624646 0.2231342 0.9048926
vn -0.381918 0.2240496 0.8966272
vn -0.3624649 0.2231342 0.9048924
vn 0.381918 0.2240496 -0.8966272
vn 0.3624649 0.2231342 -0.9048924
vn -0.3819178 0.2240496 -0.8966273
vn -0.3624646 0.2231342 -0.9048926
vn -0.9048926 0.2231342 0.3624646
vn -0.8966273 0.2240496 0.3819178
vn -0.8966272 0.2240496 -0.381918
vn -0.9048924 0.2231342 -0.3624649

vt 0.84375 0.025
vt 0.84375 0.2118245
vt 0.71875 0.225
vt 0.71875 0.2165201
vt 0.71875 0.2118245
vt 0.71875 0.025
vt 0.71875 0.06658415
vt 0.71875 0.1834158
vt 0.59375 0.025
vt 0.59375 0.225

usemtl colormap

f 3/1/1 2/1/1 1/1/1
f 2/1/1 3/1/1 4/1/1
f 5/2/2 1/1/2 2/1/2
f 1/1/2 5/2/2 6/2/2
f 7/2/3 4/1/3 3/1/3
f 4/1/3 7/2/3 8/2/3
f 6/2/4 3/1/4 1/1/4
f 3/1/4 6/2/4 7/2/4
f 4/1/5 5/2/5 2/1/5
f 5/2/5 4/1/5 8/2/5
f 11/3/6 10/3/6 9/3/6
f 10/3/6 11/3/6 12/3/6
f 5/5/8 14/4/7 13/4/7
f 14/4/7 5/5/8 8/5/8
f 16/4/9 6/5/10 15/4/9
f 6/5/10 16/4/9 7/5/10
f 16/4/12 8/5/11 7/5/11
f 8/5/11 16/4/12 14/4/12
f 13/4/14 6/5/13 5/5/13
f 6/5/13 13/4/14 15/4/14
f 12/3/15 15/4/14 13/4/14
f 15/4/14 12/3/15 11/3/15
f 9/3/16 14/4/12 16/4/12
f 14/4/12 9/3/16 10/3/16
f 11/3/17 16/4/9 15/4/9
f 16/4/9 11/3/17 9/3/17
f 14/4/7 12/3/18 13/4/7
f 12/3/18 14/4/7 10/3/18
f 19/6/1 18/6/1 17/6/1
f 18/6/1 19/6/1 20/6/1
f 20/6/1 19/6/1 21/6/1
f 20/6/1 21/6/1 22/6/1
f 22/6/1 21/6/1 23/6/1
f 22/6/1 23/6/1 24/6/1
f 27/7/6 26/7/6 25/7/6
f 26/7/6 27/7/6 28/7/6
f 28/7/6 27/7/6 29/7/6
f 28/7/6 29/7/6 30/7/6
f 30/7/6 29/7/6 31/7/6
f 30/7/6 31/7/6 32/7/6
f 26/7/20 18/6/19 25/7/19
f 18/6/19 26/7/20 17/6/20
f 29/7/21 20/6/22 22/6/21
f 20/6/22 29/7/21 27/7/22
f 23/6/24 31/7/23 24/6/23
f 31/7/23 23/6/24 32/7/24
f 28/7/25 21/6/26 19/6/25
f 21/6/26 28/7/25 30/7/26
f 28/7/25 17/6/20 26/7/20
f 17/6/20 28/7/25 19/6/25
f 25/7/19 20/6/22 27/7/22
f 20/6/22 25/7/19 18/6/19
f 31/7/23 22/6/21 24/6/23
f 22/6/21 31/7/23 29/7/21
f 30/7/26 23/6/24 21/6/26
f 23/6/24 30/7/26 32/7/24
f 35/3/26 34/8/24 33/8/26
f 34/8/24 35/3/26 36/3/24
f 39/3/20 38/8/19 37/3/19
f 38/8/19 39/3/20 40/8/20
f 41/3/6 39/3/6 37/3/6
f 39/3/6 41/3/6 42/3/6
f 42/3/6 41/3/6 43/3/6
f 42/3/6 43/3/6 35/3/6
f 35/3/6 43/3/6 44/3/6
f 35/3/6 44/3/6 36/3/6
f 42/3/25 33/8/26 45/8/25
f 33/8/26 42/3/25 35/3/26
f 43/3/21 47/8/22 46/8/21
f 47/8/22 43/3/21 41/3/22
f 45/8/1 38/8/1 40/8/1
f 38/8/1 45/8/1 47/8/1
f 47/8/1 45/8/1 33/8/1
f 47/8/1 33/8/1 46/8/1
f 46/8/1 33/8/1 34/8/1
f 46/8/1 34/8/1 48/8/1
f 34/8/24 44/3/23 48/8/23
f 44/3/23 34/8/24 36/3/24
f 42/3/25 40/8/20 39/3/20
f 40/8/20 42/3/25 45/8/25
f 37/3/19 47/8/22 41/3/22
f 47/8/22 37/3/19 38/8/19
f 44/3/23 46/8/21 48/8/23
f 46/8/21 44/3/23 43/3/21
f 51/3/27 50/6/27 49/3/27
f 50/6/27 51/3/27 52/6/27
f 49/3/28 50/6/28 51/3/28
f 52/6/28 51/3/28 50/6/28
f 55/3/30 54/6/29 53/3/29
f 54/6/29 55/3/30 56/6/30
f 53/3/32 54/6/32 55/3/31
f 56/6/31 55/3/31 54/6/32
f 59/3/27 58/6/33 57/3/33
f 58/6/33 59/3/27 60/6/27
f 57/3/34 58/6/34 59/3/28
f 60/6/28 59/3/28 58/6/34
f 49/3/27 62/6/29 61/3/29
f 62/6/29 49/3/27 50/6/27
f 61/3/32 62/6/32 49/3/28
f 50/6/28 49/3/28 62/6/32
f 63/3/29 60/6/27 59/3/27
f 60/6/27 63/3/29 64/6/29
f 59/3/28 60/6/28 63/3/32
f 64/6/32 63/3/32 60/6/28
f 65/3/30 64/6/29 63/3/29
f 64/6/29 65/3/30 66/6/30
f 66/6/30 65/3/30 61/3/29
f 66/6/30 61/3/29 62/6/29
f 63/3/32 64/6/32 65/3/31
f 66/6/31 65/3/31 64/6/32
f 61/3/32 65/3/31 66/6/31
f 62/6/32 61/3/32 66/6/31
f 53/3/29 52/6/27 51/3/27
f 52/6/27 53/3/29 54/6/29
f 51/3/28 52/6/28 53/3/32
f 54/6/32 53/3/32 52/6/28
f 69/9/35 68/9/35 67/9/35
f 68/9/35 69/9/35 70/9/35
f 70/9/35 69/9/35 71/9/35
f 70/9/35 71/9/35 72/9/35
f 72/9/35 71/9/35 73/9/35
f 72/9/35 73/9/35 74/9/35
f 77/10/36 76/10/36 75/10/36
f 76/10/36 77/10/36 78/10/36
f 76/10/36 78/10/36 79/10/36
f 76/10/36 79/10/36 80/10/36
f 80/10/36 79/10/36 81/10/36
f 81/10/36 79/10/36 82/10/36
f 79/10/39 70/9/38 72/9/37
f 70/9/38 79/10/39 78/10/40
f 78/10/40 68/9/41 70/9/38
f 68/9/41 78/10/40 77/10/42
f 77/10/42 67/9/43 68/9/41
f 67/9/43 77/10/42 75/10/44
f 73/9/47 82/10/46 74/9/45
f 82/10/46 73/9/47 81/10/48
f 76/10/49 67/9/43 75/10/44
f 67/9/43 76/10/49 69/9/50
f 82/10/46 72/9/37 74/9/45
f 72/9/37 82/10/46 79/10/39
f 80/10/52 73/9/47 71/9/51
f 73/9/47 80/10/52 81/10/48
f 76/10/49 71/9/51 69/9/50
f 71/9/51 76/10/49 80/10/52

g flag-high




usemtl colormap

f 3/1/1 2/1/1 1/1/1
f 2/1/1 3/1/1 4/1/1
f 5/2/2 1/1/2 2/1/2
f 1/1/2 5/2/2 6/2/2
f 7/2/3 4/1/3 3/1/3
f 4/1/3 7/2/3 8/2/3
f 6/2/4 3/1/4 1/1/4
f 3/1/4 6/2/4 7/2/4
f 4/1/5 5/2/5 2/1/5
f 5/2/5 4/1/5 8/2/5
f 11/3/6 10/3/6 9/3/6
f 10/3/6 11/3/6 12/3/6
f 5/5/8 14/4/7 13/4/7
f 14/4/7 5/5/8 8/5/8
f 16/4/9 6/5/10 15/4/9
f 6/5/10 16/4/9 7/5/10
f 16/4/12 8/5/11 7/5/11
f 8/5/11 16/4/12 14/4/12
f 13/4/14 6/5/13 5/5/13
f 6/5/13 13/4/14 15/4/14
f 12/3/15 15/4/14 13/4/14
f 15/4/14 12/3/15 11/3/15
f 9/3/16 14/4/12 16/4/12
f 14/4/12 9/3/16 10/3/16
f 11/3/17 16/4/9 15/4/9
f 16/4/9 11/3/17 9/3/17
f 14/4/7 12/3/18 13/4/7
f 12/3/18 14/4/7 10/3/18
f 19/6/1 18/6/1 17/6/1
f 18/6/1 19/6/1 20/6/1
f 20/6/1 19/6/1 21/6/1
f 20/6/1 21/6/1 22/6/1
f 22/6/1 21/6/1 23/6/1
f 22/6/1 23/6/1 24/6/1
f 27/7/6 26/7/6 25/7/6
f 26/7/6 27/7/6 28/7/6
f 28/7/6 27/7/6 29/7/6
f 28/7/6 29/7/6 30/7/6
f 30/7/6 29/7/6 31/7/6
f 30/7/6 31/7/6 32/7/6
f 26/7/20 18/6/19 25/7/19
f 18/6/19 26/7/20 17/6/20
f 29/7/21 20/6/22 22/6/21
f 20/6/22 29/7/21 27/7/22
f 23/6/24 31/7/23 24/6/23
f 31/7/23 23/6/24 32/7/24
f 28/7/25 21/6/26 19/6/25
f 21/6/26 28/7/25 30/7/26
f 28/7/25 17/6/20 26/7/20
f 17/6/20 28/7/25 19/6/25
f 25/7/19 20/6/22 27/7/22
f 20/6/22 25/7/19 18/6/19
f 31/7/23 22/6/21 24/6/23
f 22/6/21 31/7/23 29/7/21
f 30/7/26 23/6/24 21/6/26
f 23/6/24 30/7/26 32/7/24
f 35/3/26 34/8/24 33/8/26
f 34/8/24 35/3/26 36/3/24
f 39/3/20 38/8/19 37/3/19
f 38/8/19 39/3/20 40/8/20
f 41/3/6 39/3/6 37/3/6
f 39/3/6 41/3/6 42/3/6
f 42/3/6 41/3/6 43/3/6
f 42/3/6 43/3/6 35/3/6
f 35/3/6 43/3/6 44/3/6
f 35/3/6 44/3/6 36/3/6
f 42/3/25 33/8/26 45/8/25
f 33/8/26 42/3/25 35/3/26
f 43/3/21 47/8/22 46/8/21
f 47/8/22 43/3/21 41/3/22
f 45/8/1 38/8/1 40/8/1
f 38/8/1 45/8/1 47/8/1
f 47/8/1 45/8/1 33/8/1
f 47/8/1 33/8/1 46/8/1
f 46/8/1 33/8/1 34/8/1
f 46/8/1 34/8/1 48/8/1
f 34/8/24 44/3/23 48/8/23
f 44/3/23 34/8/24 36/3/24
f 42/3/25 40/8/20 39/3/20
f 40/8/20 42/3/25 45/8/25
f 37/3/19 47/8/22 41/3/22
f 47/8/22 37/3/19 38/8/19
f 44/3/23 46/8/21 48/8/23
f 46/8/21 44/3/23 43/3/21
f 51/3/27 50/6/27 49/3/27
f 50/6/27 51/3/27 52/6/27
f 49/3/28 50/6/28 51/3/28
f 52/6/28 51/3/28 50/6/28
f 55/3/30 54/6/29 53/3/29
f 54/6/29 55/3/30 56/6/30
f 53/3/32 54/6/32 55/3/31
f 56/6/31 55/3/31 54/6/32
f 59/3/27 58/6/33 57/3/33
f 58/6/33 59/3/27 60/6/27
f 57/3/34 58/6/34 59/3/28
f 60/6/28 59/3/28 58/6/34
f 49/3/27 62/6/29 61/3/29
f 62/6/29 49/3/27 50/6/27
f 61/3/32 62/6/32 49/3/28
f 50/6/28 49/3/28 62/6/32
f 63/3/29 60/6/27 59/3/27
f 60/6/27 63/3/29 64/6/29
f 59/3/28 60/6/28 63/3/32
f 64/6/32 63/3/32 60/6/28
f 65/3/30 64/6/29 63/3/29
f 64/6/29 65/3/30 66/6/30
f 66/6/30 65/3/30 61/3/29
f 66/6/30 61/3/29 62/6/29
f 63/3/32 64/6/32 65/3/31
f 66/6/31 65/3/31 64/6/32
f 61/3/32 65/3/31 66/6/31
f 62/6/32 61/3/32 66/6/31
f 53/3/29 52/6/27 51/3/27
f 52/6/27 53/3/29 54/6/29
f 51/3/28 52/6/28 53/3/32
f 54/6/32 53/3/32 52/6/28
f 69/9/35 68/9/35 67/9/35
f 68/9/35 69/9/35 70/9/35
f 70/9/35 69/9/35 71/9/35
f 70/9/35 71/9/35 72/9/35
f 72/9/35 71/9/35 73/9/35
f 72/9/35 73/9/35 74/9/35
f 77/10/36 76/10/36 75/10/36
f 76/10/36 77/10/36 78/10/36
f 76/10/36 78/10/36 79/10/36
f 76/10/36 79/10/36 80/10/36
f 80/10/36 79/10/36 81/10/36
f 81/10/36 79/10/36 82/10/36
f 79/10/39 70/9/38 72/9/37
f 70/9/38 79/10/39 78/10/40
f 78/10/40 68/9/41 70/9/38
f 68/9/41 78/10/40 77/10/42
f 77/10/42 67/9/43 68/9/41
f 67/9/43 77/10/42 75/10/44
f 73/9/47 82/10/46 74/9/45
f 82/10/46 73/9/47 81/10/48
f 76/10/49 67/9/43 75/10/44
f 67/9/43 76/10/49 69/9/50
f 82/10/46 72/9/37 74/9/45
f 72/9/37 82/10/46 79/10/39
f 80/10/52 73/9/47 71/9/51
f 73/9/47 80/10/52 81/10/48
f 76/10/49 71/9/51 69/9/50
f 71/9/51 76/10/49 80/10/52

