# Created by Kenney (www.kenney.nl)

mtllib flag-high-pennant.mtl

g flag-high-pennant

v 0.09210001 0 0.09210002 1 1 1
v 0.09210002 0 -0.09210001 1 1 1
v -0.09210002 0 0.09210001 1 1 1
v -0.09210001 0 -0.09210002 1 1 1
v -0.05249701 3.359893 0.052497 1 1 1
v -0.052497 3.359893 -0.05249701 1 1 1
v 0.052497 3.359893 0.05249701 1 1 1
v 0.05249701 3.359893 -0.052497 1 1 1
v -0.02967691 3.596843 0.02967691 1 1 1
v -0.02967691 3.596843 -0.02967691 1 1 1
v 0.02967691 3.596843 0.02967691 1 1 1
v 0.02967691 3.596843 -0.02967691 1 1 1
v 0.0860811 3.444339 -0.08608109 1 1 1
v -0.08608109 3.444339 -0.0860811 1 1 1
v 0.08608109 3.444339 0.0860811 1 1 1
v -0.0860811 3.444339 0.08608109 1 1 1
v 1.2021 3.1 1.41561E-07 1 1 1
v 1.314099 2.976768 -0.08453397 1 1 1
v 1.2021 2.92 1.41561E-07 1 1 1
v 1.314406 3.1 -0.07561198 1 1 1
v 1.449487 3.044462 -0.08453396 1 1 1
v 1.052359 3.146794 0.1056243 1 1 1
v 1.449794 3.1 -0.07561196 1 1 1
v 1.5621 3.1 1.862645E-07 1 1 1
v 0.7221 3.25 8.940697E-08 1 1 1
v 0.8718163 2.837537 0.103919 1 1 1
v 0.7221 2.8 8.940697E-08 1 1 1
v 1.052333 2.882666 0.103919 1 1 1
v 0.8718415 3.203206 0.1056243 1 1 1
v 0.2886357 3.25 -0.1323212 1 1 1
v 0.2886357 2.8 -0.1323212 1 1 1
v 0.09210002 3.25 7.450581E-09 1 1 1
v 0.09210002 2.8 7.450581E-09 1 1 1
v 0.5255643 3.25 -0.1323212 1 1 1
v 0.5255643 2.8 -0.1323212 1 1 1
v -0.09210005 2.8 0.13815 1 1 1
v 0.09209998 2.8 0.13815 1 1 1
v -0.13815 2.8 0.09209998 1 1 1
v 0.13815 2.8 0.09210001 1 1 1
v -0.13815 2.8 -0.09210005 1 1 1
v 0.13815 2.8 -0.09210002 1 1 1
v -0.09210002 2.8 -0.13815 1 1 1
v 0.09210002 2.8 -0.13815 1 1 1
v 0.09209998 3.25 0.13815 1 1 1
v -0.09210005 3.25 0.13815 1 1 1
v 0.13815 3.25 0.09210001 1 1 1
v -0.13815 3.25 0.09209998 1 1 1
v 0.13815 3.25 -0.09210002 1 1 1
v -0.13815 3.25 -0.09210005 1 1 1
v 0.09210002 3.25 -0.13815 1 1 1
v -0.09210002 3.25 -0.13815 1 1 1
v 0.1329693 5.414335E-16 0.1994541 1 1 1
v 0.1994541 5.414335E-16 0.1329694 1 1 1
v -0.1329695 5.414335E-16 0.1994541 1 1 1
v -0.1994541 5.414335E-16 0.1329694 1 1 1
v -0.1994541 5.414335E-16 -0.1329695 1 1 1
v 0.1994541 5.414335E-16 -0.1329694 1 1 1
v 0.1329694 5.414335E-16 -0.1994541 1 1 1
v -0.1329694 5.414335E-16 -0.1994541 1 1 1
v -0.1023174 0.23625 0.153476 1 1 1
v -0.1534761 0.23625 0.1023173 1 1 1
v 0.1023173 0.23625 0.153476 1 1 1
v 0.153476 0.23625 0.1023174 1 1 1
v 0.153476 0.23625 -0.1023174 1 1 1
v -0.153476 0.23625 -0.1023174 1 1 1
v 0.1023174 0.23625 -0.153476 1 1 1
v -0.1023174 0.23625 -0.153476 1 1 1

vn 0 -0.9999999 0
vn -0.9999306 0.01178616 -1.19201E-07
vn -1.19201E-07 0.01178616 0.9999306
vn 0.9999306 0.01178616 1.19201E-07
vn 1.19201E-07 0.01178616 -0.9999306
vn 0 0.9999999 0
vn 1.192045E-07 -0.008994307 -0.9999596
vn 1.107707E-07 -0.369546 -0.9292124
vn -1.192045E-07 -0.008994307 0.9999596
vn -1.107707E-07 -0.369546 0.9292124
vn -0.9292124 -0.369546 -1.107707E-07
vn -0.9999596 -0.008994307 -1.192045E-07
vn 0.9292124 -0.369546 1.107707E-07
vn 0.9999596 -0.008994307 1.192045E-07
vn 0.9379066 0.3468881 1.118072E-07
vn -0.9379066 0.3468881 -1.118072E-07
vn -1.118072E-07 0.3468881 0.9379066
vn 1.118072E-07 0.3468881 -0.9379066
vn 0.5791739 -0.01306228 0.8150994
vn 0.3991682 -0.04470051 0.9157875
vn 0.5849309 -0.001978688 0.8110807
vn -0.5849309 0.001978688 -0.8110807
vn -0.3991682 0.04470051 -0.9157875
vn -0.5791739 0.01306228 -0.8150994
vn 0.3073872 -0.0806606 0.9481599
vn -0.1921769 -0.1301278 0.9726946
vn 0.1921769 0.1301278 -0.9726946
vn -0.3073872 0.0806606 -0.9481599
vn 0.2467481 -0.005158312 0.9690658
vn -0.2467481 0.005158312 -0.9690658
vn -0.2981044 -0.1497922 0.9427068
vn -0.5538136 -0.1290784 0.8225747
vn 0.5538136 0.1290784 -0.8225747
vn 0.2981044 0.1497922 -0.9427068
vn -0.5660557 -0.001179114 0.8243662
vn -0.3424472 -0.002619845 0.9395335
vn -0.563956 0 0.8258049
vn 0.563956 0 -0.8258049
vn 0.3424472 0.002619845 -0.9395335
vn 0.5660557 0.001179114 -0.8243662
vn 0.2574773 -0.005496143 0.9662688
vn -0.2574773 0.005496143 -0.9662688
vn -0.3564911 -0.004791873 0.9342864
vn 0.3564911 0.004791873 -0.9342864
vn 0.2919637 0 0.9564294
vn 0.5584854 0 0.8295143
vn -0.5584854 0 -0.8295143
vn -0.2919637 0 -0.9564294
vn -0.2919639 0 0.9564292
vn 0.2919639 0 -0.9564292
vn 0.3826833 0 0.9238796
vn -0.3826835 0 0.9238794
vn 0.9238796 0 -0.3826833
vn 0.9238794 0 0.3826835
vn 0.3826835 0 -0.9238794
vn -0.3826833 0 -0.9238796
vn -0.9238796 0 0.3826833
vn -0.9238794 0 -0.3826835
vn 0 -0.9999998 0
vn 0 0.9999998 0
vn 0.381918 0.2240496 -0.8966272
vn 0.3624649 0.2231342 -0.9048924
vn -0.3819178 0.2240496 -0.8966273
vn -0.3624646 0.2231342 -0.9048926
vn 0.3819178 0.2240496 0.8966273
vn -0.381918 0.2240496 0.8966272
vn 0.3624646 0.2231342 0.9048926
vn -0.3624649 0.2231342 0.9048924
vn -0.8966272 0.2240496 -0.381918
vn -0.9048924 0.2231342 -0.3624649
vn -0.8966273 0.2240496 0.3819178
vn -0.9048926 0.2231342 0.3624646
vn 0.8966272 0.2240496 0.381918
vn 0.9048924 0.2231342 0.3624649
vn 0.8966273 0.2240496 -0.3819178
vn 0.9048926 0.2231342 -0.3624646

vt 0.84375 0.025
vt 0.84375 0.2118245
vt 0.71875 0.225
vt 0.71875 0.2165201
vt 0.71875 0.2118245
vt 0.71875 0.1583333
vt 0.71875 0.1035634
vt 0.71875 0.07833333
vt 0.71875 0.1336496
vt 0.71875 0.1791307
vt 0.71875 0.04168291
vt 0.71875 0.025
vt 0.71875 0.06174036
vt 0.71875 0.2042026
vt 0.59375 0.025
vt 0.59375 0.225

usemtl colormap

f 3/1/1 2/1/1 1/1/1
f 2/1/1 3/1/1 4/1/1
f 5/2/2 4/1/2 3/1/2
f 4/1/2 5/2/2 6/2/2
f 7/2/3 3/1/3 1/1/3
f 3/1/3 7/2/3 5/2/3
f 8/2/4 1/1/4 2/1/4
f 1/1/4 8/2/4 7/2/4
f 4/1/5 8/2/5 2/1/5
f 8/2/5 4/1/5 6/2/5
f 11/3/6 10/3/6 9/3/6
f 10/3/6 11/3/6 12/3/6
f 8/5/8 14/4/7 13/4/7
f 14/4/7 8/5/8 6/5/8
f 16/4/9 7/5/10 15/4/9
f 7/5/10 16/4/9 5/5/10
f 16/4/12 6/5/11 5/5/11
f 6/5/11 16/4/12 14/4/12
f 13/4/14 7/5/13 8/5/13
f 7/5/13 13/4/14 15/4/14
f 12/3/15 15/4/14 13/4/14
f 15/4/14 12/3/15 11/3/15
f 9/3/16 14/4/12 16/4/12
f 14/4/12 9/3/16 10/3/16
f 11/3/17 16/4/9 15/4/9
f 16/4/9 11/3/17 9/3/17
f 14/4/7 12/3/18 13/4/7
f 12/3/18 14/4/7 10/3/18
f 19/8/21 18/7/20 17/6/19
f 17/6/24 18/7/23 19/8/22
f 18/7/20 21/9/26 20/6/25
f 20/6/28 21/9/27 18/7/23
f 22/10/29 19/8/21 17/6/19
f 17/6/24 19/8/22 22/10/30
f 21/9/26 24/6/32 23/6/31
f 23/6/34 24/6/33 21/9/27
f 27/12/37 26/11/36 25/3/35
f 25/3/40 26/11/39 27/12/38
f 17/6/19 18/7/20 20/6/25
f 20/6/28 18/7/23 17/6/24
f 28/13/41 19/8/21 22/10/29
f 22/10/30 19/8/22 28/13/42
f 25/3/35 26/11/36 29/14/43
f 29/14/44 26/11/39 25/3/40
f 20/6/25 21/9/26 23/6/31
f 23/6/34 21/9/27 20/6/28
f 29/14/43 28/13/41 22/10/29
f 26/11/36 28/13/41 29/14/43
f 22/10/30 28/13/42 29/14/44
f 29/14/44 28/13/42 26/11/39
f 32/3/46 31/12/45 30/3/45
f 31/12/45 32/3/46 33/12/46
f 30/3/48 31/12/48 32/3/47
f 33/12/47 32/3/47 31/12/48
f 30/3/45 35/12/49 34/3/49
f 35/12/49 30/3/45 31/12/45
f 34/3/50 35/12/50 30/3/48
f 31/12/48 30/3/48 35/12/50
f 34/3/49 27/12/37 25/3/35
f 27/12/37 34/3/49 35/12/49
f 25/3/40 27/12/38 34/3/50
f 35/12/50 34/3/50 27/12/38
f 38/12/1 37/12/1 36/12/1
f 37/12/1 38/12/1 39/12/1
f 39/12/1 38/12/1 40/12/1
f 39/12/1 40/12/1 41/12/1
f 41/12/1 40/12/1 42/12/1
f 41/12/1 42/12/1 43/12/1
f 46/3/6 45/3/6 44/3/6
f 45/3/6 46/3/6 47/3/6
f 47/3/6 46/3/6 48/3/6
f 47/3/6 48/3/6 49/3/6
f 49/3/6 48/3/6 50/3/6
f 49/3/6 50/3/6 51/3/6
f 45/3/52 37/12/51 44/3/51
f 37/12/51 45/3/52 36/12/52
f 48/3/53 39/12/54 41/12/53
f 39/12/54 48/3/53 46/3/54
f 42/12/56 50/3/55 43/12/55
f 50/3/55 42/12/56 51/3/56
f 47/3/57 40/12/58 38/12/57
f 40/12/58 47/3/57 49/3/58
f 47/3/57 36/12/52 45/3/52
f 36/12/52 47/3/57 38/12/57
f 44/3/51 39/12/54 46/3/54
f 39/12/54 44/3/51 37/12/51
f 50/3/55 41/12/53 43/12/55
f 41/12/53 50/3/55 48/3/53
f 49/3/58 42/12/56 40/12/58
f 42/12/56 49/3/58 51/3/56
f 54/15/59 53/15/59 52/15/59
f 53/15/59 54/15/59 55/15/59
f 53/15/59 55/15/59 56/15/59
f 53/15/59 56/15/59 57/15/59
f 57/15/59 56/15/59 58/15/59
f 58/15/59 56/15/59 59/15/59
f 62/16/60 61/16/60 60/16/60
f 61/16/60 62/16/60 63/16/60
f 61/16/60 63/16/60 64/16/60
f 61/16/60 64/16/60 65/16/60
f 65/16/60 64/16/60 66/16/60
f 65/16/60 66/16/60 67/16/60
f 59/15/63 66/16/62 58/15/61
f 66/16/62 59/15/63 67/16/64
f 62/16/67 54/15/66 52/15/65
f 54/15/66 62/16/67 60/16/68
f 65/16/70 59/15/63 56/15/69
f 59/15/63 65/16/70 67/16/64
f 61/16/72 56/15/69 55/15/71
f 56/15/69 61/16/72 65/16/70
f 63/16/74 52/15/65 53/15/73
f 52/15/65 63/16/74 62/16/67
f 61/16/72 54/15/66 60/16/68
f 54/15/66 61/16/72 55/15/71
f 64/16/76 53/15/73 57/15/75
f 53/15/73 64/16/76 63/16/74
f 66/16/62 57/15/75 58/15/61
f 57/15/75 66/16/62 64/16/76

g flag-high-pennant




usemtl colormap

f 3/1/1 2/1/1 1/1/1
f 2/1/1 3/1/1 4/1/1
f 5/2/2 4/1/2 3/1/2
f 4/1/2 5/2/2 6/2/2
f 7/2/3 3/1/3 1/1/3
f 3/1/3 7/2/3 5/2/3
f 8/2/4 1/1/4 2/1/4
f 1/1/4 8/2/4 7/2/4
f 4/1/5 8/2/5 2/1/5
f 8/2/5 4/1/5 6/2/5
f 11/3/6 10/3/6 9/3/6
f 10/3/6 11/3/6 12/3/6
f 8/5/8 14/4/7 13/4/7
f 14/4/7 8/5/8 6/5/8
f 16/4/9 7/5/10 15/4/9
f 7/5/10 16/4/9 5/5/10
f 16/4/12 6/5/11 5/5/11
f 6/5/11 16/4/12 14/4/12
f 13/4/14 7/5/13 8/5/13
f 7/5/13 13/4/14 15/4/14
f 12/3/15 15/4/14 13/4/14
f 15/4/14 12/3/15 11/3/15
f 9/3/16 14/4/12 16/4/12
f 14/4/12 9/3/16 10/3/16
f 11/3/17 16/4/9 15/4/9
f 16/4/9 11/3/17 9/3/17
f 14/4/7 12/3/18 13/4/7
f 12/3/18 14/4/7 10/3/18
f 19/8/21 18/7/20 17/6/19
f 17/6/24 18/7/23 19/8/22
f 18/7/20 21/9/26 20/6/25
f 20/6/28 21/9/27 18/7/23
f 22/10/29 19/8/21 17/6/19
f 17/6/24 19/8/22 22/10/30
f 21/9/26 24/6/32 23/6/31
f 23/6/34 24/6/33 21/9/27
f 27/12/37 26/11/36 25/3/35
f 25/3/40 26/11/39 27/12/38
f 17/6/19 18/7/20 20/6/25
f 20/6/28 18/7/23 17/6/24
f 28/13/41 19/8/21 22/10/29
f 22/10/30 19/8/22 28/13/42
f 25/3/35 26/11/36 29/14/43
f 29/14/44 26/11/39 25/3/40
f 20/6/25 21/9/26 23/6/31
f 23/6/34 21/9/27 20/6/28
f 29/14/43 28/13/41 22/10/29
f 26/11/36 28/13/41 29/14/43
f 22/10/30 28/13/42 29/14/44
f 29/14/44 28/13/42 26/11/39
f 32/3/46 31/12/45 30/3/45
f 31/12/45 32/3/46 33/12/46
f 30/3/48 31/12/48 32/3/47
f 33/12/47 32/3/47 31/12/48
f 30/3/45 35/12/49 34/3/49
f 35/12/49 30/3/45 31/12/45
f 34/3/50 35/12/50 30/3/48
f 31/12/48 30/3/48 35/12/50
f 34/3/49 27/12/37 25/3/35
f 27/12/37 34/3/49 35/12/49
f 25/3/40 27/12/38 34/3/50
f 35/12/50 34/3/50 27/12/38
f 38/12/1 37/12/1 36/12/1
f 37/12/1 38/12/1 39/12/1
f 39/12/1 38/12/1 40/12/1
f 39/12/1 40/12/1 41/12/1
f 41/12/1 40/12/1 42/12/1
f 41/12/1 42/12/1 43/12/1
f 46/3/6 45/3/6 44/3/6
f 45/3/6 46/3/6 47/3/6
f 47/3/6 46/3/6 48/3/6
f 47/3/6 48/3/6 49/3/6
f 49/3/6 48/3/6 50/3/6
f 49/3/6 50/3/6 51/3/6
f 45/3/52 37/12/51 44/3/51
f 37/12/51 45/3/52 36/12/52
f 48/3/53 39/12/54 41/12/53
f 39/12/54 48/3/53 46/3/54
f 42/12/56 50/3/55 43/12/55
f 50/3/55 42/12/56 51/3/56
f 47/3/57 40/12/58 38/12/57
f 40/12/58 47/3/57 49/3/58
f 47/3/57 36/12/52 45/3/52
f 36/12/52 47/3/57 38/12/57
f 44/3/51 39/12/54 46/3/54
f 39/12/54 44/3/51 37/12/51
f 50/3/55 41/12/53 43/12/55
f 41/12/53 50/3/55 48/3/53
f 49/3/58 42/12/56 40/12/58
f 42/12/56 49/3/58 51/3/56
f 54/15/59 53/15/59 52/15/59
f 53/15/59 54/15/59 55/15/59
f 53/15/59 55/15/59 56/15/59
f 53/15/59 56/15/59 57/15/59
f 57/15/59 56/15/59 58/15/59
f 58/15/59 56/15/59 59/15/59
f 62/16/60 61/16/60 60/16/60
f 61/16/60 62/16/60 63/16/60
f 61/16/60 63/16/60 64/16/60
f 61/16/60 64/16/60 65/16/60
f 65/16/60 64/16/60 66/16/60
f 65/16/60 66/16/60 67/16/60
f 59/15/63 66/16/62 58/15/61
f 66/16/62 59/15/63 67/16/64
f 62/16/67 54/15/66 52/15/65
f 54/15/66 62/16/67 60/16/68
f 65/16/70 59/15/63 56/15/69
f 59/15/63 65/16/70 67/16/64
f 61/16/72 56/15/69 55/15/71
f 56/15/69 61/16/72 65/16/70
f 63/16/74 52/15/65 53/15/73
f 52/15/65 63/16/74 62/16/67
f 61/16/72 54/15/66 60/16/68
f 54/15/66 61/16/72 55/15/71
f 64/16/76 53/15/73 57/15/75
f 53/15/73 64/16/76 63/16/74
f 66/16/62 57/15/75 58/15/61
f 57/15/75 66/16/62 64/16/76

