# Created by Kenney (www.kenney.nl)

mtllib grass-plant.mtl

g grass-plant

v 0.1966543 0 -0.4128439 1 1 1
v -0.1188158 0 -0.4128439 1 1 1
v 0.1389193 0 -0.1819038 1 1 1
v -0.06108073 0 -0.1819038 1 1 1
v 0.2389193 0.07320508 -0.4551089 1 1 1
v 0.2389193 0.1732051 -0.2819038 1 1 1
v -0.1610807 0.07320508 -0.4551089 1 1 1
v -0.1610807 0.1732051 -0.2819038 1 1 1
v -0.1610807 0.2464102 -0.5551088 1 1 1
v -0.1610807 0.3464102 -0.3819038 1 1 1
v 0.03891927 0.4196152 -0.6551089 1 1 1
v 0.03891927 0.5196152 -0.4819038 1 1 1
v 0.2389193 0.2464102 -0.5551088 1 1 1
v 0.2389193 0.3464102 -0.3819038 1 1 1
v 0.4933013 0.07320508 -0.01450634 1 1 1
v 0.4355662 0 0.0009637177 1 1 1
v 0.5799038 0.2464102 0.03549365 1 1 1
v 0.2778312 0 0.2741688 1 1 1
v 0.5665063 0.4196152 0.2586987 1 1 1
v 0.3799038 0.2464102 0.3819038 1 1 1
v 0.2933013 0.07320508 0.3319038 1 1 1
v 0.2066987 0 -0.06450635 1 1 1
v 0.1066987 0 0.1086987 1 1 1
v 0.3433013 0.1732051 -0.1011089 1 1 1
v 0.4299038 0.3464102 -0.05110888 1 1 1
v 0.4165064 0.5196152 0.1720962 1 1 1
v 0.1433013 0.1732051 0.2453013 1 1 1
v 0.2299038 0.3464102 0.2953013 1 1 1
v -0.3577277 0 0.0009637177 1 1 1
v -0.1288602 0 -0.06450635 1 1 1
v -0.4154627 0.07320508 -0.01450634 1 1 1
v -0.2654627 0.1732051 -0.1011089 1 1 1
v -0.0288602 0 0.1086987 1 1 1
v -0.1999927 0 0.2741688 1 1 1
v -0.3520653 0.3464102 -0.05110888 1 1 1
v -0.3386678 0.5196152 0.1720962 1 1 1
v -0.5020652 0.2464102 0.03549365 1 1 1
v -0.4886678 0.4196152 0.2586987 1 1 1
v -0.2154627 0.07320508 0.3319038 1 1 1
v -0.3020653 0.2464102 0.3819038 1 1 1
v -0.06546272 0.1732051 0.2453013 1 1 1
v -0.1520653 0.3464102 0.2953013 1 1 1
v -0.2322132 0 -0.3473738 1 1 1
v -0.06108072 0 -0.1819038 1 1 1
v -0.2476833 0.05270766 -0.4051089 1 1 1
v -0.09768328 0.1247077 -0.3185064 1 1 1
v -0.3342858 0.1774153 -0.4551089 1 1 1
v -0.1842858 0.2494153 -0.3685064 1 1 1
v -0.3842857 0.2494153 -0.0220962 1 1 1
v -0.5342858 0.1774153 -0.1086987 1 1 1
v -0.3708884 0.374123 -0.2453013 1 1 1
v -0.5208883 0.302123 -0.3319038 1 1 1
v -0.1610807 0 -0.008698761 1 1 1
v -0.3899482 0 -0.07416878 1 1 1
v -0.4476832 0.05270766 -0.05869873 1 1 1
v -0.2976832 0.1247077 0.0279038 1 1 1
v 0.006698758 0.302123 0.5819038 1 1 1
v -0.1933012 0.1774153 0.4819039 1 1 1
v 0.006698739 0.374123 0.4086987 1 1 1
v -0.1933012 0.2494153 0.3086987 1 1 1
v 0.2066987 0.1247077 0.2086987 1 1 1
v 0.2066987 0.2494153 0.3086987 1 1 1
v 0.1066987 0 0.1086987 1 1 1
v -0.09330129 0 0.1086988 1 1 1
v -0.1933013 0.1247077 0.2086988 1 1 1
v 0.2066987 0.05270766 0.3819038 1 1 1
v 0.1644337 0 0.3396388 1 1 1
v 0.2066987 0.1774153 0.4819038 1 1 1
v -0.1510363 0 0.3396389 1 1 1
v -0.1933012 0.05270766 0.3819038 1 1 1
v 0.3976833 0.2494153 -0.0220962 1 1 1
v 0.3842858 0.374123 -0.2453013 1 1 1
v 0.5476832 0.1774153 -0.1086988 1 1 1
v 0.5342858 0.302123 -0.3319038 1 1 1
v 0.2610807 0.05270766 -0.4051089 1 1 1
v 0.1110807 0.1247077 -0.3185063 1 1 1
v 0.2456107 0 -0.3473738 1 1 1
v 0.07447821 0 -0.1819038 1 1 1
v 0.4033457 0 -0.07416879 1 1 1
v 0.1744782 0 -0.008698732 1 1 1
v 0.1976833 0.2494153 -0.3685063 1 1 1
v 0.3476833 0.1774153 -0.4551089 1 1 1
v 0.4610807 0.05270766 -0.05869876 1 1 1
v 0.3110808 0.1247077 0.0279038 1 1 1

vn 0 -1 0
vn 0.973249 -0.1989719 0.1148764
vn 0.8944272 -0.3872983 0.2236068
vn -0.973249 -0.1989719 0.1148764
vn -0.8944272 -0.3872983 0.2236068
vn -0.9238795 0.3314135 -0.1913417
vn 0 0.8660254 -0.5
vn 0.9238795 0.3314135 -0.1913417
vn 0 -0.5 -0.8660254
vn 0 0.5 0.8660254
vn 0.75 -0.5 0.4330127
vn -0.75 0.5 -0.4330127
vn 0.3871385 -0.1989719 -0.9002966
vn 0.6276466 0.3314135 -0.7044322
vn -0.296233 0.3314136 0.895774
vn 0.4330127 0.8660254 0.25
vn -0.5861104 -0.1989719 0.7854201
vn 0.2535644 -0.3872983 -0.8864
vn -0.6408628 -0.3872983 0.6627932
vn -0.2535644 -0.3872983 -0.8864
vn -0.3871385 -0.1989719 -0.9002966
vn -0.6276466 0.3314135 -0.7044322
vn -0.4330127 0.8660254 0.25
vn 0.5861104 -0.1989719 0.7854201
vn 0.296233 0.3314136 0.895774
vn 0.75 0.5 -0.4330127
vn 0.6408628 -0.3872983 0.6627932
vn -0.75 -0.5 0.4330127
vn 0.6003937 -0.5039463 -0.6209394
vn 0.5647287 -0.2196791 -0.7955014
vn 0.5820078 -0.3065901 -0.7531729
vn 0.262236 0.4684546 -0.843672
vn 0.336632 0.3501014 -0.8741326
vn -0.5887049 0.3501014 0.7285982
vn -0.5995234 0.4684546 0.6489393
vn -0.3324226 0.9233961 -0.1919242
vn -0.6756337 -0.6255867 -0.3900772
vn 0.6756337 0.6255867 0.3900772
vn -0.2375523 -0.5039462 0.8304257
vn -0.3612629 -0.3065902 0.88062
vn -0.4065598 -0.2196791 0.8868203
vn 2.980232E-08 0.9233961 0.3838485
vn -0.8617595 0.4684546 0.194733
vn -0.925337 0.3501014 0.1455345
vn -5.960464E-08 0.6255867 -0.7801546
vn 5.960464E-08 -0.6255867 0.7801546
vn -0.9712887 -0.2196791 -0.09131885
vn -0.9432707 -0.3065902 -0.127447
vn -0.837946 -0.5039462 -0.2094864
vn 0.8617594 0.4684546 0.1947328
vn 0.9253371 0.3501014 0.1455344
vn 0.9712888 -0.2196791 -0.09131894
vn 0.9432707 -0.3065901 -0.1274472
vn 0.8379461 -0.5039463 -0.2094866
vn 0.5887051 0.3501014 0.7285982
vn 0.3324225 0.9233961 -0.1919243
vn 0.5995234 0.4684546 0.6489391
vn -0.5647289 -0.2196791 -0.7955012
vn -0.5820079 -0.3065902 -0.7531728
vn -0.6003938 -0.5039462 -0.6209393
vn -0.3366322 0.3501014 -0.8741326
vn -0.2622362 0.4684546 -0.843672
vn 0.4065599 -0.2196791 0.8868201
vn 0.2375525 -0.5039462 0.8304259
vn 0.361263 -0.3065902 0.8806199
vn -0.6756337 0.6255868 0.3900774
vn 0.6756337 -0.6255868 -0.3900774

vt 0.34375 0.3858138
vt 0.34375 0.3868111
vt 0.34375 0.3881735
vt 0.34375 0.3891708
vt 0.34375 0.3905331
vt 0.34375 0.3915305
vt 0.34375 0.3928928
vt 0.34375 0.3119704
vt 0.34375 0.3031901
vt 0.34375 0.3327447
vt 0.34375 0.3535191
vt 0.34375 0.3239644
vt 0.34375 0.3447388
vt 0.34375 0.3655132
vt 0.34375 0.3881181
vt 0.34375 0.3889562
vt 0.34375 0.390101
vt 0.34375 0.3920839
vt 0.34375 0.3940667
vt 0.34375 0.3909391
vt 0.34375 0.3929219
vt 0.34375 0.4135666
vt 0.34375 0.4156832
vt 0.34375 0.4185745
vt 0.34375 0.4206911
vt 0.34375 0.4235825
vt 0.34375 0.4285905
vt 0.34375 0.4256991
vt 0.34375 0.3543335
vt 0.34375 0.3738341
vt 0.34375 0.3430747
vt 0.34375 0.3625754
vt 0.34375 0.3820761
vt 0.34375 0.4015767
vt 0.34375 0.3933348
vt 0.34375 0.3652368
vt 0.34375 0.3451171
vt 0.34375 0.3768528
vt 0.34375 0.3567332
vt 0.34375 0.3969725
vt 0.34375 0.3853564
vt 0.34375 0.4054761

usemtl colormap

f 3/1/1 2/1/1 1/1/1
f 2/1/1 3/1/1 4/1/1
f 6/3/2 1/1/3 5/2/2
f 1/1/3 6/3/2 3/1/3
f 2/1/5 8/3/4 7/2/4
f 8/3/4 2/1/5 4/1/5
f 7/2/4 10/5/6 9/4/6
f 10/5/6 7/2/4 8/3/4
f 9/4/6 12/7/7 11/6/7
f 12/7/7 9/4/6 10/5/6
f 12/7/7 13/4/8 11/6/7
f 13/4/8 12/7/7 14/5/8
f 7/2/9 1/1/9 2/1/9
f 1/1/9 7/2/9 5/2/9
f 5/2/9 7/2/9 9/4/9
f 5/2/9 9/4/9 13/4/9
f 13/4/9 9/4/9 11/6/9
f 14/5/8 5/2/2 13/4/8
f 5/2/2 14/5/8 6/3/2
f 6/3/10 4/1/10 3/1/10
f 4/1/10 6/3/10 8/3/10
f 8/3/10 6/3/10 14/5/10
f 8/3/10 14/5/10 10/5/10
f 10/5/10 14/5/10 12/7/10
f 17/10/11 16/9/11 15/8/11
f 16/9/11 17/10/11 18/9/11
f 18/9/11 17/10/11 19/11/11
f 18/9/11 19/11/11 20/10/11
f 18/9/11 20/10/11 21/8/11
f 18/9/1 22/9/1 16/9/1
f 22/9/1 18/9/1 23/9/1
f 22/9/12 25/13/12 24/12/12
f 25/13/12 22/9/12 23/9/12
f 25/13/12 23/9/12 26/14/12
f 26/14/12 23/9/12 27/12/12
f 26/14/12 27/12/12 28/13/12
f 24/12/13 17/10/14 15/8/13
f 17/10/14 24/12/13 25/13/14
f 19/11/16 28/13/15 20/10/15
f 28/13/15 19/11/16 26/14/16
f 26/14/16 17/10/14 25/13/14
f 17/10/14 26/14/16 19/11/16
f 20/10/15 27/12/17 21/8/17
f 27/12/17 20/10/15 28/13/15
f 24/12/13 16/9/18 22/9/18
f 16/9/18 24/12/13 15/8/13
f 21/8/17 23/9/19 18/9/19
f 23/9/19 21/8/17 27/12/17
f 31/16/21 30/15/20 29/15/20
f 30/15/20 31/16/21 32/17/21
f 34/15/1 30/15/1 33/15/1
f 30/15/1 34/15/1 29/15/1
f 37/20/22 36/19/23 35/18/22
f 36/19/23 37/20/22 38/21/23
f 41/17/24 40/20/25 39/16/24
f 40/20/25 41/17/24 42/18/25
f 35/18/26 30/15/26 32/17/26
f 30/15/26 35/18/26 33/15/26
f 33/15/26 35/18/26 36/19/26
f 33/15/26 36/19/26 41/17/26
f 41/17/26 36/19/26 42/18/26
f 37/20/22 32/17/21 31/16/21
f 32/17/21 37/20/22 35/18/22
f 42/18/25 38/21/23 40/20/25
f 38/21/23 42/18/25 36/19/23
f 41/17/24 34/15/27 33/15/27
f 34/15/27 41/17/24 39/16/24
f 29/15/28 37/20/28 31/16/28
f 37/20/28 29/15/28 34/15/28
f 37/20/28 34/15/28 38/21/28
f 38/21/28 34/15/28 40/20/28
f 40/20/28 34/15/28 39/16/28
f 45/23/30 44/22/29 43/22/29
f 44/22/29 45/23/30 46/24/31
f 47/25/32 46/24/31 45/23/30
f 46/24/31 47/25/32 48/26/33
f 51/27/36 50/25/35 49/26/34
f 50/25/35 51/27/36 52/28/36
f 48/26/33 52/28/36 51/27/36
f 52/28/36 48/26/33 47/25/32
f 54/22/1 44/22/1 53/22/1
f 44/22/1 54/22/1 43/22/1
f 43/22/37 47/25/37 45/23/37
f 47/25/37 43/22/37 54/22/37
f 47/25/37 54/22/37 52/28/37
f 52/28/37 54/22/37 50/25/37
f 50/25/37 54/22/37 55/23/37
f 48/26/38 44/22/38 46/24/38
f 44/22/38 48/26/38 53/22/38
f 53/22/38 48/26/38 51/27/38
f 53/22/38 51/27/38 56/24/38
f 56/24/38 51/27/38 49/26/38
f 56/24/40 54/22/39 53/22/39
f 54/22/39 56/24/40 55/23/41
f 56/24/40 50/25/35 55/23/41
f 50/25/35 56/24/40 49/26/34
f 59/31/42 58/30/43 57/29/42
f 58/30/43 59/31/42 60/32/44
f 63/34/45 62/32/45 61/33/45
f 62/32/45 63/34/45 64/34/45
f 62/32/45 64/34/45 59/31/45
f 59/31/45 64/34/45 65/33/45
f 59/31/45 65/33/45 60/32/45
f 68/30/46 67/34/46 66/35/46
f 67/34/46 68/30/46 69/34/46
f 69/34/46 68/30/46 57/29/46
f 69/34/46 57/29/46 58/30/46
f 69/34/46 58/30/46 70/35/46
f 58/30/43 65/33/48 70/35/47
f 65/33/48 58/30/43 60/32/44
f 70/35/47 64/34/49 69/34/49
f 64/34/49 70/35/47 65/33/48
f 62/32/51 57/29/42 68/30/50
f 57/29/42 62/32/51 59/31/42
f 61/33/53 68/30/50 66/35/52
f 68/30/50 61/33/53 62/32/51
f 61/33/53 67/34/54 63/34/54
f 67/34/54 61/33/53 66/35/52
f 69/34/1 63/34/1 67/34/1
f 63/34/1 69/34/1 64/34/1
f 73/38/57 72/37/56 71/36/55
f 72/37/56 73/38/57 74/39/56
f 77/42/60 76/41/59 75/40/58
f 76/41/59 77/42/60 78/42/60
f 80/42/1 77/42/1 79/42/1
f 77/42/1 80/42/1 78/42/1
f 74/39/56 81/36/61 72/37/56
f 81/36/61 74/39/56 82/38/62
f 84/41/65 79/42/64 83/40/63
f 79/42/64 84/41/65 80/42/64
f 84/41/66 78/42/66 80/42/66
f 78/42/66 84/41/66 76/41/66
f 76/41/66 84/41/66 71/36/66
f 76/41/66 71/36/66 81/36/66
f 81/36/66 71/36/66 72/37/66
f 75/40/58 81/36/61 82/38/62
f 81/36/61 75/40/58 76/41/59
f 71/36/55 83/40/63 73/38/57
f 83/40/63 71/36/55 84/41/65
f 75/40/67 79/42/67 77/42/67
f 79/42/67 75/40/67 83/40/67
f 83/40/67 75/40/67 82/38/67
f 83/40/67 82/38/67 73/38/67
f 73/38/67 82/38/67 74/39/67

g grass-plant




usemtl colormap

f 3/1/1 2/1/1 1/1/1
f 2/1/1 3/1/1 4/1/1
f 6/3/2 1/1/3 5/2/2
f 1/1/3 6/3/2 3/1/3
f 2/1/5 8/3/4 7/2/4
f 8/3/4 2/1/5 4/1/5
f 7/2/4 10/5/6 9/4/6
f 10/5/6 7/2/4 8/3/4
f 9/4/6 12/7/7 11/6/7
f 12/7/7 9/4/6 10/5/6
f 12/7/7 13/4/8 11/6/7
f 13/4/8 12/7/7 14/5/8
f 7/2/9 1/1/9 2/1/9
f 1/1/9 7/2/9 5/2/9
f 5/2/9 7/2/9 9/4/9
f 5/2/9 9/4/9 13/4/9
f 13/4/9 9/4/9 11/6/9
f 14/5/8 5/2/2 13/4/8
f 5/2/2 14/5/8 6/3/2
f 6/3/10 4/1/10 3/1/10
f 4/1/10 6/3/10 8/3/10
f 8/3/10 6/3/10 14/5/10
f 8/3/10 14/5/10 10/5/10
f 10/5/10 14/5/10 12/7/10
f 17/10/11 16/9/11 15/8/11
f 16/9/11 17/10/11 18/9/11
f 18/9/11 17/10/11 19/11/11
f 18/9/11 19/11/11 20/10/11
f 18/9/11 20/10/11 21/8/11
f 18/9/1 22/9/1 16/9/1
f 22/9/1 18/9/1 23/9/1
f 22/9/12 25/13/12 24/12/12
f 25/13/12 22/9/12 23/9/12
f 25/13/12 23/9/12 26/14/12
f 26/14/12 23/9/12 27/12/12
f 26/14/12 27/12/12 28/13/12
f 24/12/13 17/10/14 15/8/13
f 17/10/14 24/12/13 25/13/14
f 19/11/16 28/13/15 20/10/15
f 28/13/15 19/11/16 26/14/16
f 26/14/16 17/10/14 25/13/14
f 17/10/14 26/14/16 19/11/16
f 20/10/15 27/12/17 21/8/17
f 27/12/17 20/10/15 28/13/15
f 24/12/13 16/9/18 22/9/18
f 16/9/18 24/12/13 15/8/13
f 21/8/17 23/9/19 18/9/19
f 23/9/19 21/8/17 27/12/17
f 31/16/21 30/15/20 29/15/20
f 30/15/20 31/16/21 32/17/21
f 34/15/1 30/15/1 33/15/1
f 30/15/1 34/15/1 29/15/1
f 37/20/22 36/19/23 35/18/22
f 36/19/23 37/20/22 38/21/23
f 41/17/24 40/20/25 39/16/24
f 40/20/25 41/17/24 42/18/25
f 35/18/26 30/15/26 32/17/26
f 30/15/26 35/18/26 33/15/26
f 33/15/26 35/18/26 36/19/26
f 33/15/26 36/19/26 41/17/26
f 41/17/26 36/19/26 42/18/26
f 37/20/22 32/17/21 31/16/21
f 32/17/21 37/20/22 35/18/22
f 42/18/25 38/21/23 40/20/25
f 38/21/23 42/18/25 36/19/23
f 41/17/24 34/15/27 33/15/27
f 34/15/27 41/17/24 39/16/24
f 29/15/28 37/20/28 31/16/28
f 37/20/28 29/15/28 34/15/28
f 37/20/28 34/15/28 38/21/28
f 38/21/28 34/15/28 40/20/28
f 40/20/28 34/15/28 39/16/28
f 45/23/30 44/22/29 43/22/29
f 44/22/29 45/23/30 46/24/31
f 47/25/32 46/24/31 45/23/30
f 46/24/31 47/25/32 48/26/33
f 51/27/36 50/25/35 49/26/34
f 50/25/35 51/27/36 52/28/36
f 48/26/33 52/28/36 51/27/36
f 52/28/36 48/26/33 47/25/32
f 54/22/1 44/22/1 53/22/1
f 44/22/1 54/22/1 43/22/1
f 43/22/37 47/25/37 45/23/37
f 47/25/37 43/22/37 54/22/37
f 47/25/37 54/22/37 52/28/37
f 52/28/37 54/22/37 50/25/37
f 50/25/37 54/22/37 55/23/37
f 48/26/38 44/22/38 46/24/38
f 44/22/38 48/26/38 53/22/38
f 53/22/38 48/26/38 51/27/38
f 53/22/38 51/27/38 56/24/38
f 56/24/38 51/27/38 49/26/38
f 56/24/40 54/22/39 53/22/39
f 54/22/39 56/24/40 55/23/41
f 56/24/40 50/25/35 55/23/41
f 50/25/35 56/24/40 49/26/34
f 59/31/42 58/30/43 57/29/42
f 58/30/43 59/31/42 60/32/44
f 63/34/45 62/32/45 61/33/45
f 62/32/45 63/34/45 64/34/45
f 62/32/45 64/34/45 59/31/45
f 59/31/45 64/34/45 65/33/45
f 59/31/45 65/33/45 60/32/45
f 68/30/46 67/34/46 66/35/46
f 67/34/46 68/30/46 69/34/46
f 69/34/46 68/30/46 57/29/46
f 69/34/46 57/29/46 58/30/46
f 69/34/46 58/30/46 70/35/46
f 58/30/43 65/33/48 70/35/47
f 65/33/48 58/30/43 60/32/44
f 70/35/47 64/34/49 69/34/49
f 64/34/49 70/35/47 65/33/48
f 62/32/51 57/29/42 68/30/50
f 57/29/42 62/32/51 59/31/42
f 61/33/53 68/30/50 66/35/52
f 68/30/50 61/33/53 62/32/51
f 61/33/53 67/34/54 63/34/54
f 67/34/54 61/33/53 66/35/52
f 69/34/1 63/34/1 67/34/1
f 63/34/1 69/34/1 64/34/1
f 73/38/57 72/37/56 71/36/55
f 72/37/56 73/38/57 74/39/56
f 77/42/60 76/41/59 75/40/58
f 76/41/59 77/42/60 78/42/60
f 80/42/1 77/42/1 79/42/1
f 77/42/1 80/42/1 78/42/1
f 74/39/56 81/36/61 72/37/56
f 81/36/61 74/39/56 82/38/62
f 84/41/65 79/42/64 83/40/63
f 79/42/64 84/41/65 80/42/64
f 84/41/66 78/42/66 80/42/66
f 78/42/66 84/41/66 76/41/66
f 76/41/66 84/41/66 71/36/66
f 76/41/66 71/36/66 81/36/66
f 81/36/66 71/36/66 72/37/66
f 75/40/58 81/36/61 82/38/62
f 81/36/61 75/40/58 76/41/59
f 71/36/55 83/40/63 73/38/57
f 83/40/63 71/36/55 84/41/65
f 75/40/67 79/42/67 77/42/67
f 79/42/67 75/40/67 83/40/67
f 83/40/67 75/40/67 82/38/67
f 83/40/67 82/38/67 73/38/67
f 73/38/67 82/38/67 74/39/67

