# Created by Kenney (www.kenney.nl)

mtllib patch-sand.mtl

g patch-sand

v -3.323359 0.25 -0.792954 1 1 1
v -3.481338 0.25 0.05735475 1 1 1
v -3.692622 0 -0.8810599 1 1 1
v -3.868153 0 0.0637275 1 1 1
v 3.532691 0 -2.107562 1 1 1
v 3.179422 0.25 -1.896806 1 1 1
v 3.258225 0 -2.74935 1 1 1
v 2.932403 0.25 -2.474415 1 1 1
v 2.728527 0 -2.994899 1 1 1
v 2.455674 0.25 -2.695409 1 1 1
v 1.712016 0 -2.796015 1 1 1
v 1.540814 0.25 -2.516413 1 1 1
v 3.868153 0 0.192735 1 1 1
v 3.731316 0 1.360348 1 1 1
v 3.481338 0.25 0.1734615 1 1 1
v 3.358184 0.25 1.224313 1 1 1
v -2.665959 0.25 -1.354923 1 1 1
v -2.962177 0 -1.50547 1 1 1
v 3.139286 0 -0.72965 1 1 1
v 2.825357 0.25 -0.656685 1 1 1
v -0.07743094 0.25 2.434583 1 1 1
v -0.08603437 0 2.705092 1 1 1
v -0.9543234 0.25 2.538119 1 1 1
v -1.060359 0 2.820132 1 1 1
v 3.179348 0 -1.386131 1 1 1
v 2.928418 0 -1.064992 1 1 1
v 2.861413 0.25 -1.247518 1 1 1
v 2.635576 0.25 -0.9584932 1 1 1
v -1.135327 0.25 -1.944877 1 1 1
v -1.865515 0.25 -1.500064 1 1 1
v -1.261474 0 -2.160975 1 1 1
v -2.072794 0 -1.666737 1 1 1
v -0.4751689 0.25 -2.492668 1 1 1
v -0.5279655 0 -2.769631 1 1 1
v -2.665959 0.25 1.119977 1 1 1
v -2.962177 0 1.244419 1 1 1
v -3.108667 0.25 0.8378032 1 1 1
v -3.454074 0 0.9308925 1 1 1
v 2.170951 0.25 1.932487 1 1 1
v 1.911954 0.25 2.120783 1 1 1
v 2.859445 0.25 1.737459 1 1 1
v 1.344376 0.25 2.713619 1 1 1
v 0.649085 0.25 -2.716249 1 1 1
v 0.5508456 0.25 2.716249 1 1 1
v -1.57355 0.25 2.280028 1 1 1
v -1.980773 0.25 1.746904 1 1 1
v -2.236814 0.25 1.373308 1 1 1
v 0.6120506 0 3.018055 1 1 1
v -1.748389 0 2.533365 1 1 1
v 3.177161 0 1.93051 1 1 1
v 2.412168 0 2.147207 1 1 1
v 2.124393 0 2.356425 1 1 1
v 1.493751 0 3.015132 1 1 1
v 0.7212057 0 -3.018055 1 1 1
v -2.20086 0 1.941005 1 1 1
v -2.485349 0 1.525897 1 1 1

vn -0.4772161 0.8180286 -0.3210825
vn -0.5398588 0.837466 0.08487146
vn -0.4977387 0.8271446 -0.2609364
vn -0.5410005 0.838671 0.06284354
vn 0.5613673 0.8266199 -0.03957786
vn 0.6232325 0.7711743 0.1298902
vn 0.3672079 0.8622372 -0.348863
vn 0.3571878 0.8617464 -0.3602916
vn 0.1176624 0.8124664 -0.5710113
vn -0.005906519 0.7650179 -0.643982
vn -0.03383515 0.7346562 -0.6775954
vn 0.04017557 0.7569621 -0.6522226
vn 0.5429627 0.8305393 -0.1240802
vn 0.4851781 0.845496 0.2230221
vn 0.5381646 0.8165914 -0.2087041
vn 0.4782614 0.8446584 0.2404546
vn -0.2411196 0.6941357 -0.6782603
vn -0.3303069 0.7423827 -0.5828938
vn 0.5217629 0.7652354 -0.3770655
vn 0.5268387 0.7679037 -0.3643693
vn -0.09451275 0.7326077 0.6740575
vn -0.1155637 0.7313075 0.6721864
vn -0.06842405 0.7591805 0.6472735
vn -0.1041164 0.7633451 0.6375453
vn 0.6684767 0.641081 0.3770332
vn 0.6742694 0.7201498 0.1635392
vn 0.6636217 0.5864732 0.4643871
vn 0.6451228 0.7638386 -0.01916214
vn -0.4097677 0.7060295 -0.5775923
vn -0.2857947 0.6842508 -0.6709115
vn -0.4133399 0.7058342 -0.575281
vn -0.23053 0.6648394 -0.7105241
vn -0.3139431 0.7337809 -0.6024993
vn -0.2739174 0.7393166 -0.6151261
vn -0.35938 0.7208285 0.5926654
vn -0.3641083 0.723412 0.5866005
vn -0.4377708 0.7747235 0.4562457
vn -0.4746794 0.7958226 0.3759599
vn 0 1 0
vn -0.112641 0.753863 0.6473041
vn -0.1714866 0.7413331 0.6488587
vn -0.3894536 0.7756606 0.4966654
vn -0.3823054 0.7758934 0.5018286
vn 0 -1 0
vn 0.3325887 0.8036941 0.4934174
vn 0.2751254 0.7817677 0.5595939
vn 0.2604217 0.7612906 0.5938157
vn 0.4068111 0.7854113 0.4665124
vn 0.2959238 0.7704731 0.564624
vn 0.4074637 0.785418 0.4659312
vn 0.02025234 0.7723203 -0.6349105
vn -0.009367398 0.7689714 -0.6392145
vn 0.2399207 0.802394 0.5464447
vn 0.2269239 0.801993 0.5525512
vn -0.5272296 0.7596886 0.3806602
vn -0.5262448 0.7597629 0.3818727
vn -0.4637159 0.7494329 0.4725652
vn -0.4398215 0.7441376 0.5028083

vt 0.09375 0.425
vt 0.09375 0.325

usemtl colormap

f 3/2/3 2/1/2 1/1/1
f 2/1/2 3/2/3 4/2/4
f 7/2/7 6/1/6 5/2/5
f 6/1/6 7/2/7 8/1/8
f 9/2/9 8/1/8 7/2/7
f 8/1/8 9/2/9 10/1/10
f 12/1/12 9/2/9 11/2/11
f 9/2/9 12/1/12 10/1/10
f 15/1/15 14/2/14 13/2/13
f 14/2/14 15/1/15 16/1/16
f 18/2/18 1/1/1 17/1/17
f 1/1/1 18/2/18 3/2/3
f 19/2/19 15/1/15 13/2/13
f 15/1/15 19/2/19 20/1/20
f 23/1/23 22/2/22 21/1/21
f 22/2/22 23/1/23 24/2/24
f 27/1/27 26/2/26 25/2/25
f 26/2/26 27/1/27 28/1/28
f 31/2/31 30/1/30 29/1/29
f 30/1/30 31/2/31 32/2/32
f 34/2/34 29/1/29 33/1/33
f 29/1/29 34/2/34 31/2/31
f 37/1/37 36/2/36 35/1/35
f 36/2/36 37/1/37 38/2/38
f 8/1/39 27/1/39 6/1/39
f 27/1/39 8/1/39 10/1/39
f 27/1/39 10/1/39 28/1/39
f 39/1/39 28/1/39 10/1/39
f 39/1/39 10/1/39 12/1/39
f 39/1/39 20/1/39 28/1/39
f 39/1/39 12/1/39 40/1/39
f 41/1/39 20/1/39 39/1/39
f 16/1/39 20/1/39 41/1/39
f 20/1/39 16/1/39 15/1/39
f 40/1/39 12/1/39 42/1/39
f 42/1/39 12/1/39 43/1/39
f 42/1/39 43/1/39 44/1/39
f 44/1/39 43/1/39 33/1/39
f 44/1/39 33/1/39 21/1/39
f 21/1/39 33/1/39 23/1/39
f 23/1/39 33/1/39 29/1/39
f 23/1/39 29/1/39 45/1/39
f 45/1/39 29/1/39 30/1/39
f 45/1/39 30/1/39 46/1/39
f 46/1/39 30/1/39 17/1/39
f 46/1/39 17/1/39 47/1/39
f 47/1/39 17/1/39 35/1/39
f 35/1/39 17/1/39 1/1/39
f 35/1/39 1/1/39 37/1/39
f 37/1/39 1/1/39 2/1/39
f 44/1/41 22/2/22 48/2/40
f 22/2/22 44/1/41 21/1/21
f 17/1/17 32/2/32 18/2/18
f 32/2/32 17/1/17 30/1/30
f 6/1/6 25/2/25 5/2/5
f 25/2/25 6/1/6 27/1/27
f 45/1/42 24/2/24 23/1/23
f 24/2/24 45/1/42 49/2/43
f 14/2/44 19/2/44 13/2/44
f 19/2/44 14/2/44 50/2/44
f 19/2/44 50/2/44 51/2/44
f 19/2/44 51/2/44 26/2/44
f 26/2/44 51/2/44 9/2/44
f 9/2/44 25/2/44 26/2/44
f 7/2/44 25/2/44 9/2/44
f 25/2/44 7/2/44 5/2/44
f 9/2/44 51/2/44 11/2/44
f 11/2/44 51/2/44 52/2/44
f 11/2/44 52/2/44 53/2/44
f 11/2/44 53/2/44 54/2/44
f 54/2/44 53/2/44 48/2/44
f 54/2/44 48/2/44 34/2/44
f 34/2/44 48/2/44 22/2/44
f 34/2/44 22/2/44 24/2/44
f 34/2/44 24/2/44 31/2/44
f 31/2/44 24/2/44 49/2/44
f 31/2/44 49/2/44 32/2/44
f 32/2/44 49/2/44 55/2/44
f 32/2/44 55/2/44 18/2/44
f 18/2/44 55/2/44 56/2/44
f 18/2/44 56/2/44 36/2/44
f 18/2/44 36/2/44 38/2/44
f 18/2/44 38/2/44 3/2/44
f 3/2/44 38/2/44 4/2/44
f 16/1/16 50/2/45 14/2/14
f 50/2/45 16/1/16 41/1/46
f 39/1/49 52/2/48 51/2/47
f 52/2/48 39/1/49 40/1/50
f 34/2/34 43/1/52 54/2/51
f 43/1/52 34/2/34 33/1/33
f 40/1/50 53/2/53 52/2/48
f 53/2/53 40/1/50 42/1/54
f 42/1/54 48/2/40 53/2/53
f 48/2/40 42/1/54 44/1/41
f 41/1/46 51/2/47 50/2/45
f 51/2/47 41/1/46 39/1/49
f 47/1/57 55/2/56 46/1/55
f 55/2/56 47/1/57 56/2/58
f 46/1/55 49/2/43 45/1/42
f 49/2/43 46/1/55 55/2/56
f 26/2/26 20/1/20 19/2/19
f 20/1/20 26/2/26 28/1/28
f 54/2/51 12/1/12 11/2/11
f 12/1/12 54/2/51 43/1/52
f 2/1/2 38/2/38 37/1/37
f 38/2/38 2/1/2 4/2/4
f 35/1/35 56/2/58 47/1/57
f 56/2/58 35/1/35 36/2/36

g patch-sand




usemtl colormap

f 3/2/3 2/1/2 1/1/1
f 2/1/2 3/2/3 4/2/4
f 7/2/7 6/1/6 5/2/5
f 6/1/6 7/2/7 8/1/8
f 9/2/9 8/1/8 7/2/7
f 8/1/8 9/2/9 10/1/10
f 12/1/12 9/2/9 11/2/11
f 9/2/9 12/1/12 10/1/10
f 15/1/15 14/2/14 13/2/13
f 14/2/14 15/1/15 16/1/16
f 18/2/18 1/1/1 17/1/17
f 1/1/1 18/2/18 3/2/3
f 19/2/19 15/1/15 13/2/13
f 15/1/15 19/2/19 20/1/20
f 23/1/23 22/2/22 21/1/21
f 22/2/22 23/1/23 24/2/24
f 27/1/27 26/2/26 25/2/25
f 26/2/26 27/1/27 28/1/28
f 31/2/31 30/1/30 29/1/29
f 30/1/30 31/2/31 32/2/32
f 34/2/34 29/1/29 33/1/33
f 29/1/29 34/2/34 31/2/31
f 37/1/37 36/2/36 35/1/35
f 36/2/36 37/1/37 38/2/38
f 8/1/39 27/1/39 6/1/39
f 27/1/39 8/1/39 10/1/39
f 27/1/39 10/1/39 28/1/39
f 39/1/39 28/1/39 10/1/39
f 39/1/39 10/1/39 12/1/39
f 39/1/39 20/1/39 28/1/39
f 39/1/39 12/1/39 40/1/39
f 41/1/39 20/1/39 39/1/39
f 16/1/39 20/1/39 41/1/39
f 20/1/39 16/1/39 15/1/39
f 40/1/39 12/1/39 42/1/39
f 42/1/39 12/1/39 43/1/39
f 42/1/39 43/1/39 44/1/39
f 44/1/39 43/1/39 33/1/39
f 44/1/39 33/1/39 21/1/39
f 21/1/39 33/1/39 23/1/39
f 23/1/39 33/1/39 29/1/39
f 23/1/39 29/1/39 45/1/39
f 45/1/39 29/1/39 30/1/39
f 45/1/39 30/1/39 46/1/39
f 46/1/39 30/1/39 17/1/39
f 46/1/39 17/1/39 47/1/39
f 47/1/39 17/1/39 35/1/39
f 35/1/39 17/1/39 1/1/39
f 35/1/39 1/1/39 37/1/39
f 37/1/39 1/1/39 2/1/39
f 44/1/41 22/2/22 48/2/40
f 22/2/22 44/1/41 21/1/21
f 17/1/17 32/2/32 18/2/18
f 32/2/32 17/1/17 30/1/30
f 6/1/6 25/2/25 5/2/5
f 25/2/25 6/1/6 27/1/27
f 45/1/42 24/2/24 23/1/23
f 24/2/24 45/1/42 49/2/43
f 14/2/44 19/2/44 13/2/44
f 19/2/44 14/2/44 50/2/44
f 19/2/44 50/2/44 51/2/44
f 19/2/44 51/2/44 26/2/44
f 26/2/44 51/2/44 9/2/44
f 9/2/44 25/2/44 26/2/44
f 7/2/44 25/2/44 9/2/44
f 25/2/44 7/2/44 5/2/44
f 9/2/44 51/2/44 11/2/44
f 11/2/44 51/2/44 52/2/44
f 11/2/44 52/2/44 53/2/44
f 11/2/44 53/2/44 54/2/44
f 54/2/44 53/2/44 48/2/44
f 54/2/44 48/2/44 34/2/44
f 34/2/44 48/2/44 22/2/44
f 34/2/44 22/2/44 24/2/44
f 34/2/44 24/2/44 31/2/44
f 31/2/44 24/2/44 49/2/44
f 31/2/44 49/2/44 32/2/44
f 32/2/44 49/2/44 55/2/44
f 32/2/44 55/2/44 18/2/44
f 18/2/44 55/2/44 56/2/44
f 18/2/44 56/2/44 36/2/44
f 18/2/44 36/2/44 38/2/44
f 18/2/44 38/2/44 3/2/44
f 3/2/44 38/2/44 4/2/44
f 16/1/16 50/2/45 14/2/14
f 50/2/45 16/1/16 41/1/46
f 39/1/49 52/2/48 51/2/47
f 52/2/48 39/1/49 40/1/50
f 34/2/34 43/1/52 54/2/51
f 43/1/52 34/2/34 33/1/33
f 40/1/50 53/2/53 52/2/48
f 53/2/53 40/1/50 42/1/54
f 42/1/54 48/2/40 53/2/53
f 48/2/40 42/1/54 44/1/41
f 41/1/46 51/2/47 50/2/45
f 51/2/47 41/1/46 39/1/49
f 47/1/57 55/2/56 46/1/55
f 55/2/56 47/1/57 56/2/58
f 46/1/55 49/2/43 45/1/42
f 49/2/43 46/1/55 55/2/56
f 26/2/26 20/1/20 19/2/19
f 20/1/20 26/2/26 28/1/28
f 54/2/51 12/1/12 11/2/11
f 12/1/12 54/2/51 43/1/52
f 2/1/2 38/2/38 37/1/37
f 38/2/38 2/1/2 4/2/4
f 35/1/35 56/2/58 47/1/57
f 56/2/58 35/1/35 36/2/36

