# Created by Kenney (www.kenney.nl)

mtllib platform.mtl

g platform

v 0.8693777 0.228 -1.256346 1 1 1
v 0.9304581 0.228 1.242908 1 1 1
v 0.3195419 0.228 -1.242908 1 1 1
v 0.3806223 0.228 1.256346 1 1 1
v -0.975 0.2 -1.25 1 1 1
v -0.975 0.2 1.25 1 1 1
v -1.25 0.2 -1.25 1 1 1
v -1.25 0.2 1.25 1 1 1
v 1.25 0.2 -1.25 1 1 1
v 1.25 0.2 1.25 1 1 1
v 0.975 0.2 -1.25 1 1 1
v 0.975 0.2 1.25 1 1 1
v 0.275 0.2 -1.25 1 1 1
v 0.275 0.2 1.25 1 1 1
v -0.275 0.2 -1.25 1 1 1
v -0.275 0.2 1.25 1 1 1
v -0.3217116 0.134 -1.243439 1 1 1
v -0.3784299 0.134 1.255917 1 1 1
v -0.8715701 0.134 -1.255917 1 1 1
v -0.9282884 0.134 1.243439 1 1 1
v 0.9304581 9.023893E-17 1.242908 1 1 1
v 0.8693777 9.023893E-17 -1.256346 1 1 1
v 0.3806223 9.023893E-17 1.256346 1 1 1
v 0.3195419 9.023893E-17 -1.242908 1 1 1
v -0.975 0 1.25 1 1 1
v -0.975 0 -1.25 1 1 1
v -1.25 0 1.25 1 1 1
v -1.25 0 -1.25 1 1 1
v 1.25 0 1.25 1 1 1
v 1.25 0 -1.25 1 1 1
v 0.975 0 1.25 1 1 1
v 0.975 0 -1.25 1 1 1
v 0.275 0 1.25 1 1 1
v 0.275 0 -1.25 1 1 1
v -0.275 0 1.25 1 1 1
v -0.275 0 -1.25 1 1 1
v -0.3217116 0 -1.243439 1 1 1
v -0.8715701 0 -1.255917 1 1 1
v -0.3784299 0 1.255917 1 1 1
v -0.9282884 0 1.243439 1 1 1

vn 0.672472 0.73994 -0.01643486
vn -0.672472 0.73994 0.01643486
vn 0.8762159 0.4819188 0
vn -0.8762159 0.4819188 0
vn 0.6726728 0.7399401 0
vn -0.6726728 0.7399401 0
vn 0.6724997 0.73994 0.01526115
vn -0.6724997 0.73994 -0.01526115
vn 0 -1 0
vn 0.9997015 0 -0.02443218
vn -0.02443218 0 -0.9997015
vn -0.9997015 0 0.02443218
vn 0.02443218 0 0.9997015
vn 1 0 0
vn 0 0 -1
vn -1 0 0
vn 0 0 1
vn 0.9997426 0 0.02268733
vn 0.02268734 0 -0.9997426
vn -0.9997426 0 -0.02268733
vn -0.02268734 0 0.9997426

vt 0.84375 0.125
vt 0.96875 0.025
vt 0.96875 0.125

usemtl colormap

f 3/1/2 2/1/1 1/1/1
f 2/1/1 3/1/2 4/1/2
f 7/1/4 6/1/3 5/1/3
f 6/1/3 7/1/4 8/1/4
f 11/1/4 10/1/3 9/1/3
f 10/1/3 11/1/4 12/1/4
f 15/1/6 14/1/5 13/1/5
f 14/1/5 15/1/6 16/1/6
f 19/1/8 18/1/7 17/1/7
f 18/1/7 19/1/8 20/1/8
f 23/2/9 22/2/9 21/2/9
f 22/2/9 23/2/9 24/2/9
f 2/3/1 22/2/10 1/3/1
f 22/2/10 2/3/1 21/2/10
f 3/3/11 22/2/11 24/2/11
f 22/2/11 3/3/11 1/3/11
f 23/2/12 3/3/2 24/2/12
f 3/3/2 23/2/12 4/3/2
f 2/3/13 23/2/13 21/2/13
f 23/2/13 2/3/13 4/3/13
f 27/2/9 26/2/9 25/2/9
f 26/2/9 27/2/9 28/2/9
f 6/3/3 26/2/14 5/3/3
f 26/2/14 6/3/3 25/2/14
f 7/3/15 26/2/15 28/2/15
f 26/2/15 7/3/15 5/3/15
f 27/2/16 7/3/4 28/2/16
f 7/3/4 27/2/16 8/3/4
f 6/3/17 27/2/17 25/2/17
f 27/2/17 6/3/17 8/3/17
f 31/2/9 30/2/9 29/2/9
f 30/2/9 31/2/9 32/2/9
f 10/3/3 30/2/14 9/3/3
f 30/2/14 10/3/3 29/2/14
f 11/3/15 30/2/15 32/2/15
f 30/2/15 11/3/15 9/3/15
f 31/2/16 11/3/4 32/2/16
f 11/3/4 31/2/16 12/3/4
f 10/3/17 31/2/17 29/2/17
f 31/2/17 10/3/17 12/3/17
f 35/2/9 34/2/9 33/2/9
f 34/2/9 35/2/9 36/2/9
f 14/3/5 34/2/14 13/3/5
f 34/2/14 14/3/5 33/2/14
f 15/3/15 34/2/15 36/2/15
f 34/2/15 15/3/15 13/3/15
f 35/2/16 15/3/6 36/2/16
f 15/3/6 35/2/16 16/3/6
f 14/3/17 35/2/17 33/2/17
f 35/2/17 14/3/17 16/3/17
f 39/2/9 38/2/9 37/2/9
f 38/2/9 39/2/9 40/2/9
f 18/3/7 37/2/18 17/3/7
f 37/2/18 18/3/7 39/2/18
f 19/3/19 37/2/19 38/2/19
f 37/2/19 19/3/19 17/3/19
f 40/2/20 19/3/8 38/2/20
f 19/3/8 40/2/20 20/3/8
f 18/3/21 40/2/21 39/2/21
f 40/2/21 18/3/21 20/3/21

g platform




usemtl colormap

f 3/1/2 2/1/1 1/1/1
f 2/1/1 3/1/2 4/1/2
f 7/1/4 6/1/3 5/1/3
f 6/1/3 7/1/4 8/1/4
f 11/1/4 10/1/3 9/1/3
f 10/1/3 11/1/4 12/1/4
f 15/1/6 14/1/5 13/1/5
f 14/1/5 15/1/6 16/1/6
f 19/1/8 18/1/7 17/1/7
f 18/1/7 19/1/8 20/1/8
f 23/2/9 22/2/9 21/2/9
f 22/2/9 23/2/9 24/2/9
f 2/3/1 22/2/10 1/3/1
f 22/2/10 2/3/1 21/2/10
f 3/3/11 22/2/11 24/2/11
f 22/2/11 3/3/11 1/3/11
f 23/2/12 3/3/2 24/2/12
f 3/3/2 23/2/12 4/3/2
f 2/3/13 23/2/13 21/2/13
f 23/2/13 2/3/13 4/3/13
f 27/2/9 26/2/9 25/2/9
f 26/2/9 27/2/9 28/2/9
f 6/3/3 26/2/14 5/3/3
f 26/2/14 6/3/3 25/2/14
f 7/3/15 26/2/15 28/2/15
f 26/2/15 7/3/15 5/3/15
f 27/2/16 7/3/4 28/2/16
f 7/3/4 27/2/16 8/3/4
f 6/3/17 27/2/17 25/2/17
f 27/2/17 6/3/17 8/3/17
f 31/2/9 30/2/9 29/2/9
f 30/2/9 31/2/9 32/2/9
f 10/3/3 30/2/14 9/3/3
f 30/2/14 10/3/3 29/2/14
f 11/3/15 30/2/15 32/2/15
f 30/2/15 11/3/15 9/3/15
f 31/2/16 11/3/4 32/2/16
f 11/3/4 31/2/16 12/3/4
f 10/3/17 31/2/17 29/2/17
f 31/2/17 10/3/17 12/3/17
f 35/2/9 34/2/9 33/2/9
f 34/2/9 35/2/9 36/2/9
f 14/3/5 34/2/14 13/3/5
f 34/2/14 14/3/5 33/2/14
f 15/3/15 34/2/15 36/2/15
f 34/2/15 15/3/15 13/3/15
f 35/2/16 15/3/6 36/2/16
f 15/3/6 35/2/16 16/3/6
f 14/3/17 35/2/17 33/2/17
f 35/2/17 14/3/17 16/3/17
f 39/2/9 38/2/9 37/2/9
f 38/2/9 39/2/9 40/2/9
f 18/3/7 37/2/18 17/3/7
f 37/2/18 18/3/7 39/2/18
f 19/3/19 37/2/19 38/2/19
f 37/2/19 19/3/19 17/3/19
f 40/2/20 19/3/8 38/2/20
f 19/3/8 40/2/20 20/3/8
f 18/3/21 40/2/21 39/2/21
f 40/2/21 18/3/21 20/3/21

