# Created by Kenney (www.kenney.nl)

mtllib platform-planks.mtl

g platform-planks

v 0.256349 0.2 -1.345268 1 1 1
v 0.256349 0.2 1.154732 1 1 1
v -0.293651 0.2 -1.345268 1 1 1
v -0.293651 0.2 1.154732 1 1 1
v -0.3403625 0.134 -1.338708 1 1 1
v -0.3970809 0.134 1.160649 1 1 1
v -0.890221 0.134 -1.351186 1 1 1
v -0.9469393 0.134 1.148171 1 1 1
v 0.3635843 0.428 -1.03701 1 1 1
v -0.3756859 0.428 1.351186 1 1 1
v -0.1618187 0.428 -1.199649 1 1 1
v -0.901089 0.428 1.188546 1 1 1
v 0.9469393 0.2 -1.137786 1 1 1
v 0.5817318 0.2 1.335395 1 1 1
v 0.6748894 0.2 -1.177959 1 1 1
v 0.3096819 0.2 1.295222 1 1 1
v 0.256349 0 1.154732 1 1 1
v 0.256349 0 -1.345268 1 1 1
v -0.293651 0 1.154732 1 1 1
v -0.293651 0 -1.345268 1 1 1
v -0.3403625 0 -1.338708 1 1 1
v -0.890221 0 -1.351186 1 1 1
v -0.3970809 0 1.160649 1 1 1
v -0.9469393 0 1.148171 1 1 1
v -0.3756859 0.2 1.351186 1 1 1
v 0.3635843 0.2 -1.03701 1 1 1
v -0.901089 0.2 1.188546 1 1 1
v -0.1618187 0.2 -1.199649 1 1 1
v 0.5817318 0 1.335395 1 1 1
v 0.9469393 0 -1.137786 1 1 1
v 0.3096819 0 1.295222 1 1 1
v 0.6748894 0 -1.177959 1 1 1

vn 0.6726728 0.7399401 0
vn -0.6726728 0.7399401 0
vn 0.6724997 0.73994 0.01526115
vn -0.6724997 0.73994 -0.01526115
vn 0.6425898 0.73994 0.1989148
vn -0.6425898 0.73994 -0.1989148
vn 0.8668162 0.4819188 0.1280003
vn -0.8668162 0.4819188 -0.1280003
vn 0 -1 0
vn 1 0 0
vn 0 0 -1
vn -1 0 0
vn 0 0 1
vn 0.9997426 0 0.02268733
vn 0.02268734 0 -0.9997426
vn -0.9997426 0 -0.02268733
vn -0.02268734 0 0.9997426
vn 0.9552784 0 0.2957081
vn 0.2957081 0 -0.9552784
vn -0.9552784 0 -0.2957081
vn -0.2957081 0 0.9552784
vn 0.9892723 0 0.146083
vn 0.146083 0 -0.9892724
vn -0.9892723 0 -0.146083
vn -0.146083 0 0.9892724

vt 0.84375 0.125
vt 0.96875 0.025
vt 0.96875 0.125

usemtl colormap

f 3/1/2 2/1/1 1/1/1
f 2/1/1 3/1/2 4/1/2
f 7/1/4 6/1/3 5/1/3
f 6/1/3 7/1/4 8/1/4
f 11/1/6 10/1/5 9/1/5
f 10/1/5 11/1/6 12/1/6
f 15/1/8 14/1/7 13/1/7
f 14/1/7 15/1/8 16/1/8
f 19/2/9 18/2/9 17/2/9
f 18/2/9 19/2/9 20/2/9
f 2/3/1 18/2/10 1/3/1
f 18/2/10 2/3/1 17/2/10
f 3/3/11 18/2/11 20/2/11
f 18/2/11 3/3/11 1/3/11
f 19/2/12 3/3/2 20/2/12
f 3/3/2 19/2/12 4/3/2
f 2/3/13 19/2/13 17/2/13
f 19/2/13 2/3/13 4/3/13
f 23/2/9 22/2/9 21/2/9
f 22/2/9 23/2/9 24/2/9
f 6/3/3 21/2/14 5/3/3
f 21/2/14 6/3/3 23/2/14
f 7/3/15 21/2/15 22/2/15
f 21/2/15 7/3/15 5/3/15
f 24/2/16 7/3/4 22/2/16
f 7/3/4 24/2/16 8/3/4
f 6/3/17 24/2/17 23/2/17
f 24/2/17 6/3/17 8/3/17
f 27/2/9 26/2/9 25/2/9
f 26/2/9 27/2/9 28/2/9
f 10/3/5 26/2/18 9/3/5
f 26/2/18 10/3/5 25/2/18
f 11/3/19 26/2/19 28/2/19
f 26/2/19 11/3/19 9/3/19
f 27/2/20 11/3/6 28/2/20
f 11/3/6 27/2/20 12/3/6
f 10/3/21 27/2/21 25/2/21
f 27/2/21 10/3/21 12/3/21
f 31/2/9 30/2/9 29/2/9
f 30/2/9 31/2/9 32/2/9
f 14/3/7 30/2/22 13/3/7
f 30/2/22 14/3/7 29/2/22
f 15/3/23 30/2/23 32/2/23
f 30/2/23 15/3/23 13/3/23
f 31/2/24 15/3/8 32/2/24
f 15/3/8 31/2/24 16/3/8
f 14/3/25 31/2/25 29/2/25
f 31/2/25 14/3/25 16/3/25

g platform-planks




usemtl colormap

f 3/1/2 2/1/1 1/1/1
f 2/1/1 3/1/2 4/1/2
f 7/1/4 6/1/3 5/1/3
f 6/1/3 7/1/4 8/1/4
f 11/1/6 10/1/5 9/1/5
f 10/1/5 11/1/6 12/1/6
f 15/1/8 14/1/7 13/1/7
f 14/1/7 15/1/8 16/1/8
f 19/2/9 18/2/9 17/2/9
f 18/2/9 19/2/9 20/2/9
f 2/3/1 18/2/10 1/3/1
f 18/2/10 2/3/1 17/2/10
f 3/3/11 18/2/11 20/2/11
f 18/2/11 3/3/11 1/3/11
f 19/2/12 3/3/2 20/2/12
f 3/3/2 19/2/12 4/3/2
f 2/3/13 19/2/13 17/2/13
f 19/2/13 2/3/13 4/3/13
f 23/2/9 22/2/9 21/2/9
f 22/2/9 23/2/9 24/2/9
f 6/3/3 21/2/14 5/3/3
f 21/2/14 6/3/3 23/2/14
f 7/3/15 21/2/15 22/2/15
f 21/2/15 7/3/15 5/3/15
f 24/2/16 7/3/4 22/2/16
f 7/3/4 24/2/16 8/3/4
f 6/3/17 24/2/17 23/2/17
f 24/2/17 6/3/17 8/3/17
f 27/2/9 26/2/9 25/2/9
f 26/2/9 27/2/9 28/2/9
f 10/3/5 26/2/18 9/3/5
f 26/2/18 10/3/5 25/2/18
f 11/3/19 26/2/19 28/2/19
f 26/2/19 11/3/19 9/3/19
f 27/2/20 11/3/6 28/2/20
f 11/3/6 27/2/20 12/3/6
f 10/3/21 27/2/21 25/2/21
f 27/2/21 10/3/21 12/3/21
f 31/2/9 30/2/9 29/2/9
f 30/2/9 31/2/9 32/2/9
f 14/3/7 30/2/22 13/3/7
f 30/2/22 14/3/7 29/2/22
f 15/3/23 30/2/23 32/2/23
f 30/2/23 15/3/23 13/3/23
f 31/2/24 15/3/8 32/2/24
f 15/3/8 31/2/24 16/3/8
f 14/3/25 31/2/25 29/2/25
f 31/2/25 14/3/25 16/3/25

