# Created by Kenney (www.kenney.nl)

mtllib rocks-c.mtl

g rocks-c

v -0.071713 2.3 -0.5574317 1 1 1
v -0.06369126 1.2 -0.5386751 1 1 1
v 0.623695 2.3 -0.473958 1 1 1
v 0.6114622 1.2 -0.4576327 1 1 1
v 0.8788542 1.2 0.1675885 1 1 1
v 0.4710926 1.2 0.7117673 1 1 1
v 0.8991086 2.3 0.1700198 1 1 1
v 0.4791144 2.3 0.7305239 1 1 1
v -0.3863541 4.060752E-16 0.8740048 1 1 1
v -0.2040608 1.2 0.6307249 1 1 1
v 0.5906326 4.060752E-16 0.9912779 1 1 1
v -0.4714527 1.2 0.005503744 1 1 1
v -0.2162936 2.3 0.6470503 1 1 1
v -0.4917073 2.3 0.003072478 1 1 1
v -0.773286 4.060752E-16 -0.03072696 1 1 1
v -0.1832312 4.060752E-16 -0.8181857 1 1 1
v 0.7937555 4.060752E-16 -0.7009126 1 1 1
v 1.180687 4.060752E-16 0.2038192 1 1 1
v 0.1382032 1.679 -0.9861838 1 1 1
v 0.1578964 0.876 -0.9808606 1 1 1
v 0.6345481 1.679 -1.480352 1 1 1
v 0.6397846 0.876 -1.460635 1 1 1
v 1.296226 0.876 -1.283195 1 1 1
v 1.470779 0.876 -0.6259805 1 1 1
v 1.310682 1.679 -1.297588 1 1 1
v 1.490472 1.679 -0.6206573 1 1 1
v 1.066926 4.060752E-16 0.1476079 1 1 1
v 0.9888906 0.876 -0.1462058 1 1 1
v 1.764247 4.060752E-16 -0.5466543 1 1 1
v 0.3324494 0.876 -0.3236458 1 1 1
v 0.9941272 1.679 -0.1264894 1 1 1
v 0.3179928 1.679 -0.3092526 1 1 1
v 0.117017 4.060752E-16 -0.1091583 1 1 1
v -0.1355714 4.060752E-16 -1.060187 1 1 1
v 0.5617492 4.060752E-16 -1.754449 1 1 1
v 1.511658 4.060752E-16 -1.497683 1 1 1
v -0.553559 0.99061 -0.1974764 1 1 1
v -0.5546947 0.51684 -0.1734313 1 1 1
v 0.1418932 0.99061 0.2490684 1 1 1
v 0.1205016 0.51684 0.2601074 1 1 1
v 0.08264434 0.51684 1.061614 1 1 1
v -0.6304093 0.51684 1.429582 1 1 1
v 0.1029002 0.99061 1.07462 1 1 1
v -0.631545 0.99061 1.453627 1 1 1
v -1.624382 4.060752E-16 1.160546 1 1 1
v -1.305606 0.51684 0.9960431 1 1 1
v -0.6473337 4.060752E-16 1.787902 1 1 1
v -1.267748 0.51684 0.1945366 1 1 1
v -1.326997 0.99061 1.007082 1 1 1
v -1.288004 0.99061 0.1815305 1 1 1
v -1.569601 4.060752E-16 0.0007193685 1 1 1
v -0.5377703 4.060752E-16 -0.5317518 1 1 1
v 0.4392785 4.060752E-16 0.09560406 1 1 1
v 0.3844968 4.060752E-16 1.255431 1 1 1
v 0.8083526 1.3432 0.6699194 1 1 1
v 0.8126808 0.7008 0.6541839 1 1 1
v 0.4147794 1.3432 0.2710977 1 1 1
v 0.4305709 0.7008 0.2669782 1 1 1
v 0.5748459 0.7008 -0.2575414 1 1 1
v 1.101231 0.7008 -0.3948555 1 1 1
v 0.5633825 1.3432 -0.2691576 1 1 1
v 1.105559 1.3432 -0.4105911 1 1 1
v 1.718666 4.060752E-16 -0.06903738 1 1 1
v 1.483341 0.7008 -0.007649928 1 1 1
v 1.16573 4.060752E-16 -0.6293466 1 1 1
v 1.339066 0.7008 0.5168698 1 1 1
v 1.499132 1.3432 -0.01176934 1 1 1
v 1.350529 1.3432 0.5284859 1 1 1
v 1.509891 4.060752E-16 0.6899735 1 1 1
v 0.7481815 4.060752E-16 0.888675 1 1 1
v 0.1952459 4.060752E-16 0.3283657 1 1 1
v 0.4040202 4.060752E-16 -0.4306451 1 1 1
v -1.140679 1.64575 -0.7682546 1 1 1
v -1.122604 0.8586525 -0.7603029 1 1 1
v -0.5939501 1.64575 -1.169196 1 1 1
v -0.5917988 0.8586525 -1.149566 1 1 1
v 0.0107156 0.8586525 -0.884507 1 1 1
v 0.08242488 0.8586525 -0.2301846 1 1 1
v 0.02663976 1.64575 -0.8961849 1 1 1
v 0.1005003 1.64575 -0.2222328 1 1 1
v -0.4163221 0 0.4515992 1 1 1
v -0.4483803 0.8586525 0.1590786 1 1 1
v 0.3517843 0 -0.1116876 1 1 1
v -1.050895 0.8586525 -0.1059805 1 1 1
v -0.446229 1.64575 0.1787083 1 1 1
v -1.066819 1.64575 -0.09430262 1 1 1
v -1.288196 0 0.06804302 1 1 1
v -1.391963 0 -0.8787999 1 1 1
v -0.623857 0 -1.442087 1 1 1
v 0.2480168 0 -1.058531 1 1 1
v 0.566951 4.060752E-16 1.701025 1 1 1
v 0.7345803 4.060752E-16 1.452227 1 1 1
v 0.318153 4.060752E-16 1.533395 1 1 1
v 0.4857823 4.060752E-16 1.284597 1 1 1
v 0.6825268 0.2 1.462373 1 1 1
v 0.556805 0.2 1.648971 1 1 1
v 0.4959283 0.2 1.336651 1 1 1
v 0.3702064 0.2 1.523249 1 1 1
v 1.271709 4.060752E-16 1.325039 1 1 1
v 1.099487 4.060752E-16 0.9851849 1 1 1
v 0.9318551 4.060752E-16 1.497261 1 1 1
v 0.7596333 4.060752E-16 1.157407 1 1 1
v 1.078533 0.254 1.049194 1 1 1
v 1.2077 0.254 1.304085 1 1 1
v 0.8236427 0.254 1.178361 1 1 1
v 0.9528091 0.254 1.433251 1 1 1
v -0.9176203 0.9906099 0.727151 1 1 1
v -0.7796572 0.9906099 0.4607562 1 1 1
v -1.184015 0.9906099 0.589188 1 1 1
v -1.046052 0.9906099 0.3227932 1 1 1
v -0.830202 1.19061 0.4768102 1 1 1
v -0.9336743 1.19061 0.6766063 1 1 1
v -1.029998 1.19061 0.3733379 1 1 1
v -1.13347 1.19061 0.573134 1 1 1
v 1.718374 4.060752E-16 -1.386674 1 1 1
v 1.713072 4.060752E-16 -1.086721 1 1 1
v 2.018327 4.060752E-16 -1.381372 1 1 1
v 2.013026 4.060752E-16 -1.081419 1 1 1
v 1.751229 0.2 -1.123552 1 1 1
v 1.755205 0.2 -1.348517 1 1 1
v 1.976194 0.2 -1.119576 1 1 1
v 1.98017 0.2 -1.344541 1 1 1
v -0.3154371 4.060752E-16 -1.868025 1 1 1
v -0.3021644 4.060752E-16 -1.568319 1 1 1
v -0.01573087 4.060752E-16 -1.881298 1 1 1
v -0.002458081 4.060752E-16 -1.581592 1 1 1
v -0.2663602 0.2 -1.607441 1 1 1
v -0.2763148 0.2 -1.832221 1 1 1
v -0.04158046 0.2 -1.617396 1 1 1
v -0.05153506 0.2 -1.842176 1 1 1
v -0.4863352 1.645751 -0.4538029 1 1 1
v -0.1928 1.645751 -0.5157475 1 1 1
v -0.5482798 1.645751 -0.747338 1 1 1
v -0.2547447 1.645751 -0.8092827 1 1 1
v -0.237235 1.845751 -0.5446963 1 1 1
v -0.4573864 1.845751 -0.4982378 1 1 1
v -0.2836935 1.845751 -0.7648476 1 1 1
v -0.5038449 1.845751 -0.7183892 1 1 1

vn -0.3931558 -0.01854227 -0.9192848
vn 0.5995461 -0.01854227 -0.8001254
vn 0.992702 -0.01854226 0.1191595
vn 0.3931558 -0.01854227 0.9192848
vn -0.5812864 0.2455756 0.7757568
vn 0.3811819 0.2455756 0.8912871
vn -0.5995461 -0.01854227 0.8001254
vn -0.992702 -0.01854226 -0.1191595
vn -0.9624684 0.2455757 -0.1155304
vn 0 -1 0
vn 0 1 0
vn 0.9624684 0.2455757 0.1155304
vn -0.3811819 0.2455756 -0.8912871
vn 0.5812864 0.2455756 -0.7757568
vn -0.9650433 -0.02539654 -0.2608571
vn -0.2566128 -0.02539654 -0.9661806
vn 0.7084305 -0.02539654 -0.7053235
vn 0.9650433 -0.02539654 0.2608571
vn 0.2425079 0.3278513 0.9130737
vn 0.9119989 0.3278513 0.2465189
vn 0.2566128 -0.02539654 0.9661806
vn -0.7084305 -0.02539654 0.7053235
vn -0.6694911 0.3278514 0.6665548
vn 0.6694911 0.3278514 -0.6665548
vn -0.9119989 0.3278513 -0.2465189
vn -0.2425079 0.3278513 -0.9130737
vn 0.04711933 -0.050744 -0.9975995
vn 0.8875062 -0.050744 -0.4579933
vn 0.8403869 -0.050744 0.5396063
vn -0.04711933 -0.050744 0.9975995
vn -0.7300414 0.5701848 0.3767343
vn -0.03875927 0.5701849 0.8206016
vn -0.8875062 -0.050744 0.4579933
vn -0.8403869 -0.050744 -0.5396063
vn -0.6912822 0.5701849 -0.4438673
vn 0.6912822 0.5701849 0.4438673
vn 0.03875927 0.5701849 -0.8206016
vn 0.7300414 0.5701848 -0.3767343
vn -0.2651256 -0.02539654 0.9638794
vn -0.9673069 -0.02539654 0.2523341
vn -0.7021812 -0.02539654 -0.7115452
vn 0.2651256 -0.02539654 -0.9638794
vn 0.914138 0.3278513 -0.2384644
vn 0.2505528 0.3278513 -0.9108989
vn 0.9673069 -0.02539654 -0.2523341
vn 0.7021812 -0.02539654 0.7115452
vn 0.6635852 0.3278514 0.6724345
vn -0.6635852 0.3278514 -0.6724345
vn -0.2505528 0.3278513 0.9108989
vn -0.914138 0.3278513 0.2384644
vn -0.9150535 -0.02508072 -0.4025519
vn -0.1089066 -0.02508072 -0.9937356
vn 0.8061469 -0.02508072 -0.5911837
vn 0.9150535 -0.02508072 0.4025519
vn 0.1030568 0.324203 0.9403572
vn 0.8659016 0.324203 0.3809289
vn 0.1089066 -0.02508072 0.9937356
vn -0.8061469 -0.02508072 0.5911837
vn -0.7628449 0.324203 0.5594284
vn 0.7628449 0.324203 -0.5594284
vn -0.8659016 0.324203 -0.3809289
vn -0.1030568 0.324203 -0.9403572
vn 0.9487408 0.2563073 -0.1849258
vn 0.1849258 0.2563073 0.9487408
vn -0.1849258 0.2563073 -0.9487408
vn -0.9487408 0.2563073 0.1849258
vn 0 -0.9999999 0
vn 0 0.9999999 0
vn 0.3007196 0.2563073 -0.9186263
vn 0.9186263 0.2563073 0.3007196
vn -0.9186263 0.2563073 -0.3007196
vn -0.3007196 0.2563073 0.9186263
vn 0.9212433 0.2563073 -0.2926045
vn 0.2926045 0.2563073 0.9212433
vn -0.2926045 0.2563073 -0.9212433
vn -0.9212433 0.2563073 0.2926045
vn -0.6954578 0.2563073 0.671301
vn -0.671301 0.2563073 -0.6954578
vn 0.671301 0.2563073 0.6954578
vn 0.6954578 0.2563073 -0.671301
vn -0.6525777 0.2563073 0.7130563
vn -0.7130563 0.2563073 -0.6525777
vn 0.7130563 0.2563073 0.6525777
vn 0.6525777 0.2563073 -0.7130563
vn 0.809885 0.2563073 0.5276297
vn -0.5276297 0.2563073 0.809885
vn 0.5276297 0.2563073 -0.809885
vn -0.809885 0.2563073 -0.5276297

vt 0.34375 0.0888223
vt 0.34375 0.08481679
vt 0.34375 0.08044714
vt 0.34375 0.1290218
vt 0.34375 0.1416797
vt 0.34375 0.1554883
vt 0.34375 0.1097195
vt 0.34375 0.1331574
vt 0.34375 0.1587261
vt 0.34375 0.1289534
vt 0.34375 0.1232626
vt 0.34375 0.1170544
vt 0.34375 0.1959979
vt 0.34375 0.1387412
vt 0.34375 0.07627925
vt 0.34375 0.075
vt 0.34375 0.175

usemtl colormap

f 3/1/2 2/2/1 1/1/1
f 2/2/1 3/1/2 4/2/2
f 7/1/3 6/2/4 5/2/3
f 6/2/4 7/1/3 8/1/4
f 11/3/6 10/2/5 9/3/5
f 10/2/5 11/3/6 6/2/6
f 3/1/2 5/2/3 4/2/2
f 5/2/3 3/1/2 7/1/3
f 13/1/7 12/2/8 10/2/7
f 12/2/8 13/1/7 14/1/8
f 10/2/5 15/3/9 9/3/5
f 15/3/9 10/2/5 12/2/9
f 17/3/10 15/3/10 16/3/10
f 15/3/10 17/3/10 18/3/10
f 15/3/10 18/3/10 11/3/10
f 15/3/10 11/3/10 9/3/10
f 14/1/11 3/1/11 1/1/11
f 3/1/11 14/1/11 7/1/11
f 7/1/11 14/1/11 13/1/11
f 7/1/11 13/1/11 8/1/11
f 5/2/12 11/3/6 18/3/12
f 11/3/6 5/2/12 6/2/6
f 2/2/13 17/3/14 16/3/13
f 17/3/14 2/2/13 4/2/14
f 4/2/14 18/3/12 17/3/14
f 18/3/12 4/2/14 5/2/12
f 12/2/9 16/3/13 15/3/9
f 16/3/13 12/2/9 2/2/13
f 10/2/7 8/1/4 13/1/7
f 8/1/4 10/2/7 6/2/4
f 14/1/8 2/2/1 12/2/8
f 2/2/1 14/1/8 1/1/1
f 21/4/16 20/5/15 19/4/15
f 20/5/15 21/4/16 22/5/16
f 25/4/17 24/5/18 23/5/17
f 24/5/18 25/4/17 26/4/18
f 29/6/20 28/5/19 27/6/19
f 28/5/19 29/6/20 24/5/20
f 21/4/16 23/5/17 22/5/16
f 23/5/17 21/4/16 25/4/17
f 31/4/21 30/5/22 28/5/21
f 30/5/22 31/4/21 32/4/22
f 28/5/19 33/6/23 27/6/19
f 33/6/23 28/5/19 30/5/23
f 35/6/10 33/6/10 34/6/10
f 33/6/10 35/6/10 36/6/10
f 33/6/10 36/6/10 29/6/10
f 33/6/10 29/6/10 27/6/10
f 32/4/11 21/4/11 19/4/11
f 21/4/11 32/4/11 25/4/11
f 25/4/11 32/4/11 31/4/11
f 25/4/11 31/4/11 26/4/11
f 23/5/24 29/6/20 36/6/24
f 29/6/20 23/5/24 24/5/20
f 20/5/25 35/6/26 34/6/25
f 35/6/26 20/5/25 22/5/26
f 22/5/26 36/6/24 35/6/26
f 36/6/24 22/5/26 23/5/24
f 30/5/23 34/6/25 33/6/23
f 34/6/25 30/5/23 20/5/25
f 28/5/21 26/4/18 31/4/21
f 26/4/18 28/5/21 24/5/18
f 32/4/22 20/5/15 30/5/22
f 20/5/15 32/4/22 19/4/15
f 39/7/28 38/8/27 37/7/27
f 38/8/27 39/7/28 40/8/28
f 43/7/29 42/8/30 41/8/29
f 42/8/30 43/7/29 44/7/30
f 47/9/32 46/8/31 45/9/31
f 46/8/31 47/9/32 42/8/32
f 39/7/28 41/8/29 40/8/28
f 41/8/29 39/7/28 43/7/29
f 49/7/33 48/8/34 46/8/33
f 48/8/34 49/7/33 50/7/34
f 46/8/31 51/9/35 45/9/31
f 51/9/35 46/8/31 48/8/35
f 53/9/10 51/9/10 52/9/10
f 51/9/10 53/9/10 54/9/10
f 51/9/10 54/9/10 47/9/10
f 51/9/10 47/9/10 45/9/10
f 50/7/11 39/7/11 37/7/11
f 39/7/11 50/7/11 43/7/11
f 43/7/11 50/7/11 49/7/11
f 43/7/11 49/7/11 44/7/11
f 41/8/36 47/9/32 54/9/36
f 47/9/32 41/8/36 42/8/32
f 38/8/37 53/9/38 52/9/37
f 53/9/38 38/8/37 40/8/38
f 40/8/38 54/9/36 53/9/38
f 54/9/36 40/8/38 41/8/36
f 48/8/35 52/9/37 51/9/35
f 52/9/37 48/8/35 38/8/37
f 46/8/33 44/7/30 49/7/33
f 44/7/30 46/8/33 42/8/30
f 50/7/34 38/8/27 48/8/34
f 38/8/27 50/7/34 37/7/27
f 57/10/40 56/11/39 55/10/39
f 56/11/39 57/10/40 58/11/40
f 61/10/41 60/11/42 59/11/41
f 60/11/42 61/10/41 62/10/42
f 65/12/44 64/11/43 63/12/43
f 64/11/43 65/12/44 60/11/44
f 57/10/40 59/11/41 58/11/40
f 59/11/41 57/10/40 61/10/41
f 67/10/45 66/11/46 64/11/45
f 66/11/46 67/10/45 68/10/46
f 64/11/43 69/12/47 63/12/43
f 69/12/47 64/11/43 66/11/47
f 71/12/10 69/12/10 70/12/10
f 69/12/10 71/12/10 72/12/10
f 69/12/10 72/12/10 65/12/10
f 69/12/10 65/12/10 63/12/10
f 68/10/11 57/10/11 55/10/11
f 57/10/11 68/10/11 61/10/11
f 61/10/11 68/10/11 67/10/11
f 61/10/11 67/10/11 62/10/11
f 59/11/48 65/12/44 72/12/48
f 65/12/44 59/11/48 60/11/44
f 56/11/49 71/12/50 70/12/49
f 71/12/50 56/11/49 58/11/50
f 58/11/50 72/12/48 71/12/50
f 72/12/48 58/11/50 59/11/48
f 66/11/47 70/12/49 69/12/47
f 70/12/49 66/11/47 56/11/49
f 64/11/45 62/10/42 67/10/45
f 62/10/42 64/11/45 60/11/42
f 68/10/46 56/11/39 66/11/46
f 56/11/39 68/10/46 55/10/39
f 75/13/52 74/14/51 73/13/51
f 74/14/51 75/13/52 76/14/52
f 79/13/53 78/14/54 77/14/53
f 78/14/54 79/13/53 80/13/54
f 83/15/56 82/14/55 81/15/55
f 82/14/55 83/15/56 78/14/56
f 75/13/52 77/14/53 76/14/52
f 77/14/53 75/13/52 79/13/53
f 85/13/57 84/14/58 82/14/57
f 84/14/58 85/13/57 86/13/58
f 82/14/55 87/15/59 81/15/55
f 87/15/59 82/14/55 84/14/59
f 89/15/10 87/15/10 88/15/10
f 87/15/10 89/15/10 90/15/10
f 87/15/10 90/15/10 83/15/10
f 87/15/10 83/15/10 81/15/10
f 86/13/11 75/13/11 73/13/11
f 75/13/11 86/13/11 79/13/11
f 79/13/11 86/13/11 85/13/11
f 79/13/11 85/13/11 80/13/11
f 77/14/60 83/15/56 90/15/60
f 83/15/56 77/14/60 78/14/56
f 74/14/61 89/15/62 88/15/61
f 89/15/62 74/14/61 76/14/62
f 76/14/62 90/15/60 89/15/62
f 90/15/60 76/14/62 77/14/60
f 84/14/59 88/15/61 87/15/59
f 88/15/61 84/14/59 74/14/61
f 82/14/57 80/13/54 85/13/57
f 80/13/54 82/14/57 78/14/54
f 86/13/58 74/14/51 84/14/58
f 74/14/51 86/13/58 73/13/51
f 93/16/10 92/16/10 91/16/10
f 92/16/10 93/16/10 94/16/10
f 97/17/11 96/17/11 95/17/11
f 96/17/11 97/17/11 98/17/11
f 95/17/63 91/16/64 92/16/63
f 91/16/64 95/17/63 96/17/64
f 97/17/65 92/16/63 94/16/65
f 92/16/63 97/17/65 95/17/63
f 96/17/64 93/16/66 91/16/64
f 93/16/66 96/17/64 98/17/66
f 93/16/66 97/17/65 94/16/65
f 97/17/65 93/16/66 98/17/66
f 101/16/67 100/16/67 99/16/67
f 100/16/67 101/16/67 102/16/67
f 105/17/68 104/17/68 103/17/68
f 104/17/68 105/17/68 106/17/68
f 103/17/69 99/16/70 100/16/69
f 99/16/70 103/17/69 104/17/70
f 105/17/71 100/16/69 102/16/71
f 100/16/69 105/17/71 103/17/69
f 104/17/70 101/16/72 99/16/70
f 101/16/72 104/17/70 106/17/72
f 101/16/72 105/17/71 102/16/71
f 105/17/71 101/16/72 106/17/72
f 109/16/10 108/16/10 107/16/10
f 108/16/10 109/16/10 110/16/10
f 113/17/11 112/17/11 111/17/11
f 112/17/11 113/17/11 114/17/11
f 111/17/73 107/16/74 108/16/73
f 107/16/74 111/17/73 112/17/74
f 113/17/75 108/16/73 110/16/75
f 108/16/73 113/17/75 111/17/73
f 112/17/74 109/16/76 107/16/74
f 109/16/76 112/17/74 114/17/76
f 109/16/76 113/17/75 110/16/75
f 113/17/75 109/16/76 114/17/76
f 117/16/10 116/16/10 115/16/10
f 116/16/10 117/16/10 118/16/10
f 121/17/11 120/17/11 119/17/11
f 120/17/11 121/17/11 122/17/11
f 119/17/77 115/16/78 116/16/77
f 115/16/78 119/17/77 120/17/78
f 121/17/79 116/16/77 118/16/79
f 116/16/77 121/17/79 119/17/77
f 120/17/78 117/16/80 115/16/78
f 117/16/80 120/17/78 122/17/80
f 117/16/80 121/17/79 118/16/79
f 121/17/79 117/16/80 122/17/80
f 125/16/10 124/16/10 123/16/10
f 124/16/10 125/16/10 126/16/10
f 129/17/11 128/17/11 127/17/11
f 128/17/11 129/17/11 130/17/11
f 127/17/81 123/16/82 124/16/81
f 123/16/82 127/17/81 128/17/82
f 129/17/83 124/16/81 126/16/83
f 124/16/81 129/17/83 127/17/81
f 128/17/82 125/16/84 123/16/82
f 125/16/84 128/17/82 130/17/84
f 125/16/84 129/17/83 126/16/83
f 129/17/83 125/16/84 130/17/84
f 133/16/10 132/16/10 131/16/10
f 132/16/10 133/16/10 134/16/10
f 137/17/11 136/17/11 135/17/11
f 136/17/11 137/17/11 138/17/11
f 135/17/85 131/16/86 132/16/85
f 131/16/86 135/17/85 136/17/86
f 137/17/87 132/16/85 134/16/87
f 132/16/85 137/17/87 135/17/85
f 136/17/86 133/16/88 131/16/86
f 133/16/88 136/17/86 138/17/88
f 133/16/88 137/17/87 134/16/87
f 137/17/87 133/16/88 138/17/88

g rocks-c




usemtl colormap

f 3/1/2 2/2/1 1/1/1
f 2/2/1 3/1/2 4/2/2
f 7/1/3 6/2/4 5/2/3
f 6/2/4 7/1/3 8/1/4
f 11/3/6 10/2/5 9/3/5
f 10/2/5 11/3/6 6/2/6
f 3/1/2 5/2/3 4/2/2
f 5/2/3 3/1/2 7/1/3
f 13/1/7 12/2/8 10/2/7
f 12/2/8 13/1/7 14/1/8
f 10/2/5 15/3/9 9/3/5
f 15/3/9 10/2/5 12/2/9
f 17/3/10 15/3/10 16/3/10
f 15/3/10 17/3/10 18/3/10
f 15/3/10 18/3/10 11/3/10
f 15/3/10 11/3/10 9/3/10
f 14/1/11 3/1/11 1/1/11
f 3/1/11 14/1/11 7/1/11
f 7/1/11 14/1/11 13/1/11
f 7/1/11 13/1/11 8/1/11
f 5/2/12 11/3/6 18/3/12
f 11/3/6 5/2/12 6/2/6
f 2/2/13 17/3/14 16/3/13
f 17/3/14 2/2/13 4/2/14
f 4/2/14 18/3/12 17/3/14
f 18/3/12 4/2/14 5/2/12
f 12/2/9 16/3/13 15/3/9
f 16/3/13 12/2/9 2/2/13
f 10/2/7 8/1/4 13/1/7
f 8/1/4 10/2/7 6/2/4
f 14/1/8 2/2/1 12/2/8
f 2/2/1 14/1/8 1/1/1
f 21/4/16 20/5/15 19/4/15
f 20/5/15 21/4/16 22/5/16
f 25/4/17 24/5/18 23/5/17
f 24/5/18 25/4/17 26/4/18
f 29/6/20 28/5/19 27/6/19
f 28/5/19 29/6/20 24/5/20
f 21/4/16 23/5/17 22/5/16
f 23/5/17 21/4/16 25/4/17
f 31/4/21 30/5/22 28/5/21
f 30/5/22 31/4/21 32/4/22
f 28/5/19 33/6/23 27/6/19
f 33/6/23 28/5/19 30/5/23
f 35/6/10 33/6/10 34/6/10
f 33/6/10 35/6/10 36/6/10
f 33/6/10 36/6/10 29/6/10
f 33/6/10 29/6/10 27/6/10
f 32/4/11 21/4/11 19/4/11
f 21/4/11 32/4/11 25/4/11
f 25/4/11 32/4/11 31/4/11
f 25/4/11 31/4/11 26/4/11
f 23/5/24 29/6/20 36/6/24
f 29/6/20 23/5/24 24/5/20
f 20/5/25 35/6/26 34/6/25
f 35/6/26 20/5/25 22/5/26
f 22/5/26 36/6/24 35/6/26
f 36/6/24 22/5/26 23/5/24
f 30/5/23 34/6/25 33/6/23
f 34/6/25 30/5/23 20/5/25
f 28/5/21 26/4/18 31/4/21
f 26/4/18 28/5/21 24/5/18
f 32/4/22 20/5/15 30/5/22
f 20/5/15 32/4/22 19/4/15
f 39/7/28 38/8/27 37/7/27
f 38/8/27 39/7/28 40/8/28
f 43/7/29 42/8/30 41/8/29
f 42/8/30 43/7/29 44/7/30
f 47/9/32 46/8/31 45/9/31
f 46/8/31 47/9/32 42/8/32
f 39/7/28 41/8/29 40/8/28
f 41/8/29 39/7/28 43/7/29
f 49/7/33 48/8/34 46/8/33
f 48/8/34 49/7/33 50/7/34
f 46/8/31 51/9/35 45/9/31
f 51/9/35 46/8/31 48/8/35
f 53/9/10 51/9/10 52/9/10
f 51/9/10 53/9/10 54/9/10
f 51/9/10 54/9/10 47/9/10
f 51/9/10 47/9/10 45/9/10
f 50/7/11 39/7/11 37/7/11
f 39/7/11 50/7/11 43/7/11
f 43/7/11 50/7/11 49/7/11
f 43/7/11 49/7/11 44/7/11
f 41/8/36 47/9/32 54/9/36
f 47/9/32 41/8/36 42/8/32
f 38/8/37 53/9/38 52/9/37
f 53/9/38 38/8/37 40/8/38
f 40/8/38 54/9/36 53/9/38
f 54/9/36 40/8/38 41/8/36
f 48/8/35 52/9/37 51/9/35
f 52/9/37 48/8/35 38/8/37
f 46/8/33 44/7/30 49/7/33
f 44/7/30 46/8/33 42/8/30
f 50/7/34 38/8/27 48/8/34
f 38/8/27 50/7/34 37/7/27
f 57/10/40 56/11/39 55/10/39
f 56/11/39 57/10/40 58/11/40
f 61/10/41 60/11/42 59/11/41
f 60/11/42 61/10/41 62/10/42
f 65/12/44 64/11/43 63/12/43
f 64/11/43 65/12/44 60/11/44
f 57/10/40 59/11/41 58/11/40
f 59/11/41 57/10/40 61/10/41
f 67/10/45 66/11/46 64/11/45
f 66/11/46 67/10/45 68/10/46
f 64/11/43 69/12/47 63/12/43
f 69/12/47 64/11/43 66/11/47
f 71/12/10 69/12/10 70/12/10
f 69/12/10 71/12/10 72/12/10
f 69/12/10 72/12/10 65/12/10
f 69/12/10 65/12/10 63/12/10
f 68/10/11 57/10/11 55/10/11
f 57/10/11 68/10/11 61/10/11
f 61/10/11 68/10/11 67/10/11
f 61/10/11 67/10/11 62/10/11
f 59/11/48 65/12/44 72/12/48
f 65/12/44 59/11/48 60/11/44
f 56/11/49 71/12/50 70/12/49
f 71/12/50 56/11/49 58/11/50
f 58/11/50 72/12/48 71/12/50
f 72/12/48 58/11/50 59/11/48
f 66/11/47 70/12/49 69/12/47
f 70/12/49 66/11/47 56/11/49
f 64/11/45 62/10/42 67/10/45
f 62/10/42 64/11/45 60/11/42
f 68/10/46 56/11/39 66/11/46
f 56/11/39 68/10/46 55/10/39
f 75/13/52 74/14/51 73/13/51
f 74/14/51 75/13/52 76/14/52
f 79/13/53 78/14/54 77/14/53
f 78/14/54 79/13/53 80/13/54
f 83/15/56 82/14/55 81/15/55
f 82/14/55 83/15/56 78/14/56
f 75/13/52 77/14/53 76/14/52
f 77/14/53 75/13/52 79/13/53
f 85/13/57 84/14/58 82/14/57
f 84/14/58 85/13/57 86/13/58
f 82/14/55 87/15/59 81/15/55
f 87/15/59 82/14/55 84/14/59
f 89/15/10 87/15/10 88/15/10
f 87/15/10 89/15/10 90/15/10
f 87/15/10 90/15/10 83/15/10
f 87/15/10 83/15/10 81/15/10
f 86/13/11 75/13/11 73/13/11
f 75/13/11 86/13/11 79/13/11
f 79/13/11 86/13/11 85/13/11
f 79/13/11 85/13/11 80/13/11
f 77/14/60 83/15/56 90/15/60
f 83/15/56 77/14/60 78/14/56
f 74/14/61 89/15/62 88/15/61
f 89/15/62 74/14/61 76/14/62
f 76/14/62 90/15/60 89/15/62
f 90/15/60 76/14/62 77/14/60
f 84/14/59 88/15/61 87/15/59
f 88/15/61 84/14/59 74/14/61
f 82/14/57 80/13/54 85/13/57
f 80/13/54 82/14/57 78/14/54
f 86/13/58 74/14/51 84/14/58
f 74/14/51 86/13/58 73/13/51
f 93/16/10 92/16/10 91/16/10
f 92/16/10 93/16/10 94/16/10
f 97/17/11 96/17/11 95/17/11
f 96/17/11 97/17/11 98/17/11
f 95/17/63 91/16/64 92/16/63
f 91/16/64 95/17/63 96/17/64
f 97/17/65 92/16/63 94/16/65
f 92/16/63 97/17/65 95/17/63
f 96/17/64 93/16/66 91/16/64
f 93/16/66 96/17/64 98/17/66
f 93/16/66 97/17/65 94/16/65
f 97/17/65 93/16/66 98/17/66
f 101/16/67 100/16/67 99/16/67
f 100/16/67 101/16/67 102/16/67
f 105/17/68 104/17/68 103/17/68
f 104/17/68 105/17/68 106/17/68
f 103/17/69 99/16/70 100/16/69
f 99/16/70 103/17/69 104/17/70
f 105/17/71 100/16/69 102/16/71
f 100/16/69 105/17/71 103/17/69
f 104/17/70 101/16/72 99/16/70
f 101/16/72 104/17/70 106/17/72
f 101/16/72 105/17/71 102/16/71
f 105/17/71 101/16/72 106/17/72
f 109/16/10 108/16/10 107/16/10
f 108/16/10 109/16/10 110/16/10
f 113/17/11 112/17/11 111/17/11
f 112/17/11 113/17/11 114/17/11
f 111/17/73 107/16/74 108/16/73
f 107/16/74 111/17/73 112/17/74
f 113/17/75 108/16/73 110/16/75
f 108/16/73 113/17/75 111/17/73
f 112/17/74 109/16/76 107/16/74
f 109/16/76 112/17/74 114/17/76
f 109/16/76 113/17/75 110/16/75
f 113/17/75 109/16/76 114/17/76
f 117/16/10 116/16/10 115/16/10
f 116/16/10 117/16/10 118/16/10
f 121/17/11 120/17/11 119/17/11
f 120/17/11 121/17/11 122/17/11
f 119/17/77 115/16/78 116/16/77
f 115/16/78 119/17/77 120/17/78
f 121/17/79 116/16/77 118/16/79
f 116/16/77 121/17/79 119/17/77
f 120/17/78 117/16/80 115/16/78
f 117/16/80 120/17/78 122/17/80
f 117/16/80 121/17/79 118/16/79
f 121/17/79 117/16/80 122/17/80
f 125/16/10 124/16/10 123/16/10
f 124/16/10 125/16/10 126/16/10
f 129/17/11 128/17/11 127/17/11
f 128/17/11 129/17/11 130/17/11
f 127/17/81 123/16/82 124/16/81
f 123/16/82 127/17/81 128/17/82
f 129/17/83 124/16/81 126/16/83
f 124/16/81 129/17/83 127/17/81
f 128/17/82 125/16/84 123/16/82
f 125/16/84 128/17/82 130/17/84
f 125/16/84 129/17/83 126/16/83
f 129/17/83 125/16/84 130/17/84
f 133/16/10 132/16/10 131/16/10
f 132/16/10 133/16/10 134/16/10
f 137/17/11 136/17/11 135/17/11
f 136/17/11 137/17/11 138/17/11
f 135/17/85 131/16/86 132/16/85
f 131/16/86 135/17/85 136/17/86
f 137/17/87 132/16/85 134/16/87
f 132/16/85 137/17/87 135/17/85
f 136/17/86 133/16/88 131/16/86
f 133/16/88 136/17/86 138/17/88
f 133/16/88 137/17/87 134/16/87
f 137/17/87 133/16/88 138/17/88

