# Created by Kenney (www.kenney.nl)

mtllib rocks-a.mtl

g rocks-a

v 0.07070178 2.898 0.4477056 1 1 1
v 0.0457924 1.512 0.4540473 1 1 1
v -0.1683481 2.898 1.297216 1 1 1
v -0.1862949 1.512 1.278815 1 1 1
v -1.016608 1.512 1.490205 1 1 1
v -1.614834 1.512 0.876828 1 1 1
v -1.023571 2.898 1.514948 1 1 1
v -1.639744 2.898 0.8831697 1 1 1
v -1.650189 1.849898E-15 -0.2221554 1 1 1
v -1.382747 1.512 0.05206031 1 1 1
v -1.986033 1.849898E-15 0.971332 1 1 1
v -0.5524337 1.512 -0.15933 1 1 1
v -1.400694 2.898 0.03365904 1 1 1
v -0.5454711 2.898 -0.184073 1 1 1
v -0.448677 1.849898E-15 -0.5280496 1 1 1
v 0.4169914 1.849898E-15 0.3595434 1 1 1
v 0.08114737 1.849898E-15 1.553031 1 1 1
v -1.120365 1.849898E-15 1.858925 1 1 1
v -0.4296637 2.26044 0.521255 1 1 1
v -0.4103105 1.17936 0.504339 1 1 1
v -0.6004047 2.26044 -0.3445746 1 1 1
v -0.5760785 1.17936 -0.3362722 1 1 1
v 0.0690282 1.17936 -0.9001372 1 1 1
v 0.879903 1.17936 -0.6233909 1 1 1
v 0.06405517 2.26044 -0.9253555 1 1 1
v 0.8992561 2.26044 -0.6403068 1 1 1
v 1.40818 1.443823E-15 0.3409424 1 1 1
v 1.045671 1.17936 0.2172205 1 1 1
v 1.168303 1.443823E-15 -0.8754717 1 1 1
v 0.4005642 1.17936 0.7810854 1 1 1
v 1.069997 2.26044 0.2255228 1 1 1
v 0.4055372 2.26044 0.8063037 1 1 1
v 0.4746722 1.443823E-15 1.156888 1 1 1
v -0.6987112 1.443823E-15 0.7564198 1 1 1
v -0.9385872 1.443823E-15 -0.4599941 1 1 1
v -0.005079836 1.443823E-15 -1.27594 1 1 1
v 1.434458 1.401473 0.7271446 1 1 1
v 1.428448 0.7312033 0.7021533 1 1 1
v 0.5881959 1.401473 0.4768372 1 1 1
v 0.6068339 0.7312033 0.4591363 1 1 1
v 0.4064859 0.7312033 -0.3739107 1 1 1
v 1.027752 0.7312033 -0.9639407 1 1 1
v 0.3818374 1.401473 -0.3812012 1 1 1
v 1.021741 1.401473 -0.988932 1 1 1
v 2.127108 0 -0.9847017 1 1 1
v 1.849365 0.7312033 -0.7209237 1 1 1
v 0.9381843 0 -1.336362 1 1 1
v 2.049714 0.7312033 0.1121233 1 1 1
v 1.868003 1.401473 -0.7386246 1 1 1
v 2.074362 1.401473 0.1194138 1 1 1
v 2.417023 0 0.2207662 1 1 1
v 1.518015 0 1.074574 1 1 1
v 0.3290915 0 0.7229143 1 1 1
v 0.03917611 0 -0.4825536 1 1 1
v 0.6183482 1.107163 0.9037849 1 1 1
v 0.5995061 0.5776505 0.9113553 1 1 1
v 0.5199833 1.107163 1.593989 1 1 1
v 0.5040061 0.5776505 1.581456 1 1 1
v -0.1240684 0.5776505 1.833801 1 1 1
v -0.656643 0.5776505 1.416045 1 1 1
v -0.1269334 1.107163 1.853904 1 1 1
v -0.6754851 1.107163 1.423616 1 1 1
v -0.7992351 1.282372E-30 0.5591829 1 1 1
v -0.561143 0.5776505 0.7459444 1 1 1
v -0.9374292 1.282372E-30 1.528859 1 1 1
v 0.06693151 0.5776505 0.4935993 1 1 1
v -0.5771202 1.107163 0.7334117 1 1 1
v 0.06979651 1.107163 0.4734963 1 1 1
v 0.1096256 1.282372E-30 0.1940247 1 1 1
v 0.8802923 1.282372E-30 0.7985421 1 1 1
v 0.7420982 1.282372E-30 1.768218 1 1 1
v -0.1667625 1.282372E-30 2.133376 1 1 1
v -1.238104 1.107163 0.1576695 1 1 1
v -1.255126 0.5776505 0.1687418 1 1 1
v -1.201095 1.107163 0.8538647 1 1 1
v -1.219195 0.5776505 0.8446594 1 1 1
v -1.786592 0.5776505 1.213735 1 1 1
v -2.389919 0.5776505 0.9068934 1 1 1
v -1.785514 1.107163 1.234013 1 1 1
v -2.406941 1.107163 0.9179657 1 1 1
v -2.695572 1.282372E-30 0.09379935 1 1 1
v -2.42585 0.5776505 0.2309757 1 1 1
v -2.643579 1.282372E-30 1.071892 1 1 1
v -1.858453 0.5776505 -0.1381001 1 1 1
v -2.443949 1.107163 0.2217705 1 1 1
v -1.859531 1.107163 -0.1583776 1 1 1
v -1.874516 1.282372E-30 -0.4402751 1 1 1
v -1.001466 1.282372E-30 0.003743172 1 1 1
v -0.9494724 1.282372E-30 0.9818358 1 1 1
v -1.770528 1.282372E-30 1.51591 1 1 1
v 0.3225385 1.107163 -1.059805 1 1 1
v 0.30237 0.5776505 -1.057443 1 1 1
v 0.04652736 1.107163 -0.4195896 1 1 1
v 0.03439814 0.5776505 -0.4358752 1 1 1
v -0.6378815 0.5776505 -0.3571617 1 1 1
v -1.042189 0.5776505 -0.9000162 1 1 1
v -0.6459206 1.107163 -0.3385147 1 1 1
v -1.062358 1.107163 -0.8976548 1 1 1
v -0.9549665 1.282372E-30 -1.764272 1 1 1
v -0.7742172 0.5776505 -1.521584 1 1 1
v -1.342738 1.282372E-30 -0.8648266 1 1 1
v -0.1019376 0.5776505 -1.600298 1 1 1
v -0.7863464 1.107163 -1.53787 1 1 1
v -0.09389848 1.107163 -1.618945 1 1 1
v 0.01786157 1.282372E-30 -1.878175 1 1 1
v 0.6029186 1.282372E-30 -1.092633 1 1 1
v 0.2151475 1.282372E-30 -0.1931873 1 1 1
v -0.7576807 1.282372E-30 -0.07928425 1 1 1
v 1.600013 1.401473 -0.4207084 1 1 1
v 1.288828 1.401473 -0.6405368 1 1 1
v 1.380185 1.401473 -0.1095228 1 1 1
v 1.069 1.401473 -0.3293512 1 1 1
v 1.300248 1.655473 -0.57416 1 1 1
v 1.533637 1.655473 -0.4092887 1 1 1
v 1.135376 1.655473 -0.3407708 1 1 1
v 1.368765 1.655473 -0.1758995 1 1 1
v 1.067422 1.443823E-15 1.609593 1 1 1
v 1.432776 1.443823E-15 1.717657 1 1 1
v 1.175487 1.443823E-15 1.244239 1 1 1
v 1.54084 1.443823E-15 1.352304 1 1 1
v 1.400615 0.254 1.65848 1 1 1
v 1.1266 0.254 1.577431 1 1 1
v 1.481663 0.254 1.384465 1 1 1
v 1.207648 0.254 1.303416 1 1 1
v -1.668419 1.443823E-15 -1.087025 1 1 1
v -2.044858 1.443823E-15 -1.028244 1 1 1
v -1.609638 1.443823E-15 -0.710587 1 1 1
v -1.986077 1.443823E-15 -0.6518058 1 1 1
v -1.990455 0.254 -0.988537 1 1 1
v -1.708127 0.254 -1.032623 1 1 1
v -1.946369 0.254 -0.7062082 1 1 1
v -1.664041 0.254 -0.7502941 1 1 1
v 1.959962 7.219114E-16 1.579689 1 1 1
v 2.071367 7.219114E-16 1.301141 1 1 1
v 1.681414 7.219114E-16 1.468285 1 1 1
v 1.792819 7.219114E-16 1.189737 1 1 1
v 2.022623 0.2 1.322034 1 1 1
v 1.939069 0.2 1.530945 1 1 1
v 1.813712 0.2 1.238481 1 1 1
v 1.730158 0.2 1.447392 1 1 1
v 0.05093366 1.107164 1.085957 1 1 1
v 0.1982638 1.107164 1.347288 1 1 1
v 0.3122646 1.107164 0.9386269 1 1 1
v 0.4595947 1.107164 1.199958 1 1 1
v 0.2125139 1.307164 1.296205 1 1 1
v 0.1020163 1.307164 1.100207 1 1 1
v 0.4085121 1.307164 1.185708 1 1 1
v 0.2980145 1.307164 0.9897096 1 1 1
v 1.139749 1.443823E-15 -1.955697 1 1 1
v 1.100025 1.443823E-15 -2.253056 1 1 1
v 0.8423901 1.443823E-15 -1.915974 1 1 1
v 0.8026666 1.443823E-15 -2.213332 1 1 1
v 1.067821 0.2 -2.21092 1 1 1
v 1.097613 0.2 -1.987901 1 1 1
v 0.8448018 0.2 -2.181128 1 1 1
v 0.8745944 0.2 -1.958109 1 1 1

vn 0.96892 -0.01854227 -0.2466784
vn 0.6980897 -0.01854227 0.7157701
vn -0.2708303 -0.01854226 0.9624485
vn -0.96892 -0.01854227 0.2466784
vn -0.6768287 0.2455756 -0.6939707
vn -0.9394106 0.2455756 0.2391655
vn -0.6980897 -0.01854227 -0.7157701
vn 0.2708303 -0.01854226 -0.9624485
vn 0.2625819 0.2455757 -0.9331363
vn 0 -1 0
vn 0 1 0
vn -0.2625819 0.2455757 0.9331363
vn 0.9394106 0.2455756 -0.2391655
vn 0.6768287 0.2455756 0.6939707
vn -0.7527128 -0.02376951 0.6579197
vn -0.9461316 -0.02376951 -0.3229086
vn -0.1934187 -0.02376951 -0.9808283
vn 0.7527128 -0.02376951 -0.6579197
vn 0.9001142 0.3089023 0.3072032
vn 0.7161029 0.3089023 -0.6259201
vn 0.9461316 -0.02376951 0.3229086
vn 0.1934187 -0.02376951 0.9808283
vn 0.1840113 0.3089023 0.9331234
vn -0.1840113 0.3089023 -0.9331234
vn -0.7161029 0.3089023 0.6259201
vn -0.9001142 0.3089023 -0.3072032
vn 0.2336611 -0.03832059 0.9715627
vn -0.7245674 -0.03832059 0.6881378
vn -0.9582285 -0.03832058 -0.2834249
vn -0.2336611 -0.03832059 -0.9715627
vn 0.642306 0.4640344 -0.6100123
vn -0.2071332 0.4640344 -0.8612595
vn 0.7245674 -0.03832059 -0.6881378
vn 0.9582285 -0.03832058 0.2834249
vn 0.8494391 0.4640344 0.2512472
vn -0.8494391 0.4640344 -0.2512472
vn 0.2071332 0.4640344 0.8612595
vn -0.642306 0.4640344 0.6100123
vn 0.9272259 -0.03832058 -0.372537
vn 0.7862393 -0.03832058 0.6167328
vn -0.1409865 -0.03832057 0.9892696
vn -0.9272259 -0.03832058 0.372537
vn -0.6969762 0.4640344 -0.546714
vn -0.8219563 0.4640344 0.3302422
vn -0.7862393 -0.03832058 -0.6167328
vn 0.1409865 -0.03832057 -0.9892696
vn 0.1249801 0.4640344 -0.8769562
vn -0.1249801 0.4640344 0.8769562
vn 0.8219563 0.4640344 -0.3302422
vn 0.6969762 0.4640344 0.546714
vn 0.8376469 -0.03832058 -0.5448663
vn 0.8906915 -0.03832058 0.4529904
vn 0.05304461 -0.03832058 0.9978567
vn -0.8376469 -0.03832058 0.5448663
vn -0.7895698 0.4640344 -0.4015615
vn -0.7425475 0.4640344 0.4830066
vn -0.8906915 -0.03832058 -0.4529904
vn -0.05304461 -0.03832058 -0.9978567
vn -0.04702237 0.4640344 -0.8845683
vn 0.04702237 0.4640344 0.8845683
vn 0.7425475 0.4640344 -0.4830066
vn 0.7895698 0.4640344 0.4015615
vn 0.9924858 -0.03832058 -0.1162047
vn 0.596879 -0.03832058 0.8014155
vn -0.3956067 -0.03832057 0.9176202
vn -0.9924858 -0.03832058 0.1162047
vn -0.5291144 0.4640344 -0.7104295
vn -0.8798072 0.4640344 0.1030118
vn -0.596879 -0.03832058 -0.8014155
vn 0.3956067 -0.03832057 -0.9176202
vn 0.3506928 0.4640344 -0.8134413
vn -0.3506928 0.4640344 0.8134413
vn 0.8798072 0.4640344 -0.1030118
vn 0.5291144 0.4640344 0.7104295
vn 0 -0.9999999 0
vn 0 0.9999999 0
vn -0.1638881 0.2563073 -0.9526002
vn 0.9526002 0.2563073 -0.1638881
vn -0.9526002 0.2563073 0.1638881
vn 0.1638881 0.2563073 0.9526002
vn 0 -0.9999999 0
vn 0 0.9999999 0
vn 0.4615577 0.2563073 0.8492768
vn -0.8492768 0.2563073 0.4615577
vn 0.8492768 0.2563073 -0.4615577
vn -0.4615577 0.2563073 -0.8492768
vn -0.7807518 0.2563073 -0.5698537
vn 0.5698537 0.2563073 -0.7807518
vn -0.5698537 0.2563073 0.7807518
vn 0.7807518 0.2563073 0.5698537
vn 0.8884239 0.2563073 -0.3808013
vn 0.3808013 0.2563073 0.8884239
vn -0.3808013 0.2563073 -0.8884239
vn -0.8884239 0.2563073 0.3808013
vn -0.2597267 0.2563073 0.9310473
vn -0.9310473 0.2563073 -0.2597267
vn 0.9310473 0.2563073 0.2597267
vn 0.2597267 0.2563073 -0.9310473
vn 0.5869665 0.2563073 -0.7679694
vn 0.7679694 0.2563073 0.5869665
vn -0.7679694 0.2563073 -0.5869665
vn -0.5869665 0.2563073 0.7679694

vt 0.34375 0.1944644
vt 0.34375 0.1323578
vt 0.34375 0.06460508
vt 0.34375 0.1130852
vt 0.34375 0.1339547
vt 0.34375 0.1567214
vt 0.34375 0.1489122
vt 0.34375 0.1486132
vt 0.34375 0.148287
vt 0.34375 0.1371789
vt 0.34375 0.1298143
vt 0.34375 0.1217802
vt 0.34375 0.1825144
vt 0.34375 0.1402073
vt 0.34375 0.09405407
vt 0.34375 0.2059058
vt 0.34375 0.1445626
vt 0.34375 0.07764278
vt 0.34375 0.075
vt 0.34375 0.175

usemtl colormap

f 3/1/2 2/2/1 1/1/1
f 2/2/1 3/1/2 4/2/2
f 7/1/3 6/2/4 5/2/3
f 6/2/4 7/1/3 8/1/4
f 11/3/6 10/2/5 9/3/5
f 10/2/5 11/3/6 6/2/6
f 3/1/2 5/2/3 4/2/2
f 5/2/3 3/1/2 7/1/3
f 13/1/7 12/2/8 10/2/7
f 12/2/8 13/1/7 14/1/8
f 10/2/5 15/3/9 9/3/5
f 15/3/9 10/2/5 12/2/9
f 17/3/10 15/3/10 16/3/10
f 15/3/10 17/3/10 18/3/10
f 15/3/10 18/3/10 11/3/10
f 15/3/10 11/3/10 9/3/10
f 14/1/11 3/1/11 1/1/11
f 3/1/11 14/1/11 7/1/11
f 7/1/11 14/1/11 13/1/11
f 7/1/11 13/1/11 8/1/11
f 5/2/12 11/3/6 18/3/12
f 11/3/6 5/2/12 6/2/6
f 2/2/13 17/3/14 16/3/13
f 17/3/14 2/2/13 4/2/14
f 4/2/14 18/3/12 17/3/14
f 18/3/12 4/2/14 5/2/12
f 12/2/9 16/3/13 15/3/9
f 16/3/13 12/2/9 2/2/13
f 10/2/7 8/1/4 13/1/7
f 8/1/4 10/2/7 6/2/4
f 14/1/8 2/2/1 12/2/8
f 2/2/1 14/1/8 1/1/1
f 21/4/16 20/5/15 19/4/15
f 20/5/15 21/4/16 22/5/16
f 25/4/17 24/5/18 23/5/17
f 24/5/18 25/4/17 26/4/18
f 29/6/20 28/5/19 27/6/19
f 28/5/19 29/6/20 24/5/20
f 21/4/16 23/5/17 22/5/16
f 23/5/17 21/4/16 25/4/17
f 31/4/21 30/5/22 28/5/21
f 30/5/22 31/4/21 32/4/22
f 28/5/19 33/6/23 27/6/19
f 33/6/23 28/5/19 30/5/23
f 35/6/10 33/6/10 34/6/10
f 33/6/10 35/6/10 36/6/10
f 33/6/10 36/6/10 29/6/10
f 33/6/10 29/6/10 27/6/10
f 32/4/11 21/4/11 19/4/11
f 21/4/11 32/4/11 25/4/11
f 25/4/11 32/4/11 31/4/11
f 25/4/11 31/4/11 26/4/11
f 23/5/24 29/6/20 36/6/24
f 29/6/20 23/5/24 24/5/20
f 20/5/25 35/6/26 34/6/25
f 35/6/26 20/5/25 22/5/26
f 22/5/26 36/6/24 35/6/26
f 36/6/24 22/5/26 23/5/24
f 30/5/23 34/6/25 33/6/23
f 34/6/25 30/5/23 20/5/25
f 28/5/21 26/4/18 31/4/21
f 26/4/18 28/5/21 24/5/18
f 32/4/22 20/5/15 30/5/22
f 20/5/15 32/4/22 19/4/15
f 39/7/28 38/8/27 37/7/27
f 38/8/27 39/7/28 40/8/28
f 43/7/29 42/8/30 41/8/29
f 42/8/30 43/7/29 44/7/30
f 47/9/32 46/8/31 45/9/31
f 46/8/31 47/9/32 42/8/32
f 39/7/28 41/8/29 40/8/28
f 41/8/29 39/7/28 43/7/29
f 49/7/33 48/8/34 46/8/33
f 48/8/34 49/7/33 50/7/34
f 46/8/31 51/9/35 45/9/31
f 51/9/35 46/8/31 48/8/35
f 53/9/10 51/9/10 52/9/10
f 51/9/10 53/9/10 54/9/10
f 51/9/10 54/9/10 47/9/10
f 51/9/10 47/9/10 45/9/10
f 50/7/11 39/7/11 37/7/11
f 39/7/11 50/7/11 43/7/11
f 43/7/11 50/7/11 49/7/11
f 43/7/11 49/7/11 44/7/11
f 41/8/36 47/9/32 54/9/36
f 47/9/32 41/8/36 42/8/32
f 38/8/37 53/9/38 52/9/37
f 53/9/38 38/8/37 40/8/38
f 40/8/38 54/9/36 53/9/38
f 54/9/36 40/8/38 41/8/36
f 48/8/35 52/9/37 51/9/35
f 52/9/37 48/8/35 38/8/37
f 46/8/33 44/7/30 49/7/33
f 44/7/30 46/8/33 42/8/30
f 50/7/34 38/8/27 48/8/34
f 38/8/27 50/7/34 37/7/27
f 57/10/40 56/11/39 55/10/39
f 56/11/39 57/10/40 58/11/40
f 61/10/41 60/11/42 59/11/41
f 60/11/42 61/10/41 62/10/42
f 65/12/44 64/11/43 63/12/43
f 64/11/43 65/12/44 60/11/44
f 57/10/40 59/11/41 58/11/40
f 59/11/41 57/10/40 61/10/41
f 67/10/45 66/11/46 64/11/45
f 66/11/46 67/10/45 68/10/46
f 64/11/43 69/12/47 63/12/43
f 69/12/47 64/11/43 66/11/47
f 71/12/10 69/12/10 70/12/10
f 69/12/10 71/12/10 72/12/10
f 69/12/10 72/12/10 65/12/10
f 69/12/10 65/12/10 63/12/10
f 68/10/11 57/10/11 55/10/11
f 57/10/11 68/10/11 61/10/11
f 61/10/11 68/10/11 67/10/11
f 61/10/11 67/10/11 62/10/11
f 59/11/48 65/12/44 72/12/48
f 65/12/44 59/11/48 60/11/44
f 56/11/49 71/12/50 70/12/49
f 71/12/50 56/11/49 58/11/50
f 58/11/50 72/12/48 71/12/50
f 72/12/48 58/11/50 59/11/48
f 66/11/47 70/12/49 69/12/47
f 70/12/49 66/11/47 56/11/49
f 64/11/45 62/10/42 67/10/45
f 62/10/42 64/11/45 60/11/42
f 68/10/46 56/11/39 66/11/46
f 56/11/39 68/10/46 55/10/39
f 75/13/52 74/14/51 73/13/51
f 74/14/51 75/13/52 76/14/52
f 79/13/53 78/14/54 77/14/53
f 78/14/54 79/13/53 80/13/54
f 83/15/56 82/14/55 81/15/55
f 82/14/55 83/15/56 78/14/56
f 75/13/52 77/14/53 76/14/52
f 77/14/53 75/13/52 79/13/53
f 85/13/57 84/14/58 82/14/57
f 84/14/58 85/13/57 86/13/58
f 82/14/55 87/15/59 81/15/55
f 87/15/59 82/14/55 84/14/59
f 89/15/10 87/15/10 88/15/10
f 87/15/10 89/15/10 90/15/10
f 87/15/10 90/15/10 83/15/10
f 87/15/10 83/15/10 81/15/10
f 86/13/11 75/13/11 73/13/11
f 75/13/11 86/13/11 79/13/11
f 79/13/11 86/13/11 85/13/11
f 79/13/11 85/13/11 80/13/11
f 77/14/60 83/15/56 90/15/60
f 83/15/56 77/14/60 78/14/56
f 74/14/61 89/15/62 88/15/61
f 89/15/62 74/14/61 76/14/62
f 76/14/62 90/15/60 89/15/62
f 90/15/60 76/14/62 77/14/60
f 84/14/59 88/15/61 87/15/59
f 88/15/61 84/14/59 74/14/61
f 82/14/57 80/13/54 85/13/57
f 80/13/54 82/14/57 78/14/54
f 86/13/58 74/14/51 84/14/58
f 74/14/51 86/13/58 73/13/51
f 93/16/64 92/17/63 91/16/63
f 92/17/63 93/16/64 94/17/64
f 97/16/65 96/17/66 95/17/65
f 96/17/66 97/16/65 98/16/66
f 101/18/68 100/17/67 99/18/67
f 100/17/67 101/18/68 96/17/68
f 93/16/64 95/17/65 94/17/64
f 95/17/65 93/16/64 97/16/65
f 103/16/69 102/17/70 100/17/69
f 102/17/70 103/16/69 104/16/70
f 100/17/67 105/18/71 99/18/67
f 105/18/71 100/17/67 102/17/71
f 107/18/10 105/18/10 106/18/10
f 105/18/10 107/18/10 108/18/10
f 105/18/10 108/18/10 101/18/10
f 105/18/10 101/18/10 99/18/10
f 104/16/11 93/16/11 91/16/11
f 93/16/11 104/16/11 97/16/11
f 97/16/11 104/16/11 103/16/11
f 97/16/11 103/16/11 98/16/11
f 95/17/72 101/18/68 108/18/72
f 101/18/68 95/17/72 96/17/68
f 92/17/73 107/18/74 106/18/73
f 107/18/74 92/17/73 94/17/74
f 94/17/74 108/18/72 107/18/74
f 108/18/72 94/17/74 95/17/72
f 102/17/71 106/18/73 105/18/71
f 106/18/73 102/17/71 92/17/73
f 100/17/69 98/16/66 103/16/69
f 98/16/66 100/17/69 96/17/66
f 104/16/70 92/17/63 102/17/70
f 92/17/63 104/16/70 91/16/63
f 111/19/75 110/19/75 109/19/75
f 110/19/75 111/19/75 112/19/75
f 115/20/76 114/20/76 113/20/76
f 114/20/76 115/20/76 116/20/76
f 113/20/77 109/19/78 110/19/77
f 109/19/78 113/20/77 114/20/78
f 115/20/79 110/19/77 112/19/79
f 110/19/77 115/20/79 113/20/77
f 114/20/78 111/19/80 109/19/78
f 111/19/80 114/20/78 116/20/80
f 111/19/80 115/20/79 112/19/79
f 115/20/79 111/19/80 116/20/80
f 119/19/81 118/19/81 117/19/81
f 118/19/81 119/19/81 120/19/81
f 123/20/82 122/20/82 121/20/82
f 122/20/82 123/20/82 124/20/82
f 121/20/83 117/19/84 118/19/83
f 117/19/84 121/20/83 122/20/84
f 123/20/85 118/19/83 120/19/85
f 118/19/83 123/20/85 121/20/83
f 122/20/84 119/19/86 117/19/84
f 119/19/86 122/20/84 124/20/86
f 119/19/86 123/20/85 120/19/85
f 123/20/85 119/19/86 124/20/86
f 127/19/75 126/19/75 125/19/75
f 126/19/75 127/19/75 128/19/75
f 131/20/76 130/20/76 129/20/76
f 130/20/76 131/20/76 132/20/76
f 129/20/87 125/19/88 126/19/87
f 125/19/88 129/20/87 130/20/88
f 131/20/89 126/19/87 128/19/89
f 126/19/87 131/20/89 129/20/87
f 130/20/88 127/19/90 125/19/88
f 127/19/90 130/20/88 132/20/90
f 127/19/90 131/20/89 128/19/89
f 131/20/89 127/19/90 132/20/90
f 135/19/10 134/19/10 133/19/10
f 134/19/10 135/19/10 136/19/10
f 139/20/11 138/20/11 137/20/11
f 138/20/11 139/20/11 140/20/11
f 137/20/91 133/19/92 134/19/91
f 133/19/92 137/20/91 138/20/92
f 139/20/93 134/19/91 136/19/93
f 134/19/91 139/20/93 137/20/91
f 138/20/92 135/19/94 133/19/92
f 135/19/94 138/20/92 140/20/94
f 135/19/94 139/20/93 136/19/93
f 139/20/93 135/19/94 140/20/94
f 143/19/10 142/19/10 141/19/10
f 142/19/10 143/19/10 144/19/10
f 147/20/11 146/20/11 145/20/11
f 146/20/11 147/20/11 148/20/11
f 145/20/95 141/19/96 142/19/95
f 141/19/96 145/20/95 146/20/96
f 147/20/97 142/19/95 144/19/97
f 142/19/95 147/20/97 145/20/95
f 146/20/96 143/19/98 141/19/96
f 143/19/98 146/20/96 148/20/98
f 143/19/98 147/20/97 144/19/97
f 147/20/97 143/19/98 148/20/98
f 151/19/10 150/19/10 149/19/10
f 150/19/10 151/19/10 152/19/10
f 155/20/11 154/20/11 153/20/11
f 154/20/11 155/20/11 156/20/11
f 153/20/99 149/19/100 150/19/99
f 149/19/100 153/20/99 154/20/100
f 155/20/101 150/19/99 152/19/101
f 150/19/99 155/20/101 153/20/99
f 154/20/100 151/19/102 149/19/100
f 151/19/102 154/20/100 156/20/102
f 151/19/102 155/20/101 152/19/101
f 155/20/101 151/19/102 156/20/102

g rocks-a




usemtl colormap

f 3/1/2 2/2/1 1/1/1
f 2/2/1 3/1/2 4/2/2
f 7/1/3 6/2/4 5/2/3
f 6/2/4 7/1/3 8/1/4
f 11/3/6 10/2/5 9/3/5
f 10/2/5 11/3/6 6/2/6
f 3/1/2 5/2/3 4/2/2
f 5/2/3 3/1/2 7/1/3
f 13/1/7 12/2/8 10/2/7
f 12/2/8 13/1/7 14/1/8
f 10/2/5 15/3/9 9/3/5
f 15/3/9 10/2/5 12/2/9
f 17/3/10 15/3/10 16/3/10
f 15/3/10 17/3/10 18/3/10
f 15/3/10 18/3/10 11/3/10
f 15/3/10 11/3/10 9/3/10
f 14/1/11 3/1/11 1/1/11
f 3/1/11 14/1/11 7/1/11
f 7/1/11 14/1/11 13/1/11
f 7/1/11 13/1/11 8/1/11
f 5/2/12 11/3/6 18/3/12
f 11/3/6 5/2/12 6/2/6
f 2/2/13 17/3/14 16/3/13
f 17/3/14 2/2/13 4/2/14
f 4/2/14 18/3/12 17/3/14
f 18/3/12 4/2/14 5/2/12
f 12/2/9 16/3/13 15/3/9
f 16/3/13 12/2/9 2/2/13
f 10/2/7 8/1/4 13/1/7
f 8/1/4 10/2/7 6/2/4
f 14/1/8 2/2/1 12/2/8
f 2/2/1 14/1/8 1/1/1
f 21/4/16 20/5/15 19/4/15
f 20/5/15 21/4/16 22/5/16
f 25/4/17 24/5/18 23/5/17
f 24/5/18 25/4/17 26/4/18
f 29/6/20 28/5/19 27/6/19
f 28/5/19 29/6/20 24/5/20
f 21/4/16 23/5/17 22/5/16
f 23/5/17 21/4/16 25/4/17
f 31/4/21 30/5/22 28/5/21
f 30/5/22 31/4/21 32/4/22
f 28/5/19 33/6/23 27/6/19
f 33/6/23 28/5/19 30/5/23
f 35/6/10 33/6/10 34/6/10
f 33/6/10 35/6/10 36/6/10
f 33/6/10 36/6/10 29/6/10
f 33/6/10 29/6/10 27/6/10
f 32/4/11 21/4/11 19/4/11
f 21/4/11 32/4/11 25/4/11
f 25/4/11 32/4/11 31/4/11
f 25/4/11 31/4/11 26/4/11
f 23/5/24 29/6/20 36/6/24
f 29/6/20 23/5/24 24/5/20
f 20/5/25 35/6/26 34/6/25
f 35/6/26 20/5/25 22/5/26
f 22/5/26 36/6/24 35/6/26
f 36/6/24 22/5/26 23/5/24
f 30/5/23 34/6/25 33/6/23
f 34/6/25 30/5/23 20/5/25
f 28/5/21 26/4/18 31/4/21
f 26/4/18 28/5/21 24/5/18
f 32/4/22 20/5/15 30/5/22
f 20/5/15 32/4/22 19/4/15
f 39/7/28 38/8/27 37/7/27
f 38/8/27 39/7/28 40/8/28
f 43/7/29 42/8/30 41/8/29
f 42/8/30 43/7/29 44/7/30
f 47/9/32 46/8/31 45/9/31
f 46/8/31 47/9/32 42/8/32
f 39/7/28 41/8/29 40/8/28
f 41/8/29 39/7/28 43/7/29
f 49/7/33 48/8/34 46/8/33
f 48/8/34 49/7/33 50/7/34
f 46/8/31 51/9/35 45/9/31
f 51/9/35 46/8/31 48/8/35
f 53/9/10 51/9/10 52/9/10
f 51/9/10 53/9/10 54/9/10
f 51/9/10 54/9/10 47/9/10
f 51/9/10 47/9/10 45/9/10
f 50/7/11 39/7/11 37/7/11
f 39/7/11 50/7/11 43/7/11
f 43/7/11 50/7/11 49/7/11
f 43/7/11 49/7/11 44/7/11
f 41/8/36 47/9/32 54/9/36
f 47/9/32 41/8/36 42/8/32
f 38/8/37 53/9/38 52/9/37
f 53/9/38 38/8/37 40/8/38
f 40/8/38 54/9/36 53/9/38
f 54/9/36 40/8/38 41/8/36
f 48/8/35 52/9/37 51/9/35
f 52/9/37 48/8/35 38/8/37
f 46/8/33 44/7/30 49/7/33
f 44/7/30 46/8/33 42/8/30
f 50/7/34 38/8/27 48/8/34
f 38/8/27 50/7/34 37/7/27
f 57/10/40 56/11/39 55/10/39
f 56/11/39 57/10/40 58/11/40
f 61/10/41 60/11/42 59/11/41
f 60/11/42 61/10/41 62/10/42
f 65/12/44 64/11/43 63/12/43
f 64/11/43 65/12/44 60/11/44
f 57/10/40 59/11/41 58/11/40
f 59/11/41 57/10/40 61/10/41
f 67/10/45 66/11/46 64/11/45
f 66/11/46 67/10/45 68/10/46
f 64/11/43 69/12/47 63/12/43
f 69/12/47 64/11/43 66/11/47
f 71/12/10 69/12/10 70/12/10
f 69/12/10 71/12/10 72/12/10
f 69/12/10 72/12/10 65/12/10
f 69/12/10 65/12/10 63/12/10
f 68/10/11 57/10/11 55/10/11
f 57/10/11 68/10/11 61/10/11
f 61/10/11 68/10/11 67/10/11
f 61/10/11 67/10/11 62/10/11
f 59/11/48 65/12/44 72/12/48
f 65/12/44 59/11/48 60/11/44
f 56/11/49 71/12/50 70/12/49
f 71/12/50 56/11/49 58/11/50
f 58/11/50 72/12/48 71/12/50
f 72/12/48 58/11/50 59/11/48
f 66/11/47 70/12/49 69/12/47
f 70/12/49 66/11/47 56/11/49
f 64/11/45 62/10/42 67/10/45
f 62/10/42 64/11/45 60/11/42
f 68/10/46 56/11/39 66/11/46
f 56/11/39 68/10/46 55/10/39
f 75/13/52 74/14/51 73/13/51
f 74/14/51 75/13/52 76/14/52
f 79/13/53 78/14/54 77/14/53
f 78/14/54 79/13/53 80/13/54
f 83/15/56 82/14/55 81/15/55
f 82/14/55 83/15/56 78/14/56
f 75/13/52 77/14/53 76/14/52
f 77/14/53 75/13/52 79/13/53
f 85/13/57 84/14/58 82/14/57
f 84/14/58 85/13/57 86/13/58
f 82/14/55 87/15/59 81/15/55
f 87/15/59 82/14/55 84/14/59
f 89/15/10 87/15/10 88/15/10
f 87/15/10 89/15/10 90/15/10
f 87/15/10 90/15/10 83/15/10
f 87/15/10 83/15/10 81/15/10
f 86/13/11 75/13/11 73/13/11
f 75/13/11 86/13/11 79/13/11
f 79/13/11 86/13/11 85/13/11
f 79/13/11 85/13/11 80/13/11
f 77/14/60 83/15/56 90/15/60
f 83/15/56 77/14/60 78/14/56
f 74/14/61 89/15/62 88/15/61
f 89/15/62 74/14/61 76/14/62
f 76/14/62 90/15/60 89/15/62
f 90/15/60 76/14/62 77/14/60
f 84/14/59 88/15/61 87/15/59
f 88/15/61 84/14/59 74/14/61
f 82/14/57 80/13/54 85/13/57
f 80/13/54 82/14/57 78/14/54
f 86/13/58 74/14/51 84/14/58
f 74/14/51 86/13/58 73/13/51
f 93/16/64 92/17/63 91/16/63
f 92/17/63 93/16/64 94/17/64
f 97/16/65 96/17/66 95/17/65
f 96/17/66 97/16/65 98/16/66
f 101/18/68 100/17/67 99/18/67
f 100/17/67 101/18/68 96/17/68
f 93/16/64 95/17/65 94/17/64
f 95/17/65 93/16/64 97/16/65
f 103/16/69 102/17/70 100/17/69
f 102/17/70 103/16/69 104/16/70
f 100/17/67 105/18/71 99/18/67
f 105/18/71 100/17/67 102/17/71
f 107/18/10 105/18/10 106/18/10
f 105/18/10 107/18/10 108/18/10
f 105/18/10 108/18/10 101/18/10
f 105/18/10 101/18/10 99/18/10
f 104/16/11 93/16/11 91/16/11
f 93/16/11 104/16/11 97/16/11
f 97/16/11 104/16/11 103/16/11
f 97/16/11 103/16/11 98/16/11
f 95/17/72 101/18/68 108/18/72
f 101/18/68 95/17/72 96/17/68
f 92/17/73 107/18/74 106/18/73
f 107/18/74 92/17/73 94/17/74
f 94/17/74 108/18/72 107/18/74
f 108/18/72 94/17/74 95/17/72
f 102/17/71 106/18/73 105/18/71
f 106/18/73 102/17/71 92/17/73
f 100/17/69 98/16/66 103/16/69
f 98/16/66 100/17/69 96/17/66
f 104/16/70 92/17/63 102/17/70
f 92/17/63 104/16/70 91/16/63
f 111/19/75 110/19/75 109/19/75
f 110/19/75 111/19/75 112/19/75
f 115/20/76 114/20/76 113/20/76
f 114/20/76 115/20/76 116/20/76
f 113/20/77 109/19/78 110/19/77
f 109/19/78 113/20/77 114/20/78
f 115/20/79 110/19/77 112/19/79
f 110/19/77 115/20/79 113/20/77
f 114/20/78 111/19/80 109/19/78
f 111/19/80 114/20/78 116/20/80
f 111/19/80 115/20/79 112/19/79
f 115/20/79 111/19/80 116/20/80
f 119/19/81 118/19/81 117/19/81
f 118/19/81 119/19/81 120/19/81
f 123/20/82 122/20/82 121/20/82
f 122/20/82 123/20/82 124/20/82
f 121/20/83 117/19/84 118/19/83
f 117/19/84 121/20/83 122/20/84
f 123/20/85 118/19/83 120/19/85
f 118/19/83 123/20/85 121/20/83
f 122/20/84 119/19/86 117/19/84
f 119/19/86 122/20/84 124/20/86
f 119/19/86 123/20/85 120/19/85
f 123/20/85 119/19/86 124/20/86
f 127/19/75 126/19/75 125/19/75
f 126/19/75 127/19/75 128/19/75
f 131/20/76 130/20/76 129/20/76
f 130/20/76 131/20/76 132/20/76
f 129/20/87 125/19/88 126/19/87
f 125/19/88 129/20/87 130/20/88
f 131/20/89 126/19/87 128/19/89
f 126/19/87 131/20/89 129/20/87
f 130/20/88 127/19/90 125/19/88
f 127/19/90 130/20/88 132/20/90
f 127/19/90 131/20/89 128/19/89
f 131/20/89 127/19/90 132/20/90
f 135/19/10 134/19/10 133/19/10
f 134/19/10 135/19/10 136/19/10
f 139/20/11 138/20/11 137/20/11
f 138/20/11 139/20/11 140/20/11
f 137/20/91 133/19/92 134/19/91
f 133/19/92 137/20/91 138/20/92
f 139/20/93 134/19/91 136/19/93
f 134/19/91 139/20/93 137/20/91
f 138/20/92 135/19/94 133/19/92
f 135/19/94 138/20/92 140/20/94
f 135/19/94 139/20/93 136/19/93
f 139/20/93 135/19/94 140/20/94
f 143/19/10 142/19/10 141/19/10
f 142/19/10 143/19/10 144/19/10
f 147/20/11 146/20/11 145/20/11
f 146/20/11 147/20/11 148/20/11
f 145/20/95 141/19/96 142/19/95
f 141/19/96 145/20/95 146/20/96
f 147/20/97 142/19/95 144/19/97
f 142/19/95 147/20/97 145/20/95
f 146/20/96 143/19/98 141/19/96
f 143/19/98 146/20/96 148/20/98
f 143/19/98 147/20/97 144/19/97
f 147/20/97 143/19/98 148/20/98
f 151/19/10 150/19/10 149/19/10
f 150/19/10 151/19/10 152/19/10
f 155/20/11 154/20/11 153/20/11
f 154/20/11 155/20/11 156/20/11
f 153/20/99 149/19/100 150/19/99
f 149/19/100 153/20/99 154/20/100
f 155/20/101 150/19/99 152/19/101
f 150/19/99 155/20/101 153/20/99
f 154/20/100 151/19/102 149/19/100
f 151/19/102 154/20/100 156/20/102
f 151/19/102 155/20/101 152/19/101
f 155/20/101 151/19/102 156/20/102

