# Created by Kenney (www.kenney.nl)

mtllib structure-platform.mtl

g structure-platform

v 0.8693777 0.928 -1.256346 1 1 1
v 0.9304581 0.928 1.242908 1 1 1
v 0.3195419 0.928 -1.242908 1 1 1
v 0.3806223 0.928 1.256346 1 1 1
v -0.975 0.9 -1.25 1 1 1
v -0.975 0.9 1.25 1 1 1
v -1.25 0.9 -1.25 1 1 1
v -1.25 0.9 1.25 1 1 1
v 1.25 0.9 -1.25 1 1 1
v 1.25 0.9 1.25 1 1 1
v 0.975 0.9 -1.25 1 1 1
v 0.975 0.9 1.25 1 1 1
v 0.275 0.9 -1.25 1 1 1
v 0.275 0.9 1.25 1 1 1
v -0.275 0.9 -1.25 1 1 1
v -0.275 0.9 1.25 1 1 1
v -0.3217116 0.834 -1.243439 1 1 1
v -0.3784299 0.834 1.255917 1 1 1
v -0.8715701 0.834 -1.255917 1 1 1
v -0.9282884 0.834 1.243439 1 1 1
v 1.15 0 1.15 1 1 1
v 1.15 0 0.85 1 1 1
v 0.85 0 1.15 1 1 1
v 0.85 0 0.85 1 1 1
v 0.8725 0.245 0.8725 1 1 1
v 1.1275 0.245 0.8725 1 1 1
v 0.85 0.7 0.85 1 1 1
v 1.15 0.7 0.85 1 1 1
v 0.85 0.7 1.15 1 1 1
v 0.8725 0.245 1.1275 1 1 1
v 1.1275 0.245 1.1275 1 1 1
v 1.15 0.7 1.15 1 1 1
v 1.15 0 -0.85 1 1 1
v 1.15 0 -1.15 1 1 1
v 0.85 0 -0.85 1 1 1
v 0.85 0 -1.15 1 1 1
v 0.8725 0.245 -1.1275 1 1 1
v 1.1275 0.245 -1.1275 1 1 1
v 0.85 0.7 -1.15 1 1 1
v 1.15 0.7 -1.15 1 1 1
v 0.85 0.7 -0.85 1 1 1
v 0.8725 0.245 -0.8725 1 1 1
v 1.1275 0.245 -0.8725 1 1 1
v 1.15 0.7 -0.85 1 1 1
v -1.15 3.609557E-16 -0.85 1 1 1
v -0.85 3.609557E-16 -0.85 1 1 1
v -1.15 3.609557E-16 -1.15 1 1 1
v -0.85 3.609557E-16 -1.15 1 1 1
v -0.8724999 0.245 -1.1275 1 1 1
v -0.8725 0.245 -0.8724999 1 1 1
v -0.85 0.7 -1.15 1 1 1
v -0.85 0.7 -0.85 1 1 1
v -1.15 0.7 -1.15 1 1 1
v -1.1275 0.245 -1.1275 1 1 1
v -1.1275 0.245 -0.8725 1 1 1
v -1.15 0.7 -0.85 1 1 1
v -0.85 3.609557E-16 1.15 1 1 1
v -0.85 3.609557E-16 0.85 1 1 1
v -1.15 3.609557E-16 1.15 1 1 1
v -1.15 3.609557E-16 0.85 1 1 1
v -1.1275 0.245 0.8725 1 1 1
v -0.8725 0.245 0.8725 1 1 1
v -1.15 0.7 0.85 1 1 1
v -0.85 0.7 0.85 1 1 1
v -1.15 0.7 1.15 1 1 1
v -1.1275 0.245 1.1275 1 1 1
v -0.8725 0.245 1.1275 1 1 1
v -0.85 0.7 1.15 1 1 1
v -0.9499999 0.09330238 0.922 1 1 1
v -0.3433024 0.6999999 0.922 1 1 1
v -0.9499999 0.3139197 0.922 1 1 1
v -0.5639197 0.6999999 0.922 1 1 1
v -0.9499999 0.09330238 1.078 1 1 1
v -0.9499999 0.3139197 1.078 1 1 1
v -0.3433024 0.6999999 1.078 1 1 1
v -0.5639197 0.6999999 1.078 1 1 1
v 0.9499999 0.09330238 0.922 1 1 1
v 0.3433024 0.6999999 0.922 1 1 1
v 0.9499999 0.3139197 0.922 1 1 1
v 0.5639197 0.6999999 0.922 1 1 1
v 0.9499999 0.09330238 1.078 1 1 1
v 0.9499999 0.3139197 1.078 1 1 1
v 0.3433024 0.6999999 1.078 1 1 1
v 0.5639197 0.6999999 1.078 1 1 1
v 0.9499999 0.09330238 -1.078 1 1 1
v 0.3433024 0.6999999 -1.078 1 1 1
v 0.9499999 0.3139197 -1.078 1 1 1
v 0.5639197 0.6999999 -1.078 1 1 1
v 0.9499999 0.09330238 -0.922 1 1 1
v 0.9499999 0.3139197 -0.922 1 1 1
v 0.3433024 0.6999999 -0.922 1 1 1
v 0.5639197 0.6999999 -0.922 1 1 1
v -0.9499999 0.09330238 -1.078 1 1 1
v -0.3433024 0.6999999 -1.078 1 1 1
v -0.9499999 0.3139197 -1.078 1 1 1
v -0.5639197 0.6999999 -1.078 1 1 1
v -0.9499999 0.09330238 -0.922 1 1 1
v -0.9499999 0.3139197 -0.922 1 1 1
v -0.3433024 0.6999999 -0.922 1 1 1
v -0.5639197 0.6999999 -0.922 1 1 1
v 1.078 0.09330238 -0.95 1 1 1
v 1.078 0.6999999 -0.3433023 1 1 1
v 1.078 0.3139197 -0.95 1 1 1
v 1.078 0.6999999 -0.5639197 1 1 1
v 0.9220001 0.09330238 -0.95 1 1 1
v 0.9220001 0.3139197 -0.95 1 1 1
v 0.9219999 0.6999999 -0.3433023 1 1 1
v 0.922 0.6999999 -0.5639197 1 1 1
v 1.078 0.09330238 0.95 1 1 1
v 1.078 0.6999999 0.3433023 1 1 1
v 1.078 0.3139197 0.95 1 1 1
v 1.078 0.6999999 0.5639197 1 1 1
v 0.9219999 0.09330238 0.95 1 1 1
v 0.9219999 0.3139197 0.95 1 1 1
v 0.9220001 0.6999999 0.3433023 1 1 1
v 0.922 0.6999999 0.5639197 1 1 1
v -0.9219999 0.09330238 -0.95 1 1 1
v -0.9220001 0.6999999 -0.3433023 1 1 1
v -0.9219999 0.3139197 -0.95 1 1 1
v -0.922 0.6999999 -0.5639197 1 1 1
v -1.078 0.09330238 -0.95 1 1 1
v -1.078 0.3139197 -0.95 1 1 1
v -1.078 0.6999999 -0.3433023 1 1 1
v -1.078 0.6999999 -0.5639197 1 1 1
v -0.9220001 0.09330238 0.95 1 1 1
v -0.9219999 0.6999999 0.3433023 1 1 1
v -0.9220001 0.3139197 0.95 1 1 1
v -0.922 0.6999999 0.5639197 1 1 1
v -1.078 0.09330238 0.95 1 1 1
v -1.078 0.3139197 0.95 1 1 1
v -1.078 0.6999999 0.3433023 1 1 1
v -1.078 0.6999999 0.5639197 1 1 1
v 0.9304581 0.7 1.242908 1 1 1
v 0.8693777 0.7 -1.256346 1 1 1
v 0.3806223 0.7 1.256346 1 1 1
v 0.3195419 0.7 -1.242908 1 1 1
v -0.975 0.7 1.25 1 1 1
v -0.975 0.7 -1.25 1 1 1
v -1.25 0.7 1.25 1 1 1
v -1.25 0.7 -1.25 1 1 1
v 1.25 0.7 1.25 1 1 1
v 1.25 0.7 -1.25 1 1 1
v 0.975 0.7 1.25 1 1 1
v 0.975 0.7 -1.25 1 1 1
v 0.275 0.7 1.25 1 1 1
v 0.275 0.7 -1.25 1 1 1
v -0.275 0.7 1.25 1 1 1
v -0.275 0.7 -1.25 1 1 1
v -0.3217116 0.7 -1.243439 1 1 1
v -0.8715701 0.7 -1.255917 1 1 1
v -0.3784299 0.7 1.255917 1 1 1
v -0.9282884 0.7 1.243439 1 1 1

vn 0.672472 0.73994 -0.01643486
vn -0.672472 0.73994 0.01643486
vn 0.8762159 0.4819188 0
vn -0.8762159 0.4819188 0
vn 0.6726728 0.7399401 0
vn -0.6726728 0.7399401 0
vn 0.6724997 0.73994 0.01526115
vn -0.6724997 0.73994 -0.01526115
vn 0 -1 0
vn 0 0.02198333 -0.9997583
vn 0 -0.0493902 -0.9987796
vn -0.9987796 -0.0493902 0
vn -0.9997583 0.02198333 0
vn 0 0.02198333 0.9997583
vn 0 -0.0493902 0.9987796
vn 0.9987796 -0.0493902 0
vn 0.9997583 0.02198333 0
vn -0.9958096 0.0914519 0
vn 0 0.0914519 -0.9958096
vn 0 0.0914519 0.9958096
vn 0.9958096 0.0914519 0
vn 0 1 0
vn 0.9997584 0.02198333 1.191805E-07
vn 0.9987797 -0.0493902 1.190638E-07
vn 1.190638E-07 -0.0493902 -0.9987797
vn 1.191805E-07 0.02198333 -0.9997584
vn -0.9997584 0.02198333 -1.191805E-07
vn -0.9987797 -0.0493902 -1.190638E-07
vn -1.190638E-07 -0.0493902 0.9987797
vn -1.191805E-07 0.02198333 0.9997584
vn 1.187097E-07 0.0914519 -0.9958097
vn 0.9958097 0.0914519 1.187097E-07
vn -0.9958097 0.0914519 -1.187097E-07
vn -1.187097E-07 0.0914519 0.9958097
vn 0 0 -1
vn 0 0 1
vn -0.7071068 0.7071068 0
vn 0.7071068 -0.7071068 0
vn 0.7071068 0.7071068 0
vn -0.7071068 -0.7071068 0
vn 0.9999999 0 1.192093E-07
vn -0.9999999 0 -1.192093E-07
vn 8.429368E-08 0.7071066 -0.7071067
vn -8.429368E-08 -0.7071066 0.7071067
vn 0 0.9999998 0
vn -8.429368E-08 0.7071066 0.7071067
vn 8.429368E-08 -0.7071066 -0.7071067
vn 0.9997015 0 -0.02443218
vn -0.02443218 0 -0.9997015
vn -0.9997015 0 0.02443218
vn 0.02443218 0 0.9997015
vn 1 0 0
vn -1 0 0
vn 0.9997426 0 0.02268733
vn 0.02268734 0 -0.9997426
vn -0.9997426 0 -0.02268733
vn -0.02268734 0 0.9997426

vt 0.84375 0.125
vt 0.84375 0.225
vt 0.84375 0.155
vt 0.84375 0.025
vt 0.84375 0.08863636
vt 0.96875 0.025
vt 0.96875 0.125

usemtl colormap

f 3/1/2 2/1/1 1/1/1
f 2/1/1 3/1/2 4/1/2
f 7/1/4 6/1/3 5/1/3
f 6/1/3 7/1/4 8/1/4
f 11/1/4 10/1/3 9/1/3
f 10/1/3 11/1/4 12/1/4
f 15/1/6 14/1/5 13/1/5
f 14/1/5 15/1/6 16/1/6
f 19/1/8 18/1/7 17/1/7
f 18/1/7 19/1/8 20/1/8
f 23/2/9 22/2/9 21/2/9
f 22/2/9 23/2/9 24/2/9
f 27/4/11 26/3/10 25/3/10
f 26/3/10 27/4/11 28/4/11
f 25/3/13 29/4/12 27/4/12
f 29/4/12 25/3/13 30/3/13
f 32/4/15 30/3/14 31/3/14
f 30/3/14 32/4/15 29/4/15
f 32/4/16 26/3/17 28/4/16
f 26/3/17 32/4/16 31/3/17
f 23/2/18 25/3/13 24/2/18
f 25/3/13 23/2/18 30/3/13
f 25/3/10 22/2/19 24/2/19
f 22/2/19 25/3/10 26/3/10
f 31/3/14 23/2/20 21/2/20
f 23/2/20 31/3/14 30/3/14
f 26/3/17 21/2/21 22/2/21
f 21/2/21 26/3/17 31/3/17
f 27/4/22 32/4/22 28/4/22
f 32/4/22 27/4/22 29/4/22
f 35/2/9 34/2/9 33/2/9
f 34/2/9 35/2/9 36/2/9
f 39/4/11 38/3/10 37/3/10
f 38/3/10 39/4/11 40/4/11
f 37/3/13 41/4/12 39/4/12
f 41/4/12 37/3/13 42/3/13
f 44/4/15 42/3/14 43/3/14
f 42/3/14 44/4/15 41/4/15
f 44/4/16 38/3/17 40/4/16
f 38/3/17 44/4/16 43/3/17
f 35/2/18 37/3/13 36/2/18
f 37/3/13 35/2/18 42/3/13
f 37/3/10 34/2/19 36/2/19
f 34/2/19 37/3/10 38/3/10
f 43/3/14 35/2/20 33/2/20
f 35/2/20 43/3/14 42/3/14
f 38/3/17 33/2/21 34/2/21
f 33/2/21 38/3/17 43/3/17
f 39/4/22 44/4/22 40/4/22
f 44/4/22 39/4/22 41/4/22
f 47/2/9 46/2/9 45/2/9
f 46/2/9 47/2/9 48/2/9
f 51/4/24 50/3/23 49/3/23
f 50/3/23 51/4/24 52/4/24
f 49/3/26 53/4/25 51/4/25
f 53/4/25 49/3/26 54/3/26
f 56/4/28 54/3/27 55/3/27
f 54/3/27 56/4/28 53/4/28
f 56/4/29 50/3/30 52/4/29
f 50/3/30 56/4/29 55/3/30
f 47/2/31 49/3/26 48/2/31
f 49/3/26 47/2/31 54/3/26
f 49/3/23 46/2/32 48/2/32
f 46/2/32 49/3/23 50/3/23
f 55/3/27 47/2/33 45/2/33
f 47/2/33 55/3/27 54/3/27
f 50/3/30 45/2/34 46/2/34
f 45/2/34 50/3/30 55/3/30
f 52/4/22 53/4/22 56/4/22
f 53/4/22 52/4/22 51/4/22
f 59/2/9 58/2/9 57/2/9
f 58/2/9 59/2/9 60/2/9
f 63/4/11 62/3/10 61/3/10
f 62/3/10 63/4/11 64/4/11
f 61/3/13 65/4/12 63/4/12
f 65/4/12 61/3/13 66/3/13
f 68/4/15 66/3/14 67/3/14
f 66/3/14 68/4/15 65/4/15
f 68/4/16 62/3/17 64/4/16
f 62/3/17 68/4/16 67/3/17
f 59/2/18 61/3/13 60/2/18
f 61/3/13 59/2/18 66/3/13
f 61/3/10 58/2/19 60/2/19
f 58/2/19 61/3/10 62/3/10
f 67/3/14 59/2/20 57/2/20
f 59/2/20 67/3/14 66/3/14
f 62/3/17 57/2/21 58/2/21
f 57/2/21 62/3/17 67/3/17
f 63/4/22 68/4/22 64/4/22
f 68/4/22 63/4/22 65/4/22
f 71/5/35 70/4/35 69/1/35
f 70/4/35 71/5/35 72/4/35
f 75/4/36 74/5/36 73/1/36
f 74/5/36 75/4/36 76/4/36
f 74/5/37 72/4/37 71/5/37
f 72/4/37 74/5/37 76/4/37
f 75/4/38 69/1/38 70/4/38
f 69/1/38 75/4/38 73/1/38
f 72/4/22 75/4/22 70/4/22
f 75/4/22 72/4/22 76/4/22
f 84/4/22 80/4/22 83/4/22
f 78/4/22 83/4/22 80/4/22
f 81/1/40 83/4/40 77/1/40
f 78/4/40 77/1/40 83/4/40
f 84/4/39 82/5/39 80/4/39
f 79/5/39 80/4/39 82/5/39
f 84/4/36 83/4/36 82/5/36
f 81/1/36 82/5/36 83/4/36
f 80/4/35 79/5/35 78/4/35
f 77/1/35 78/4/35 79/5/35
f 92/4/22 88/4/22 91/4/22
f 86/4/22 91/4/22 88/4/22
f 89/1/40 91/4/40 85/1/40
f 86/4/40 85/1/40 91/4/40
f 92/4/39 90/5/39 88/4/39
f 87/5/39 88/4/39 90/5/39
f 92/4/36 91/4/36 90/5/36
f 89/1/36 90/5/36 91/4/36
f 88/4/35 87/5/35 86/4/35
f 85/1/35 86/4/35 87/5/35
f 95/5/35 94/4/35 93/1/35
f 94/4/35 95/5/35 96/4/35
f 99/4/36 98/5/36 97/1/36
f 98/5/36 99/4/36 100/4/36
f 98/5/37 96/4/37 95/5/37
f 96/4/37 98/5/37 100/4/37
f 99/4/38 93/1/38 94/4/38
f 93/1/38 99/4/38 97/1/38
f 96/4/22 99/4/22 94/4/22
f 99/4/22 96/4/22 100/4/22
f 103/5/41 102/4/41 101/1/41
f 102/4/41 103/5/41 104/4/41
f 107/4/42 106/5/42 105/1/42
f 106/5/42 107/4/42 108/4/42
f 106/5/43 104/4/43 103/5/43
f 104/4/43 106/5/43 108/4/43
f 107/4/44 101/1/44 102/4/44
f 101/1/44 107/4/44 105/1/44
f 102/4/45 108/4/45 107/4/45
f 108/4/45 102/4/45 104/4/45
f 116/4/45 112/4/45 115/4/45
f 110/4/45 115/4/45 112/4/45
f 113/1/47 115/4/47 109/1/47
f 110/4/47 109/1/47 115/4/47
f 116/4/46 114/5/46 112/4/46
f 111/5/46 112/4/46 114/5/46
f 116/4/42 115/4/42 114/5/42
f 113/1/42 114/5/42 115/4/42
f 112/4/41 111/5/41 110/4/41
f 109/1/41 110/4/41 111/5/41
f 119/5/41 118/4/41 117/1/41
f 118/4/41 119/5/41 120/4/41
f 123/4/42 122/5/42 121/1/42
f 122/5/42 123/4/42 124/4/42
f 119/5/43 124/4/43 120/4/43
f 124/4/43 119/5/43 122/5/43
f 123/4/44 117/1/44 118/4/44
f 117/1/44 123/4/44 121/1/44
f 120/4/45 123/4/45 118/4/45
f 123/4/45 120/4/45 124/4/45
f 132/4/45 128/4/45 131/4/45
f 126/4/45 131/4/45 128/4/45
f 129/1/47 131/4/47 125/1/47
f 126/4/47 125/1/47 131/4/47
f 132/4/46 130/5/46 128/4/46
f 127/5/46 128/4/46 130/5/46
f 132/4/42 131/4/42 130/5/42
f 129/1/42 130/5/42 131/4/42
f 128/4/41 127/5/41 126/4/41
f 125/1/41 126/4/41 127/5/41
f 135/6/9 134/6/9 133/6/9
f 134/6/9 135/6/9 136/6/9
f 2/7/1 134/6/48 1/7/1
f 134/6/48 2/7/1 133/6/48
f 3/7/49 134/6/49 136/6/49
f 134/6/49 3/7/49 1/7/49
f 135/6/50 3/7/2 136/6/50
f 3/7/2 135/6/50 4/7/2
f 2/7/51 135/6/51 133/6/51
f 135/6/51 2/7/51 4/7/51
f 139/6/9 138/6/9 137/6/9
f 138/6/9 139/6/9 140/6/9
f 6/7/3 138/6/52 5/7/3
f 138/6/52 6/7/3 137/6/52
f 7/7/35 138/6/35 140/6/35
f 138/6/35 7/7/35 5/7/35
f 139/6/53 7/7/4 140/6/53
f 7/7/4 139/6/53 8/7/4
f 6/7/36 139/6/36 137/6/36
f 139/6/36 6/7/36 8/7/36
f 143/6/9 142/6/9 141/6/9
f 142/6/9 143/6/9 144/6/9
f 10/7/3 142/6/52 9/7/3
f 142/6/52 10/7/3 141/6/52
f 11/7/35 142/6/35 144/6/35
f 142/6/35 11/7/35 9/7/35
f 143/6/53 11/7/4 144/6/53
f 11/7/4 143/6/53 12/7/4
f 10/7/36 143/6/36 141/6/36
f 143/6/36 10/7/36 12/7/36
f 147/6/9 146/6/9 145/6/9
f 146/6/9 147/6/9 148/6/9
f 14/7/5 146/6/52 13/7/5
f 146/6/52 14/7/5 145/6/52
f 15/7/35 146/6/35 148/6/35
f 146/6/35 15/7/35 13/7/35
f 147/6/53 15/7/6 148/6/53
f 15/7/6 147/6/53 16/7/6
f 14/7/36 147/6/36 145/6/36
f 147/6/36 14/7/36 16/7/36
f 151/6/9 150/6/9 149/6/9
f 150/6/9 151/6/9 152/6/9
f 18/7/7 149/6/54 17/7/7
f 149/6/54 18/7/7 151/6/54
f 19/7/55 149/6/55 150/6/55
f 149/6/55 19/7/55 17/7/55
f 152/6/56 19/7/8 150/6/56
f 19/7/8 152/6/56 20/7/8
f 18/7/57 152/6/57 151/6/57
f 152/6/57 18/7/57 20/7/57

g structure-platform




usemtl colormap

f 3/1/2 2/1/1 1/1/1
f 2/1/1 3/1/2 4/1/2
f 7/1/4 6/1/3 5/1/3
f 6/1/3 7/1/4 8/1/4
f 11/1/4 10/1/3 9/1/3
f 10/1/3 11/1/4 12/1/4
f 15/1/6 14/1/5 13/1/5
f 14/1/5 15/1/6 16/1/6
f 19/1/8 18/1/7 17/1/7
f 18/1/7 19/1/8 20/1/8
f 23/2/9 22/2/9 21/2/9
f 22/2/9 23/2/9 24/2/9
f 27/4/11 26/3/10 25/3/10
f 26/3/10 27/4/11 28/4/11
f 25/3/13 29/4/12 27/4/12
f 29/4/12 25/3/13 30/3/13
f 32/4/15 30/3/14 31/3/14
f 30/3/14 32/4/15 29/4/15
f 32/4/16 26/3/17 28/4/16
f 26/3/17 32/4/16 31/3/17
f 23/2/18 25/3/13 24/2/18
f 25/3/13 23/2/18 30/3/13
f 25/3/10 22/2/19 24/2/19
f 22/2/19 25/3/10 26/3/10
f 31/3/14 23/2/20 21/2/20
f 23/2/20 31/3/14 30/3/14
f 26/3/17 21/2/21 22/2/21
f 21/2/21 26/3/17 31/3/17
f 27/4/22 32/4/22 28/4/22
f 32/4/22 27/4/22 29/4/22
f 35/2/9 34/2/9 33/2/9
f 34/2/9 35/2/9 36/2/9
f 39/4/11 38/3/10 37/3/10
f 38/3/10 39/4/11 40/4/11
f 37/3/13 41/4/12 39/4/12
f 41/4/12 37/3/13 42/3/13
f 44/4/15 42/3/14 43/3/14
f 42/3/14 44/4/15 41/4/15
f 44/4/16 38/3/17 40/4/16
f 38/3/17 44/4/16 43/3/17
f 35/2/18 37/3/13 36/2/18
f 37/3/13 35/2/18 42/3/13
f 37/3/10 34/2/19 36/2/19
f 34/2/19 37/3/10 38/3/10
f 43/3/14 35/2/20 33/2/20
f 35/2/20 43/3/14 42/3/14
f 38/3/17 33/2/21 34/2/21
f 33/2/21 38/3/17 43/3/17
f 39/4/22 44/4/22 40/4/22
f 44/4/22 39/4/22 41/4/22
f 47/2/9 46/2/9 45/2/9
f 46/2/9 47/2/9 48/2/9
f 51/4/24 50/3/23 49/3/23
f 50/3/23 51/4/24 52/4/24
f 49/3/26 53/4/25 51/4/25
f 53/4/25 49/3/26 54/3/26
f 56/4/28 54/3/27 55/3/27
f 54/3/27 56/4/28 53/4/28
f 56/4/29 50/3/30 52/4/29
f 50/3/30 56/4/29 55/3/30
f 47/2/31 49/3/26 48/2/31
f 49/3/26 47/2/31 54/3/26
f 49/3/23 46/2/32 48/2/32
f 46/2/32 49/3/23 50/3/23
f 55/3/27 47/2/33 45/2/33
f 47/2/33 55/3/27 54/3/27
f 50/3/30 45/2/34 46/2/34
f 45/2/34 50/3/30 55/3/30
f 52/4/22 53/4/22 56/4/22
f 53/4/22 52/4/22 51/4/22
f 59/2/9 58/2/9 57/2/9
f 58/2/9 59/2/9 60/2/9
f 63/4/11 62/3/10 61/3/10
f 62/3/10 63/4/11 64/4/11
f 61/3/13 65/4/12 63/4/12
f 65/4/12 61/3/13 66/3/13
f 68/4/15 66/3/14 67/3/14
f 66/3/14 68/4/15 65/4/15
f 68/4/16 62/3/17 64/4/16
f 62/3/17 68/4/16 67/3/17
f 59/2/18 61/3/13 60/2/18
f 61/3/13 59/2/18 66/3/13
f 61/3/10 58/2/19 60/2/19
f 58/2/19 61/3/10 62/3/10
f 67/3/14 59/2/20 57/2/20
f 59/2/20 67/3/14 66/3/14
f 62/3/17 57/2/21 58/2/21
f 57/2/21 62/3/17 67/3/17
f 63/4/22 68/4/22 64/4/22
f 68/4/22 63/4/22 65/4/22
f 71/5/35 70/4/35 69/1/35
f 70/4/35 71/5/35 72/4/35
f 75/4/36 74/5/36 73/1/36
f 74/5/36 75/4/36 76/4/36
f 74/5/37 72/4/37 71/5/37
f 72/4/37 74/5/37 76/4/37
f 75/4/38 69/1/38 70/4/38
f 69/1/38 75/4/38 73/1/38
f 72/4/22 75/4/22 70/4/22
f 75/4/22 72/4/22 76/4/22
f 84/4/22 80/4/22 83/4/22
f 78/4/22 83/4/22 80/4/22
f 81/1/40 83/4/40 77/1/40
f 78/4/40 77/1/40 83/4/40
f 84/4/39 82/5/39 80/4/39
f 79/5/39 80/4/39 82/5/39
f 84/4/36 83/4/36 82/5/36
f 81/1/36 82/5/36 83/4/36
f 80/4/35 79/5/35 78/4/35
f 77/1/35 78/4/35 79/5/35
f 92/4/22 88/4/22 91/4/22
f 86/4/22 91/4/22 88/4/22
f 89/1/40 91/4/40 85/1/40
f 86/4/40 85/1/40 91/4/40
f 92/4/39 90/5/39 88/4/39
f 87/5/39 88/4/39 90/5/39
f 92/4/36 91/4/36 90/5/36
f 89/1/36 90/5/36 91/4/36
f 88/4/35 87/5/35 86/4/35
f 85/1/35 86/4/35 87/5/35
f 95/5/35 94/4/35 93/1/35
f 94/4/35 95/5/35 96/4/35
f 99/4/36 98/5/36 97/1/36
f 98/5/36 99/4/36 100/4/36
f 98/5/37 96/4/37 95/5/37
f 96/4/37 98/5/37 100/4/37
f 99/4/38 93/1/38 94/4/38
f 93/1/38 99/4/38 97/1/38
f 96/4/22 99/4/22 94/4/22
f 99/4/22 96/4/22 100/4/22
f 103/5/41 102/4/41 101/1/41
f 102/4/41 103/5/41 104/4/41
f 107/4/42 106/5/42 105/1/42
f 106/5/42 107/4/42 108/4/42
f 106/5/43 104/4/43 103/5/43
f 104/4/43 106/5/43 108/4/43
f 107/4/44 101/1/44 102/4/44
f 101/1/44 107/4/44 105/1/44
f 102/4/45 108/4/45 107/4/45
f 108/4/45 102/4/45 104/4/45
f 116/4/45 112/4/45 115/4/45
f 110/4/45 115/4/45 112/4/45
f 113/1/47 115/4/47 109/1/47
f 110/4/47 109/1/47 115/4/47
f 116/4/46 114/5/46 112/4/46
f 111/5/46 112/4/46 114/5/46
f 116/4/42 115/4/42 114/5/42
f 113/1/42 114/5/42 115/4/42
f 112/4/41 111/5/41 110/4/41
f 109/1/41 110/4/41 111/5/41
f 119/5/41 118/4/41 117/1/41
f 118/4/41 119/5/41 120/4/41
f 123/4/42 122/5/42 121/1/42
f 122/5/42 123/4/42 124/4/42
f 119/5/43 124/4/43 120/4/43
f 124/4/43 119/5/43 122/5/43
f 123/4/44 117/1/44 118/4/44
f 117/1/44 123/4/44 121/1/44
f 120/4/45 123/4/45 118/4/45
f 123/4/45 120/4/45 124/4/45
f 132/4/45 128/4/45 131/4/45
f 126/4/45 131/4/45 128/4/45
f 129/1/47 131/4/47 125/1/47
f 126/4/47 125/1/47 131/4/47
f 132/4/46 130/5/46 128/4/46
f 127/5/46 128/4/46 130/5/46
f 132/4/42 131/4/42 130/5/42
f 129/1/42 130/5/42 131/4/42
f 128/4/41 127/5/41 126/4/41
f 125/1/41 126/4/41 127/5/41
f 135/6/9 134/6/9 133/6/9
f 134/6/9 135/6/9 136/6/9
f 2/7/1 134/6/48 1/7/1
f 134/6/48 2/7/1 133/6/48
f 3/7/49 134/6/49 136/6/49
f 134/6/49 3/7/49 1/7/49
f 135/6/50 3/7/2 136/6/50
f 3/7/2 135/6/50 4/7/2
f 2/7/51 135/6/51 133/6/51
f 135/6/51 2/7/51 4/7/51
f 139/6/9 138/6/9 137/6/9
f 138/6/9 139/6/9 140/6/9
f 6/7/3 138/6/52 5/7/3
f 138/6/52 6/7/3 137/6/52
f 7/7/35 138/6/35 140/6/35
f 138/6/35 7/7/35 5/7/35
f 139/6/53 7/7/4 140/6/53
f 7/7/4 139/6/53 8/7/4
f 6/7/36 139/6/36 137/6/36
f 139/6/36 6/7/36 8/7/36
f 143/6/9 142/6/9 141/6/9
f 142/6/9 143/6/9 144/6/9
f 10/7/3 142/6/52 9/7/3
f 142/6/52 10/7/3 141/6/52
f 11/7/35 142/6/35 144/6/35
f 142/6/35 11/7/35 9/7/35
f 143/6/53 11/7/4 144/6/53
f 11/7/4 143/6/53 12/7/4
f 10/7/36 143/6/36 141/6/36
f 143/6/36 10/7/36 12/7/36
f 147/6/9 146/6/9 145/6/9
f 146/6/9 147/6/9 148/6/9
f 14/7/5 146/6/52 13/7/5
f 146/6/52 14/7/5 145/6/52
f 15/7/35 146/6/35 148/6/35
f 146/6/35 15/7/35 13/7/35
f 147/6/53 15/7/6 148/6/53
f 15/7/6 147/6/53 16/7/6
f 14/7/36 147/6/36 145/6/36
f 147/6/36 14/7/36 16/7/36
f 151/6/9 150/6/9 149/6/9
f 150/6/9 151/6/9 152/6/9
f 18/7/7 149/6/54 17/7/7
f 149/6/54 18/7/7 151/6/54
f 19/7/55 149/6/55 150/6/55
f 149/6/55 19/7/55 17/7/55
f 152/6/56 19/7/8 150/6/56
f 19/7/8 152/6/56 20/7/8
f 18/7/57 152/6/57 151/6/57
f 152/6/57 18/7/57 20/7/57

