# Created by Kenney (www.kenney.nl)

mtllib tool-paddle.mtl

g tool-paddle

v -0.299014 0.234048 -0.1037656 1 1 1
v -0.299014 0.234048 0.1037656 1 1 1
v -0.2242605 0.05851199 -0.1037656 1 1 1
v -0.2242605 0.05851199 0.1037656 1 1 1
v 0.2189154 0.758844 -0.1037656 1 1 1
v 0.2189154 0.758844 0.1037656 1 1 1
v -0.2189154 0.758844 -0.1037656 1 1 1
v -0.2189154 0.758844 0.1037656 1 1 1
v 0.299014 0.234048 -0.1037656 1 1 1
v 0.2242605 0.05851199 -0.1037656 1 1 1
v 0.299014 0.234048 0.1037656 1 1 1
v 0.2242605 0.05851199 0.1037656 1 1 1
v 0 1.354035E-13 0.1037656 1 1 1
v 0 0 -0.1037656 1 1 1
v 0.3289154 0.658844 -0.1037656 1 1 1
v 0.3289154 0.658844 0.1037656 1 1 1
v -0.3289154 0.658844 -0.1037656 1 1 1
v -0.3289154 0.658844 0.1037656 1 1 1
v 0.085 0.758844 -5.342145E-13 1 1 1
v 0.06010408 0.758844 -0.06010408 1 1 1
v 0.06010408 0.758844 0.06010408 1 1 1
v 1.443823E-15 0.758844 0.085 1 1 1
v 1.443823E-15 0.758844 -0.085 1 1 1
v -0.06010408 0.758844 0.06010408 1 1 1
v -0.06010408 0.758844 -0.06010408 1 1 1
v -0.085 0.758844 -5.342145E-13 1 1 1
v 0 2.349127 -0.1 1 1 1
v 0.07071068 2.349127 -0.07071068 1 1 1
v 0.1 2.349127 -1.244575E-12 1 1 1
v 0.07071068 2.349127 0.07071068 1 1 1
v -0.07071068 2.349127 0.07071068 1 1 1
v 0 2.349127 0.1 1 1 1
v -0.07071068 2.349127 -0.07071068 1 1 1
v -0.1 2.349127 -1.244575E-12 1 1 1

vn -0.972179 -0.2342392 0
vn -0.6531295 -0.7572463 0
vn 0.3605967 0.9327218 0
vn -0.3605967 0.9327218 0
vn 0.972179 -0.2342392 0
vn 0.6531295 -0.7572463 0
vn 0 -1 0
vn 0.9281617 0.3721772 0
vn 0 0 -1
vn -0.9281617 0.3721772 0
vn 0 0 1
vn 0 -0.009431866 -0.9999555
vn 0.7070753 -0.009431865 -0.7070753
vn 0.9999555 -0.009431866 0
vn 0.7070753 -0.009431865 0.7070753
vn -0.7070753 -0.009431865 0.7070753
vn 0 -0.009431866 0.9999555
vn -0.7070753 -0.009431865 -0.7070753
vn -0.9999555 -0.009431866 0
vn 0 1 0

vt 0.84375 0.0866854
vt 0.84375 0.04042135
vt 0.84375 0.225
vt 0.84375 0.025
vt 0.84375 0.1986441
vt 0.84375 0.075
vt 0.84375 0.175

usemtl colormap

f 3/2/2 2/1/1 1/1/1
f 2/1/1 3/2/2 4/2/2
f 7/3/4 6/3/3 5/3/3
f 6/3/3 7/3/4 8/3/4
f 11/1/5 10/2/6 9/1/5
f 10/2/6 11/1/5 12/2/6
f 4/2/2 14/4/7 13/4/7
f 14/4/7 4/2/2 3/2/2
f 13/4/7 10/2/6 12/2/6
f 10/2/6 13/4/7 14/4/7
f 5/3/3 16/5/8 15/5/8
f 16/5/8 5/3/3 6/3/3
f 3/2/9 10/2/9 14/4/9
f 10/2/9 3/2/9 1/1/9
f 10/2/9 1/1/9 9/1/9
f 9/1/9 1/1/9 17/5/9
f 9/1/9 17/5/9 15/5/9
f 15/5/9 17/5/9 7/3/9
f 15/5/9 7/3/9 5/3/9
f 16/5/8 9/1/5 15/5/8
f 9/1/5 16/5/8 11/1/5
f 17/5/10 8/3/4 7/3/4
f 8/3/4 17/5/10 18/5/10
f 12/2/11 4/2/11 13/4/11
f 4/2/11 12/2/11 11/1/11
f 4/2/11 11/1/11 2/1/11
f 2/1/11 11/1/11 16/5/11
f 2/1/11 16/5/11 18/5/11
f 18/5/11 16/5/11 6/3/11
f 18/5/11 6/3/11 8/3/11
f 1/1/1 18/5/10 17/5/10
f 18/5/10 1/1/1 2/1/1
f 21/6/7 20/6/7 19/6/7
f 20/6/7 21/6/7 22/6/7
f 20/6/7 22/6/7 23/6/7
f 23/6/7 22/6/7 24/6/7
f 23/6/7 24/6/7 25/6/7
f 25/6/7 24/6/7 26/6/7
f 27/7/12 20/6/13 23/6/12
f 20/6/13 27/7/12 28/7/13
f 30/7/15 19/6/14 29/7/14
f 19/6/14 30/7/15 21/6/15
f 22/6/17 31/7/16 24/6/16
f 31/7/16 22/6/17 32/7/17
f 29/7/14 20/6/13 28/7/13
f 20/6/13 29/7/14 19/6/14
f 25/6/18 27/7/12 23/6/12
f 27/7/12 25/6/18 33/7/18
f 30/7/15 22/6/17 21/6/15
f 22/6/17 30/7/15 32/7/17
f 25/6/18 34/7/19 33/7/18
f 34/7/19 25/6/18 26/6/19
f 26/6/19 31/7/16 34/7/19
f 31/7/16 26/6/19 24/6/16
f 28/7/20 30/7/20 29/7/20
f 30/7/20 28/7/20 27/7/20
f 30/7/20 27/7/20 32/7/20
f 32/7/20 27/7/20 33/7/20
f 32/7/20 33/7/20 31/7/20
f 31/7/20 33/7/20 34/7/20

g tool-paddle




usemtl colormap

f 3/2/2 2/1/1 1/1/1
f 2/1/1 3/2/2 4/2/2
f 7/3/4 6/3/3 5/3/3
f 6/3/3 7/3/4 8/3/4
f 11/1/5 10/2/6 9/1/5
f 10/2/6 11/1/5 12/2/6
f 4/2/2 14/4/7 13/4/7
f 14/4/7 4/2/2 3/2/2
f 13/4/7 10/2/6 12/2/6
f 10/2/6 13/4/7 14/4/7
f 5/3/3 16/5/8 15/5/8
f 16/5/8 5/3/3 6/3/3
f 3/2/9 10/2/9 14/4/9
f 10/2/9 3/2/9 1/1/9
f 10/2/9 1/1/9 9/1/9
f 9/1/9 1/1/9 17/5/9
f 9/1/9 17/5/9 15/5/9
f 15/5/9 17/5/9 7/3/9
f 15/5/9 7/3/9 5/3/9
f 16/5/8 9/1/5 15/5/8
f 9/1/5 16/5/8 11/1/5
f 17/5/10 8/3/4 7/3/4
f 8/3/4 17/5/10 18/5/10
f 12/2/11 4/2/11 13/4/11
f 4/2/11 12/2/11 11/1/11
f 4/2/11 11/1/11 2/1/11
f 2/1/11 11/1/11 16/5/11
f 2/1/11 16/5/11 18/5/11
f 18/5/11 16/5/11 6/3/11
f 18/5/11 6/3/11 8/3/11
f 1/1/1 18/5/10 17/5/10
f 18/5/10 1/1/1 2/1/1
f 21/6/7 20/6/7 19/6/7
f 20/6/7 21/6/7 22/6/7
f 20/6/7 22/6/7 23/6/7
f 23/6/7 22/6/7 24/6/7
f 23/6/7 24/6/7 25/6/7
f 25/6/7 24/6/7 26/6/7
f 27/7/12 20/6/13 23/6/12
f 20/6/13 27/7/12 28/7/13
f 30/7/15 19/6/14 29/7/14
f 19/6/14 30/7/15 21/6/15
f 22/6/17 31/7/16 24/6/16
f 31/7/16 22/6/17 32/7/17
f 29/7/14 20/6/13 28/7/13
f 20/6/13 29/7/14 19/6/14
f 25/6/18 27/7/12 23/6/12
f 27/7/12 25/6/18 33/7/18
f 30/7/15 22/6/17 21/6/15
f 22/6/17 30/7/15 32/7/17
f 25/6/18 34/7/19 33/7/18
f 34/7/19 25/6/18 26/6/19
f 26/6/19 31/7/16 34/7/19
f 31/7/16 26/6/19 24/6/16
f 28/7/20 30/7/20 29/7/20
f 30/7/20 28/7/20 27/7/20
f 30/7/20 27/7/20 32/7/20
f 32/7/20 27/7/20 33/7/20
f 32/7/20 33/7/20 31/7/20
f 31/7/20 33/7/20 34/7/20

