# Created by Kenney (www.kenney.nl)

mtllib tower-middle-windows.mtl

g tower-middle-windows

v 0.6130589 1.090918 0.9358193 1 1 1
v 0.6130589 0.5 0.9358193 1 1 1
v 0.6130589 1.090918 1.535819 1 1 1
v 0.6130589 0.5 1.535819 1 1 1
v 0.4334981 1.521604 0.9358193 1 1 1
v 0.4334981 1.521604 1.535819 1 1 1
v 0 1.7 0.9358193 1 1 1
v 0 1.7 1.535819 1 1 1
v -0.6130589 1.090918 0.9358193 1 1 1
v -0.4334981 1.521604 0.9358193 1 1 1
v -0.6130589 1.090918 1.535819 1 1 1
v -0.4334981 1.521604 1.535819 1 1 1
v -0.6130589 0.5 0.9358193 1 1 1
v -0.6130589 0.5 1.535819 1 1 1
v -0.3664816 1.041575 1.435819 1 1 1
v -0.3664816 0.7465773 1.435819 1 1 1
v -0.3664816 1.041575 1.535819 1 1 1
v -0.3664816 0.7465773 1.535819 1 1 1
v 0.3664816 0.7465773 1.435819 1 1 1
v 0.3664816 0.7465773 1.535819 1 1 1
v 0.3664816 1.041575 1.435819 1 1 1
v 0.3664816 1.041575 1.535819 1 1 1
v 0.2452112 1.332449 1.435819 1 1 1
v 0.2452112 1.332449 1.535819 1 1 1
v 0 1.43336 1.535819 1 1 1
v 0 1.43336 1.435819 1 1 1
v -0.2452112 1.332449 1.535819 1 1 1
v -0.2452112 1.332449 1.435819 1 1 1
v -0.6130589 1.090918 -0.9358193 1 1 1
v -0.6130589 0.5 -0.9358193 1 1 1
v -0.6130589 1.090918 -1.535819 1 1 1
v -0.6130589 0.5 -1.535819 1 1 1
v -0.4334981 1.521604 -0.9358193 1 1 1
v -0.4334981 1.521604 -1.535819 1 1 1
v -2.367869E-13 1.7 -0.9358193 1 1 1
v -2.977465E-13 1.7 -1.535819 1 1 1
v 0.6130589 1.090918 -0.9358193 1 1 1
v 0.4334981 1.521604 -0.9358193 1 1 1
v 0.6130589 1.090918 -1.535819 1 1 1
v 0.4334981 1.521604 -1.535819 1 1 1
v 0.6130589 0.5 -0.9358193 1 1 1
v 0.6130589 0.5 -1.535819 1 1 1
v 0.3664816 1.041575 -1.435819 1 1 1
v 0.3664816 0.7465773 -1.435819 1 1 1
v 0.3664816 1.041575 -1.535819 1 1 1
v 0.3664816 0.7465773 -1.535819 1 1 1
v -0.3664816 0.7465773 -1.435819 1 1 1
v -0.3664816 0.7465773 -1.535819 1 1 1
v -0.3664816 1.041575 -1.435819 1 1 1
v -0.3664816 1.041575 -1.535819 1 1 1
v -0.2452112 1.332449 -1.435819 1 1 1
v -0.2452112 1.332449 -1.535819 1 1 1
v -2.977465E-13 1.43336 -1.535819 1 1 1
v -2.875866E-13 1.43336 -1.435819 1 1 1
v 0.2452112 1.332449 -1.535819 1 1 1
v 0.2452112 1.332449 -1.435819 1 1 1
v 1.182701 1.734915 0.7771438 1 1 1
v 1.253411 1.734915 0.8478544 1 1 1
v 0.9101745 1.734915 1.04967 1 1 1
v 0.9808852 1.734915 1.120381 1 1 1
v 0.9455299 1.484915 1.155736 1 1 1
v 0.8748192 1.484915 1.085025 1 1 1
v 0.9455299 1.684915 1.155736 1 1 1
v 0.8748192 1.684915 1.085025 1 1 1
v 1.218056 1.484915 0.7417884 1 1 1
v 1.288767 1.484915 0.8124991 1 1 1
v 1.218056 1.684915 0.7417884 1 1 1
v 1.288767 1.684915 0.8124991 1 1 1
v 1.182701 1.434915 0.7771438 1 1 1
v 0.9101745 1.434915 1.04967 1 1 1
v 1.253411 1.434915 0.8478545 1 1 1
v 0.9808852 1.434915 1.120381 1 1 1
v -0.9909581 1.565391 0.9688864 1 1 1
v -1.061669 1.565391 1.039597 1 1 1
v -1.263484 1.565391 0.6963602 1 1 1
v -1.334195 1.565391 0.7670709 1 1 1
v -1.36955 1.315391 0.7317156 1 1 1
v -1.29884 1.315391 0.6610049 1 1 1
v -1.36955 1.515391 0.7317156 1 1 1
v -1.29884 1.515391 0.6610049 1 1 1
v -0.9556028 1.315391 1.004242 1 1 1
v -1.026313 1.315391 1.074952 1 1 1
v -0.9556028 1.515391 1.004242 1 1 1
v -1.026313 1.515391 1.074952 1 1 1
v -0.9909581 1.265391 0.9688864 1 1 1
v -1.263484 1.265391 0.6963602 1 1 1
v -1.061669 1.265391 1.039597 1 1 1
v -1.334195 1.265391 0.7670709 1 1 1
v 1.385819 1.484989 0.04923303 1 1 1
v 1.447819 1.484989 0.04923303 1 1 1
v 1.385819 1.484989 0.2881873 1 1 1
v 1.447819 1.484989 0.2881873 1 1 1
v 1.447819 1.329989 0.3191873 1 1 1
v 1.385819 1.329989 0.3191873 1 1 1
v 1.447819 1.453989 0.3191873 1 1 1
v 1.385819 1.453989 0.3191873 1 1 1
v 1.447819 1.329989 0.01823303 1 1 1
v 1.447819 1.453989 0.01823303 1 1 1
v 1.385819 1.329989 0.01823303 1 1 1
v 1.385819 1.453989 0.01823303 1 1 1
v 1.385819 1.298989 0.2881873 1 1 1
v 1.447819 1.298989 0.2881873 1 1 1
v 1.385819 1.298989 0.04923303 1 1 1
v 1.447819 1.298989 0.04923303 1 1 1
v 0.8767037 0.379406 1.083141 1 1 1
v 0.9205444 0.379406 1.126981 1 1 1
v 0.7077376 0.379406 1.252107 1 1 1
v 0.7515782 0.379406 1.295947 1 1 1
v 0.7296578 0.224406 1.317868 1 1 1
v 0.6858172 0.224406 1.274027 1 1 1
v 0.7296578 0.348406 1.317868 1 1 1
v 0.6858172 0.348406 1.274027 1 1 1
v 0.9424647 0.224406 1.105061 1 1 1
v 0.9424647 0.348406 1.105061 1 1 1
v 0.8986241 0.224406 1.06122 1 1 1
v 0.8986241 0.348406 1.06122 1 1 1
v 0.7077376 0.193406 1.252107 1 1 1
v 0.7515782 0.193406 1.295948 1 1 1
v 0.8767037 0.193406 1.083141 1 1 1
v 0.9205444 0.193406 1.126981 1 1 1
v -0.5740252 2 1.385819 1 1 1
v -0.5740252 0 1.385819 1 1 1
v -1.385819 2 0.5740252 1 1 1
v -1.385819 0 0.5740252 1 1 1
v 0.5740252 0 -1.385819 1 1 1
v 1.385819 0 -0.5740252 1 1 1
v 0.5740252 2 -1.385819 1 1 1
v 1.385819 2 -0.5740252 1 1 1
v -1.385819 0 -0.5740252 1 1 1
v -0.5740252 0 -1.385819 1 1 1
v 0.5740252 0 1.385819 1 1 1
v 1.385819 0 0.5740252 1 1 1
v -1.385819 2 -0.5740252 1 1 1
v -0.5740252 2 -1.385819 1 1 1
v 0.5740252 2 1.385819 1 1 1
v 1.385819 2 0.5740252 1 1 1
v 0.8660554 0.8355086 -1.093789 1 1 1
v 0.9367661 0.8355086 -1.1645 1 1 1
v 1.138582 0.8355086 -0.8212629 1 1 1
v 1.209292 0.8355086 -0.8919736 1 1 1
v 1.244648 0.5855086 -0.8566182 1 1 1
v 1.173937 0.5855086 -0.7859075 1 1 1
v 1.244648 0.7855086 -0.8566182 1 1 1
v 1.173937 0.7855086 -0.7859076 1 1 1
v 0.8307001 0.5855086 -1.129144 1 1 1
v 0.9014108 0.5855086 -1.199855 1 1 1
v 0.8307001 0.7855086 -1.129144 1 1 1
v 0.9014108 0.7855086 -1.199855 1 1 1
v 0.8660554 0.5355086 -1.093789 1 1 1
v 1.138582 0.5355086 -0.8212629 1 1 1
v 0.9367661 0.5355086 -1.1645 1 1 1
v 1.209292 0.5355086 -0.8919736 1 1 1

vn 0.9805597 0.1962212 0
vn 1 0 0
vn 0.7054778 0.7087319 0
vn 0 1 0
vn -0.9805597 0.1962212 0
vn -0.7054778 0.7087319 0
vn -1 0 0
vn 0 0 -1
vn 0 -1 0
vn 0.9805597 -0.1962212 0
vn 0.7071068 0.7071068 0
vn -0.7071068 0.7071068 0
vn -0.9805597 -0.1962212 0
vn -0.7054778 -0.7087319 0
vn 0.7054778 -0.7087319 0
vn 0 0 1
vn -0.9805597 0.1962212 9.962417E-14
vn -1 0 1.015993E-13
vn -0.7054778 0.7087319 7.167604E-14
vn 0.9805597 0.1962212 -9.962417E-14
vn 0.7054778 0.7087319 -7.167604E-14
vn 1 0 -1.015993E-13
vn 1.015993E-13 0 1
vn -0.9805597 -0.1962212 9.962417E-14
vn -0.7071068 0.7071068 7.184154E-14
vn 0.7071068 0.7071068 -7.184154E-14
vn 0.9805597 -0.1962212 -9.962417E-14
vn 0.7054778 -0.7087319 -7.167604E-14
vn -0.7054778 -0.7087319 7.167604E-14
vn -1.015993E-13 0 -1
vn 0.2705981 0.9238796 -0.2705982
vn -0.2705981 0.9238796 0.2705979
vn -0.6532816 -0.3826835 0.6532815
vn -0.6532816 0.3826835 0.6532814
vn 0.6532816 -0.3826835 -0.6532814
vn 0.6532816 0.3826835 -0.6532815
vn 0.2705981 -0.9238796 -0.2705979
vn -0.2705981 -0.9238796 0.2705982
vn -0.7071068 1.192093E-07 -0.7071068
vn 0.7071068 -1.192093E-07 0.7071068
vn 0.2705981 0.9238796 0.2705979
vn -0.2705981 0.9238796 -0.2705982
vn -0.6532816 -0.3826835 -0.6532814
vn -0.6532816 0.3826835 -0.6532815
vn 0.6532816 -0.3826835 0.6532815
vn 0.6532816 0.3826835 0.6532814
vn 0.2705981 -0.9238796 0.2705982
vn -0.2705981 -0.9238796 -0.2705979
vn 0.7071068 1.192093E-07 -0.7071068
vn -0.7071068 -1.192093E-07 0.7071068
vn 0 0.9238795 -0.3826834
vn 0 0.9238795 0.3826834
vn 0 -0.3826834 0.9238795
vn 0 0.3826834 0.9238795
vn 0 -0.3826834 -0.9238795
vn 0 0.3826834 -0.9238795
vn 0 -0.9238795 0.3826834
vn 0 -0.9238795 -0.3826834
vn -0.3826834 0 0.9238795
vn -0.9238795 0 0.3826834
vn 0.3826834 0 -0.9238795
vn 0.9238795 0 -0.3826834
vn 0.3826834 0 0.9238795
vn -0.9238795 0 -0.3826834
vn -0.3826834 0 -0.9238795
vn 0.9238795 0 0.3826834
vn -0.270598 0.9238796 -0.2705982
vn 0.270598 0.9238796 0.2705979
vn 0.6532814 -0.3826835 0.6532815
vn 0.6532814 0.3826835 0.6532814
vn -0.6532814 -0.3826835 -0.6532814
vn -0.6532814 0.3826835 -0.6532815
vn -0.270598 -0.9238796 -0.2705979
vn 0.270598 -0.9238796 0.2705982
vn -0.7071068 1.192093E-07 0.7071068
vn 0.7071068 -1.192093E-07 -0.7071068

vt 0.34375 0.1488648
vt 0.34375 0.075
vt 0.34375 0.2027005
vt 0.34375 0.225
vt 0.34375 0.1426969
vt 0.34375 0.1058222
vt 0.34375 0.1790561
vt 0.34375 0.1916699
vt 0.46875 0.1058222
vt 0.46875 0.1426969
vt 0.46875 0.1790561
vt 0.46875 0.1916699
vt 0.59375 0.075
vt 0.59375 0.175

usemtl colormap

f 3/1/1 2/2/2 1/1/1
f 2/2/2 3/1/1 4/2/2
f 6/3/3 1/1/1 5/3/3
f 1/1/1 6/3/3 3/1/1
f 7/4/4 6/3/3 5/3/3
f 6/3/3 7/4/4 8/4/4
f 11/1/5 10/3/6 9/1/5
f 10/3/6 11/1/5 12/3/6
f 10/3/6 8/4/4 7/4/4
f 8/4/4 10/3/6 12/3/6
f 14/2/7 9/1/5 13/2/7
f 9/1/5 14/2/7 11/1/5
f 9/1/8 2/2/8 13/2/8
f 2/2/8 9/1/8 1/1/8
f 1/1/8 9/1/8 5/3/8
f 5/3/8 9/1/8 10/3/8
f 5/3/8 10/3/8 7/4/8
f 14/2/9 2/2/9 4/2/9
f 2/2/9 14/2/9 13/2/9
f 17/5/10 16/6/11 15/5/10
f 16/6/11 17/5/10 18/6/11
f 16/6/11 20/6/12 19/6/12
f 20/6/12 16/6/11 18/6/11
f 20/6/12 21/5/13 19/6/12
f 21/5/13 20/6/12 22/5/13
f 22/5/13 23/7/14 21/5/13
f 23/7/14 22/5/13 24/7/14
f 25/8/9 23/7/14 24/7/14
f 23/7/14 25/8/9 26/8/9
f 27/7/15 26/8/9 25/8/9
f 26/8/9 27/7/15 28/7/15
f 27/7/15 15/5/10 28/7/15
f 15/5/10 27/7/15 17/5/10
f 12/3/16 6/3/16 8/4/16
f 12/3/16 25/8/16 6/3/16
f 24/7/16 6/3/16 25/8/16
f 12/3/16 27/7/16 25/8/16
f 24/7/16 3/1/16 6/3/16
f 22/5/16 3/1/16 24/7/16
f 11/1/16 27/7/16 12/3/16
f 11/1/16 17/5/16 27/7/16
f 11/1/16 18/6/16 17/5/16
f 14/2/16 18/6/16 11/1/16
f 20/6/16 3/1/16 22/5/16
f 18/6/16 14/2/16 20/6/16
f 20/6/16 4/2/16 3/1/16
f 4/2/16 20/6/16 14/2/16
f 31/1/17 30/2/18 29/1/17
f 30/2/18 31/1/17 32/2/18
f 34/3/19 29/1/17 33/3/19
f 29/1/17 34/3/19 31/1/17
f 35/4/4 34/3/19 33/3/19
f 34/3/19 35/4/4 36/4/4
f 39/1/20 38/3/21 37/1/20
f 38/3/21 39/1/20 40/3/21
f 38/3/21 36/4/4 35/4/4
f 36/4/4 38/3/21 40/3/21
f 42/2/22 37/1/20 41/2/22
f 37/1/20 42/2/22 39/1/20
f 37/1/23 30/2/23 41/2/23
f 30/2/23 37/1/23 29/1/23
f 29/1/23 37/1/23 33/3/23
f 33/3/23 37/1/23 38/3/23
f 33/3/23 38/3/23 35/4/23
f 42/2/9 30/2/9 32/2/9
f 30/2/9 42/2/9 41/2/9
f 45/5/24 44/6/25 43/5/24
f 44/6/25 45/5/24 46/6/25
f 44/6/25 48/6/26 47/6/26
f 48/6/26 44/6/25 46/6/25
f 48/6/26 49/5/27 47/6/26
f 49/5/27 48/6/26 50/5/27
f 50/5/27 51/7/28 49/5/27
f 51/7/28 50/5/27 52/7/28
f 53/8/9 51/7/28 52/7/28
f 51/7/28 53/8/9 54/8/9
f 55/7/29 54/8/9 53/8/9
f 54/8/9 55/7/29 56/7/29
f 55/7/29 43/5/24 56/7/29
f 43/5/24 55/7/29 45/5/24
f 40/3/30 34/3/30 36/4/30
f 40/3/30 53/8/30 34/3/30
f 52/7/30 34/3/30 53/8/30
f 40/3/30 55/7/30 53/8/30
f 52/7/30 31/1/30 34/3/30
f 50/5/30 31/1/30 52/7/30
f 39/1/30 55/7/30 40/3/30
f 39/1/30 45/5/30 55/7/30
f 39/1/30 46/6/30 45/5/30
f 42/2/30 46/6/30 39/1/30
f 48/6/30 31/1/30 50/5/30
f 46/6/30 42/2/30 48/6/30
f 48/6/30 32/2/30 31/1/30
f 32/2/30 48/6/30 42/2/30
f 21/10/16 16/9/16 19/9/16
f 16/9/16 21/10/16 15/10/16
f 15/10/16 21/10/16 23/11/16
f 15/10/16 23/11/16 28/11/16
f 28/11/16 23/11/16 26/12/16
f 49/10/30 44/9/30 47/9/30
f 44/9/30 49/10/30 43/10/30
f 43/10/30 49/10/30 51/11/30
f 43/10/30 51/11/30 56/11/30
f 56/11/30 51/11/30 54/12/30
f 59/13/32 58/14/31 57/13/31
f 58/14/31 59/13/32 60/14/32
f 63/14/34 62/13/33 61/14/33
f 62/13/33 63/14/34 64/13/34
f 67/13/36 66/14/35 65/13/35
f 66/14/35 67/13/36 68/14/36
f 71/14/37 70/13/38 69/13/37
f 70/13/38 71/14/37 72/14/38
f 57/13/31 68/14/36 67/13/36
f 68/14/36 57/13/31 58/14/31
f 60/14/32 64/13/34 63/14/34
f 64/13/34 60/14/32 59/13/32
f 65/13/35 71/14/37 69/13/37
f 71/14/37 65/13/35 66/14/35
f 61/14/33 70/13/38 72/14/38
f 70/13/38 61/14/33 62/13/33
f 59/13/39 62/13/39 64/13/39
f 62/13/39 59/13/39 70/13/39
f 70/13/39 59/13/39 57/13/39
f 70/13/39 57/13/39 69/13/39
f 69/13/39 57/13/39 65/13/39
f 65/13/39 57/13/39 67/13/39
f 72/14/40 63/14/40 61/14/40
f 63/14/40 72/14/40 60/14/40
f 60/14/40 72/14/40 71/14/40
f 60/14/40 71/14/40 58/14/40
f 58/14/40 71/14/40 66/14/40
f 58/14/40 66/14/40 68/14/40
f 75/13/42 74/14/41 73/13/41
f 74/14/41 75/13/42 76/14/42
f 79/14/44 78/13/43 77/14/43
f 78/13/43 79/14/44 80/13/44
f 83/13/46 82/14/45 81/13/45
f 82/14/45 83/13/46 84/14/46
f 87/14/47 86/13/48 85/13/47
f 86/13/48 87/14/47 88/14/48
f 73/13/41 84/14/46 83/13/46
f 84/14/46 73/13/41 74/14/41
f 76/14/42 80/13/44 79/14/44
f 80/13/44 76/14/42 75/13/42
f 81/13/45 87/14/47 85/13/47
f 87/14/47 81/13/45 82/14/45
f 77/14/43 86/13/48 88/14/48
f 86/13/48 77/14/43 78/13/43
f 75/13/49 78/13/49 80/13/49
f 78/13/49 75/13/49 86/13/49
f 86/13/49 75/13/49 73/13/49
f 86/13/49 73/13/49 85/13/49
f 85/13/49 73/13/49 81/13/49
f 81/13/49 73/13/49 83/13/49
f 88/14/50 79/14/50 77/14/50
f 79/14/50 88/14/50 76/14/50
f 76/14/50 88/14/50 87/14/50
f 76/14/50 87/14/50 74/14/50
f 74/14/50 87/14/50 82/14/50
f 74/14/50 82/14/50 84/14/50
f 91/13/52 90/14/51 89/13/51
f 90/14/51 91/13/52 92/14/52
f 95/14/54 94/13/53 93/14/53
f 94/13/53 95/14/54 96/13/54
f 99/13/55 98/14/56 97/14/55
f 98/14/56 99/13/55 100/13/56
f 103/13/58 102/14/57 101/13/57
f 102/14/57 103/13/58 104/14/58
f 100/13/56 90/14/51 98/14/56
f 90/14/51 100/13/56 89/13/51
f 92/14/52 96/13/54 95/14/54
f 96/13/54 92/14/52 91/13/52
f 97/14/55 103/13/58 99/13/55
f 103/13/58 97/14/55 104/14/58
f 93/14/53 101/13/57 102/14/57
f 101/13/57 93/14/53 94/13/53
f 96/13/7 101/13/7 94/13/7
f 101/13/7 96/13/7 91/13/7
f 101/13/7 91/13/7 103/13/7
f 103/13/7 91/13/7 89/13/7
f 103/13/7 89/13/7 100/13/7
f 103/13/7 100/13/7 99/13/7
f 102/14/2 95/14/2 93/14/2
f 95/14/2 102/14/2 92/14/2
f 92/14/2 102/14/2 90/14/2
f 90/14/2 102/14/2 104/14/2
f 90/14/2 104/14/2 97/14/2
f 90/14/2 97/14/2 98/14/2
f 107/13/32 106/14/31 105/13/31
f 106/14/31 107/13/32 108/14/32
f 111/14/34 110/13/33 109/14/33
f 110/13/33 111/14/34 112/13/34
f 115/13/35 114/14/36 113/14/35
f 114/14/36 115/13/35 116/13/36
f 119/13/37 118/14/38 117/13/38
f 118/14/38 119/13/37 120/14/37
f 116/13/36 106/14/31 114/14/36
f 106/14/31 116/13/36 105/13/31
f 108/14/32 112/13/34 111/14/34
f 112/13/34 108/14/32 107/13/32
f 113/14/35 119/13/37 115/13/35
f 119/13/37 113/14/35 120/14/37
f 109/14/33 117/13/38 118/14/38
f 117/13/38 109/14/33 110/13/33
f 112/13/39 117/13/39 110/13/39
f 117/13/39 112/13/39 107/13/39
f 117/13/39 107/13/39 119/13/39
f 119/13/39 107/13/39 105/13/39
f 119/13/39 105/13/39 116/13/39
f 119/13/39 116/13/39 115/13/39
f 118/14/40 111/14/40 109/14/40
f 111/14/40 118/14/40 108/14/40
f 108/14/40 118/14/40 106/14/40
f 106/14/40 118/14/40 120/14/40
f 106/14/40 120/14/40 113/14/40
f 106/14/40 113/14/40 114/14/40
f 123/14/60 122/13/59 121/14/59
f 122/13/59 123/14/60 124/13/60
f 127/14/61 126/13/62 125/13/61
f 126/13/62 127/14/61 128/14/62
f 130/13/9 124/13/9 129/13/9
f 124/13/9 130/13/9 122/13/9
f 122/13/9 130/13/9 125/13/9
f 122/13/9 125/13/9 131/13/9
f 131/13/9 125/13/9 126/13/9
f 131/13/9 126/13/9 132/13/9
f 121/14/4 133/14/4 123/14/4
f 133/14/4 121/14/4 134/14/4
f 134/14/4 121/14/4 135/14/4
f 134/14/4 135/14/4 127/14/4
f 127/14/4 135/14/4 136/14/4
f 127/14/4 136/14/4 128/14/4
f 135/14/63 122/13/59 131/13/63
f 122/13/59 135/14/63 121/14/59
f 133/14/64 124/13/60 123/14/60
f 124/13/60 133/14/64 129/13/64
f 133/14/64 130/13/65 129/13/64
f 130/13/65 133/14/64 134/14/65
f 132/13/66 135/14/63 131/13/63
f 135/14/63 132/13/66 136/14/66
f 134/14/65 125/13/61 130/13/65
f 125/13/61 134/14/65 127/14/61
f 126/13/62 136/14/66 132/13/66
f 136/14/66 126/13/62 128/14/62
f 139/13/68 138/14/67 137/13/67
f 138/14/67 139/13/68 140/14/68
f 143/14/70 142/13/69 141/14/69
f 142/13/69 143/14/70 144/13/70
f 147/13/72 146/14/71 145/13/71
f 146/14/71 147/13/72 148/14/72
f 151/14/73 150/13/74 149/13/73
f 150/13/74 151/14/73 152/14/74
f 137/13/67 148/14/72 147/13/72
f 148/14/72 137/13/67 138/14/67
f 140/14/68 144/13/70 143/14/70
f 144/13/70 140/14/68 139/13/68
f 145/13/71 151/14/73 149/13/73
f 151/14/73 145/13/71 146/14/71
f 141/14/69 150/13/74 152/14/74
f 150/13/74 141/14/69 142/13/69
f 139/13/75 142/13/75 144/13/75
f 142/13/75 139/13/75 150/13/75
f 150/13/75 139/13/75 137/13/75
f 150/13/75 137/13/75 149/13/75
f 149/13/75 137/13/75 145/13/75
f 145/13/75 137/13/75 147/13/75
f 152/14/76 143/14/76 141/14/76
f 143/14/76 152/14/76 140/14/76
f 140/14/76 152/14/76 151/14/76
f 140/14/76 151/14/76 138/14/76
f 138/14/76 151/14/76 146/14/76
f 138/14/76 146/14/76 148/14/76

g tower-middle-windows




usemtl colormap

f 3/1/1 2/2/2 1/1/1
f 2/2/2 3/1/1 4/2/2
f 6/3/3 1/1/1 5/3/3
f 1/1/1 6/3/3 3/1/1
f 7/4/4 6/3/3 5/3/3
f 6/3/3 7/4/4 8/4/4
f 11/1/5 10/3/6 9/1/5
f 10/3/6 11/1/5 12/3/6
f 10/3/6 8/4/4 7/4/4
f 8/4/4 10/3/6 12/3/6
f 14/2/7 9/1/5 13/2/7
f 9/1/5 14/2/7 11/1/5
f 9/1/8 2/2/8 13/2/8
f 2/2/8 9/1/8 1/1/8
f 1/1/8 9/1/8 5/3/8
f 5/3/8 9/1/8 10/3/8
f 5/3/8 10/3/8 7/4/8
f 14/2/9 2/2/9 4/2/9
f 2/2/9 14/2/9 13/2/9
f 17/5/10 16/6/11 15/5/10
f 16/6/11 17/5/10 18/6/11
f 16/6/11 20/6/12 19/6/12
f 20/6/12 16/6/11 18/6/11
f 20/6/12 21/5/13 19/6/12
f 21/5/13 20/6/12 22/5/13
f 22/5/13 23/7/14 21/5/13
f 23/7/14 22/5/13 24/7/14
f 25/8/9 23/7/14 24/7/14
f 23/7/14 25/8/9 26/8/9
f 27/7/15 26/8/9 25/8/9
f 26/8/9 27/7/15 28/7/15
f 27/7/15 15/5/10 28/7/15
f 15/5/10 27/7/15 17/5/10
f 12/3/16 6/3/16 8/4/16
f 12/3/16 25/8/16 6/3/16
f 24/7/16 6/3/16 25/8/16
f 12/3/16 27/7/16 25/8/16
f 24/7/16 3/1/16 6/3/16
f 22/5/16 3/1/16 24/7/16
f 11/1/16 27/7/16 12/3/16
f 11/1/16 17/5/16 27/7/16
f 11/1/16 18/6/16 17/5/16
f 14/2/16 18/6/16 11/1/16
f 20/6/16 3/1/16 22/5/16
f 18/6/16 14/2/16 20/6/16
f 20/6/16 4/2/16 3/1/16
f 4/2/16 20/6/16 14/2/16
f 31/1/17 30/2/18 29/1/17
f 30/2/18 31/1/17 32/2/18
f 34/3/19 29/1/17 33/3/19
f 29/1/17 34/3/19 31/1/17
f 35/4/4 34/3/19 33/3/19
f 34/3/19 35/4/4 36/4/4
f 39/1/20 38/3/21 37/1/20
f 38/3/21 39/1/20 40/3/21
f 38/3/21 36/4/4 35/4/4
f 36/4/4 38/3/21 40/3/21
f 42/2/22 37/1/20 41/2/22
f 37/1/20 42/2/22 39/1/20
f 37/1/23 30/2/23 41/2/23
f 30/2/23 37/1/23 29/1/23
f 29/1/23 37/1/23 33/3/23
f 33/3/23 37/1/23 38/3/23
f 33/3/23 38/3/23 35/4/23
f 42/2/9 30/2/9 32/2/9
f 30/2/9 42/2/9 41/2/9
f 45/5/24 44/6/25 43/5/24
f 44/6/25 45/5/24 46/6/25
f 44/6/25 48/6/26 47/6/26
f 48/6/26 44/6/25 46/6/25
f 48/6/26 49/5/27 47/6/26
f 49/5/27 48/6/26 50/5/27
f 50/5/27 51/7/28 49/5/27
f 51/7/28 50/5/27 52/7/28
f 53/8/9 51/7/28 52/7/28
f 51/7/28 53/8/9 54/8/9
f 55/7/29 54/8/9 53/8/9
f 54/8/9 55/7/29 56/7/29
f 55/7/29 43/5/24 56/7/29
f 43/5/24 55/7/29 45/5/24
f 40/3/30 34/3/30 36/4/30
f 40/3/30 53/8/30 34/3/30
f 52/7/30 34/3/30 53/8/30
f 40/3/30 55/7/30 53/8/30
f 52/7/30 31/1/30 34/3/30
f 50/5/30 31/1/30 52/7/30
f 39/1/30 55/7/30 40/3/30
f 39/1/30 45/5/30 55/7/30
f 39/1/30 46/6/30 45/5/30
f 42/2/30 46/6/30 39/1/30
f 48/6/30 31/1/30 50/5/30
f 46/6/30 42/2/30 48/6/30
f 48/6/30 32/2/30 31/1/30
f 32/2/30 48/6/30 42/2/30
f 21/10/16 16/9/16 19/9/16
f 16/9/16 21/10/16 15/10/16
f 15/10/16 21/10/16 23/11/16
f 15/10/16 23/11/16 28/11/16
f 28/11/16 23/11/16 26/12/16
f 49/10/30 44/9/30 47/9/30
f 44/9/30 49/10/30 43/10/30
f 43/10/30 49/10/30 51/11/30
f 43/10/30 51/11/30 56/11/30
f 56/11/30 51/11/30 54/12/30
f 59/13/32 58/14/31 57/13/31
f 58/14/31 59/13/32 60/14/32
f 63/14/34 62/13/33 61/14/33
f 62/13/33 63/14/34 64/13/34
f 67/13/36 66/14/35 65/13/35
f 66/14/35 67/13/36 68/14/36
f 71/14/37 70/13/38 69/13/37
f 70/13/38 71/14/37 72/14/38
f 57/13/31 68/14/36 67/13/36
f 68/14/36 57/13/31 58/14/31
f 60/14/32 64/13/34 63/14/34
f 64/13/34 60/14/32 59/13/32
f 65/13/35 71/14/37 69/13/37
f 71/14/37 65/13/35 66/14/35
f 61/14/33 70/13/38 72/14/38
f 70/13/38 61/14/33 62/13/33
f 59/13/39 62/13/39 64/13/39
f 62/13/39 59/13/39 70/13/39
f 70/13/39 59/13/39 57/13/39
f 70/13/39 57/13/39 69/13/39
f 69/13/39 57/13/39 65/13/39
f 65/13/39 57/13/39 67/13/39
f 72/14/40 63/14/40 61/14/40
f 63/14/40 72/14/40 60/14/40
f 60/14/40 72/14/40 71/14/40
f 60/14/40 71/14/40 58/14/40
f 58/14/40 71/14/40 66/14/40
f 58/14/40 66/14/40 68/14/40
f 75/13/42 74/14/41 73/13/41
f 74/14/41 75/13/42 76/14/42
f 79/14/44 78/13/43 77/14/43
f 78/13/43 79/14/44 80/13/44
f 83/13/46 82/14/45 81/13/45
f 82/14/45 83/13/46 84/14/46
f 87/14/47 86/13/48 85/13/47
f 86/13/48 87/14/47 88/14/48
f 73/13/41 84/14/46 83/13/46
f 84/14/46 73/13/41 74/14/41
f 76/14/42 80/13/44 79/14/44
f 80/13/44 76/14/42 75/13/42
f 81/13/45 87/14/47 85/13/47
f 87/14/47 81/13/45 82/14/45
f 77/14/43 86/13/48 88/14/48
f 86/13/48 77/14/43 78/13/43
f 75/13/49 78/13/49 80/13/49
f 78/13/49 75/13/49 86/13/49
f 86/13/49 75/13/49 73/13/49
f 86/13/49 73/13/49 85/13/49
f 85/13/49 73/13/49 81/13/49
f 81/13/49 73/13/49 83/13/49
f 88/14/50 79/14/50 77/14/50
f 79/14/50 88/14/50 76/14/50
f 76/14/50 88/14/50 87/14/50
f 76/14/50 87/14/50 74/14/50
f 74/14/50 87/14/50 82/14/50
f 74/14/50 82/14/50 84/14/50
f 91/13/52 90/14/51 89/13/51
f 90/14/51 91/13/52 92/14/52
f 95/14/54 94/13/53 93/14/53
f 94/13/53 95/14/54 96/13/54
f 99/13/55 98/14/56 97/14/55
f 98/14/56 99/13/55 100/13/56
f 103/13/58 102/14/57 101/13/57
f 102/14/57 103/13/58 104/14/58
f 100/13/56 90/14/51 98/14/56
f 90/14/51 100/13/56 89/13/51
f 92/14/52 96/13/54 95/14/54
f 96/13/54 92/14/52 91/13/52
f 97/14/55 103/13/58 99/13/55
f 103/13/58 97/14/55 104/14/58
f 93/14/53 101/13/57 102/14/57
f 101/13/57 93/14/53 94/13/53
f 96/13/7 101/13/7 94/13/7
f 101/13/7 96/13/7 91/13/7
f 101/13/7 91/13/7 103/13/7
f 103/13/7 91/13/7 89/13/7
f 103/13/7 89/13/7 100/13/7
f 103/13/7 100/13/7 99/13/7
f 102/14/2 95/14/2 93/14/2
f 95/14/2 102/14/2 92/14/2
f 92/14/2 102/14/2 90/14/2
f 90/14/2 102/14/2 104/14/2
f 90/14/2 104/14/2 97/14/2
f 90/14/2 97/14/2 98/14/2
f 107/13/32 106/14/31 105/13/31
f 106/14/31 107/13/32 108/14/32
f 111/14/34 110/13/33 109/14/33
f 110/13/33 111/14/34 112/13/34
f 115/13/35 114/14/36 113/14/35
f 114/14/36 115/13/35 116/13/36
f 119/13/37 118/14/38 117/13/38
f 118/14/38 119/13/37 120/14/37
f 116/13/36 106/14/31 114/14/36
f 106/14/31 116/13/36 105/13/31
f 108/14/32 112/13/34 111/14/34
f 112/13/34 108/14/32 107/13/32
f 113/14/35 119/13/37 115/13/35
f 119/13/37 113/14/35 120/14/37
f 109/14/33 117/13/38 118/14/38
f 117/13/38 109/14/33 110/13/33
f 112/13/39 117/13/39 110/13/39
f 117/13/39 112/13/39 107/13/39
f 117/13/39 107/13/39 119/13/39
f 119/13/39 107/13/39 105/13/39
f 119/13/39 105/13/39 116/13/39
f 119/13/39 116/13/39 115/13/39
f 118/14/40 111/14/40 109/14/40
f 111/14/40 118/14/40 108/14/40
f 108/14/40 118/14/40 106/14/40
f 106/14/40 118/14/40 120/14/40
f 106/14/40 120/14/40 113/14/40
f 106/14/40 113/14/40 114/14/40
f 123/14/60 122/13/59 121/14/59
f 122/13/59 123/14/60 124/13/60
f 127/14/61 126/13/62 125/13/61
f 126/13/62 127/14/61 128/14/62
f 130/13/9 124/13/9 129/13/9
f 124/13/9 130/13/9 122/13/9
f 122/13/9 130/13/9 125/13/9
f 122/13/9 125/13/9 131/13/9
f 131/13/9 125/13/9 126/13/9
f 131/13/9 126/13/9 132/13/9
f 121/14/4 133/14/4 123/14/4
f 133/14/4 121/14/4 134/14/4
f 134/14/4 121/14/4 135/14/4
f 134/14/4 135/14/4 127/14/4
f 127/14/4 135/14/4 136/14/4
f 127/14/4 136/14/4 128/14/4
f 135/14/63 122/13/59 131/13/63
f 122/13/59 135/14/63 121/14/59
f 133/14/64 124/13/60 123/14/60
f 124/13/60 133/14/64 129/13/64
f 133/14/64 130/13/65 129/13/64
f 130/13/65 133/14/64 134/14/65
f 132/13/66 135/14/63 131/13/63
f 135/14/63 132/13/66 136/14/66
f 134/14/65 125/13/61 130/13/65
f 125/13/61 134/14/65 127/14/61
f 126/13/62 136/14/66 132/13/66
f 136/14/66 126/13/62 128/14/62
f 139/13/68 138/14/67 137/13/67
f 138/14/67 139/13/68 140/14/68
f 143/14/70 142/13/69 141/14/69
f 142/13/69 143/14/70 144/13/70
f 147/13/72 146/14/71 145/13/71
f 146/14/71 147/13/72 148/14/72
f 151/14/73 150/13/74 149/13/73
f 150/13/74 151/14/73 152/14/74
f 137/13/67 148/14/72 147/13/72
f 148/14/72 137/13/67 138/14/67
f 140/14/68 144/13/70 143/14/70
f 144/13/70 140/14/68 139/13/68
f 145/13/71 151/14/73 149/13/73
f 151/14/73 145/13/71 146/14/71
f 141/14/69 150/13/74 152/14/74
f 150/13/74 141/14/69 142/13/69
f 139/13/75 142/13/75 144/13/75
f 142/13/75 139/13/75 150/13/75
f 150/13/75 139/13/75 137/13/75
f 150/13/75 137/13/75 149/13/75
f 149/13/75 137/13/75 145/13/75
f 145/13/75 137/13/75 147/13/75
f 152/14/76 143/14/76 141/14/76
f 143/14/76 152/14/76 140/14/76
f 140/14/76 152/14/76 151/14/76
f 140/14/76 151/14/76 138/14/76
f 138/14/76 151/14/76 146/14/76
f 138/14/76 146/14/76 148/14/76

