# Created by Kenney (www.kenney.nl)

mtllib tower-base-door.mtl

g tower-base-door

v -0.1239733 1.110652 1.580055 1 1 1
v -0.2077106 0.9098033 1.580055 1 1 1
v -0.1239733 1.110652 1.680055 1 1 1
v -0.2077106 0.9098033 1.680055 1 1 1
v 0.2077106 0.158771 1.580055 1 1 1
v 0.2077106 0.9098033 1.580055 1 1 1
v 0.2077106 0.158771 1.680055 1 1 1
v 0.2077106 0.9098033 1.680055 1 1 1
v 0.1239733 1.110652 1.680055 1 1 1
v 0.1239733 1.110652 1.580055 1 1 1
v -5.775291E-15 1.16167 1.680055 1 1 1
v -5.775291E-15 1.16167 1.580055 1 1 1
v -0.2077106 0.158771 1.580055 1 1 1
v -0.2077106 0.158771 1.680055 1 1 1
v 0.6130589 0.9909181 0.7800549 1 1 1
v 0.6130589 0 0.7800549 1 1 1
v 0.6130589 0.9909181 1.980055 1 1 1
v 0.6130589 0 1.980055 1 1 1
v 0.3664816 9.023893E-17 1.980055 1 1 1
v 0.3664816 0.9415752 1.980055 1 1 1
v 0.2452112 1.232449 1.980055 1 1 1
v 0.4334981 1.421604 1.980055 1 1 1
v -5.775291E-15 1.333359 1.980055 1 1 1
v -0.4334981 1.421604 1.980055 1 1 1
v -5.775291E-15 1.6 1.980055 1 1 1
v -0.2452112 1.232449 1.980055 1 1 1
v -0.6130589 0.9909181 1.980055 1 1 1
v -0.3664816 0.9415752 1.980055 1 1 1
v -0.3664816 9.023893E-17 1.980055 1 1 1
v -0.6130589 0 1.980055 1 1 1
v -0.3664816 0.9415752 1.680055 1 1 1
v -0.3664816 9.023893E-17 1.680055 1 1 1
v 0.4334981 1.421604 0.7800549 1 1 1
v -5.775291E-15 1.6 0.7800549 1 1 1
v 0.2452112 1.232449 1.680055 1 1 1
v -5.775291E-15 1.333359 1.680055 1 1 1
v -0.2452112 1.232449 1.680055 1 1 1
v -0.6130589 0.9909181 0.7800549 1 1 1
v -0.4334981 1.421604 0.7800549 1 1 1
v -0.6130589 0 0.7800549 1 1 1
v 0.3664816 0.9415752 1.680055 1 1 1
v 0.3664816 9.023893E-17 1.680055 1 1 1
v 1.385819 2 -0.5740252 1 1 1
v 1.385819 2 0.5740252 1 1 1
v 0.5740252 2 -1.385819 1 1 1
v 0.5740252 2 1.385819 1 1 1
v -0.5740252 2 -1.385819 1 1 1
v -0.5740252 2 1.385819 1 1 1
v -1.385819 2 -0.5740252 1 1 1
v -1.385819 2 0.5740252 1 1 1
v 0.6543887 1.2 1.579834 1 1 1
v -0.6543887 1.2 1.579834 1 1 1
v -0.6543887 1.2 -1.579834 1 1 1
v 0.6543887 1.2 -1.579834 1 1 1
v -1.579834 1.2 -0.6543887 1 1 1
v -1.579834 1.2 0.6543887 1 1 1
v -1.480055 0 -0.6130589 1 1 1
v -1.480055 0 0.6130589 1 1 1
v -0.6130589 0 -1.480055 1 1 1
v 0.6130589 0 -1.480055 1 1 1
v 1.579834 1.2 -0.6543887 1 1 1
v 1.579834 1.2 0.6543887 1 1 1
v 1.480055 0 -0.6130589 1 1 1
v 1.480055 0 0.6130589 1 1 1
v 0.6130589 0 1.480055 1 1 1
v -0.6130589 0 1.480055 1 1 1
v 0.3664816 0.4 1.780055 1 1 1
v 0.3664816 0.4 1.680055 1 1 1
v -0.3664816 0.4 1.780055 1 1 1
v -0.3664816 0.4 1.680055 1 1 1
v 0.3664816 0.643 1.680055 1 1 1
v 0.3664816 0.643 1.780055 1 1 1
v -0.3664816 0.643 1.680055 1 1 1
v -0.3664816 0.643 1.780055 1 1 1

vn 0.7054778 -0.7087319 0
vn 0.9805597 -0.1962212 0
vn -0.7071068 0.7071068 0
vn -0.9805597 -0.1962212 0
vn -0.7054778 -0.7087319 0
vn 0 -1 0
vn 0.7071068 0.7071068 0
vn 0 0 1
vn 0.9805597 0.1962212 0
vn 1 0 0
vn 0.7054778 0.7087319 0
vn 0 1 0
vn -0.9805597 0.1962212 0
vn -0.7054778 0.7087319 0
vn -1 0 0
vn 0 0 -1
vn 0.3814541 0.08008958 0.9209117
vn -0.3814541 0.08008958 0.9209117
vn 0.3701433 0.2538981 0.8936049
vn -0.3701433 0.2538981 0.8936049
vn -0.3814541 0.08008958 -0.9209117
vn 0.3814541 0.08008958 -0.9209117
vn -0.3701433 0.2538981 -0.8936049
vn 0.3701433 0.2538981 -0.8936049
vn -0.9209117 0.08008958 -0.3814541
vn -0.9209117 0.08008958 0.3814541
vn -0.9201604 -0.0896377 -0.3811429
vn -0.9201604 -0.0896377 0.3811429
vn -0.3811429 -0.0896377 -0.9201604
vn 0.3811429 -0.0896377 -0.9201604
vn 0.9209117 0.08008958 -0.3814541
vn 0.9209117 0.08008958 0.3814541
vn 0.8936049 0.2538981 -0.3701433
vn 0.8936049 0.2538981 0.3701433
vn 0.9201604 -0.0896377 -0.3811429
vn 0.9201604 -0.0896377 0.3811429
vn 0.3811429 -0.0896377 0.9201604
vn -0.3811429 -0.0896377 0.9201604
vn -0.8936049 0.2538981 0.3701433
vn -0.8936049 0.2538981 -0.3701433
vn 0 -0.7071068 0.7071068
vn 0 0.7071068 0.7071068

vt 0.96875 0.1638314
vt 0.96875 0.1387254
vt 0.96875 0.04484637
vt 0.96875 0.1702087
vt 0.34375 0.1488648
vt 0.34375 0.025
vt 0.34375 0.1426969
vt 0.34375 0.1790561
vt 0.34375 0.2027005
vt 0.34375 0.1916699
vt 0.34375 0.225
vt 0.34375 0.175
vt 0.34375 0.135
vt 0.34375 0.075
vt 0.84375 0.1916699
vt 0.84375 0.1790561
vt 0.84375 0.1702087
vt 0.84375 0.1638314
vt 0.84375 0.1426969
vt 0.84375 0.1387254
vt 0.84375 0.04484637
vt 0.84375 0.025
vt 0.84375 0.075
vt 0.84375 0.175

usemtl colormap

f 3/1/1 2/2/2 1/1/1
f 2/2/2 3/1/1 4/2/2
f 7/3/3 6/2/4 5/3/3
f 6/2/4 7/3/3 8/2/4
f 11/4/6 10/1/5 9/1/5
f 10/1/5 11/4/6 12/4/6
f 13/3/7 7/3/3 5/3/3
f 7/3/3 13/3/7 14/3/7
f 4/2/2 13/3/7 2/2/2
f 13/3/7 4/2/2 14/3/7
f 6/2/8 13/3/8 5/3/8
f 13/3/8 6/2/8 2/2/8
f 2/2/8 6/2/8 10/1/8
f 2/2/8 10/1/8 1/1/8
f 1/1/8 10/1/8 12/4/8
f 3/1/1 12/4/6 11/4/6
f 12/4/6 3/1/1 1/1/1
f 8/2/4 10/1/5 6/2/4
f 10/1/5 8/2/4 9/1/5
f 17/5/9 16/6/10 15/5/9
f 16/6/10 17/5/9 18/6/10
f 17/5/8 19/6/8 18/6/8
f 19/6/8 17/5/8 20/7/8
f 20/7/8 17/5/8 21/8/8
f 21/8/8 17/5/8 22/9/8
f 21/8/8 22/9/8 23/10/8
f 24/9/8 23/10/8 22/9/8
f 24/9/8 22/9/8 25/11/8
f 24/9/8 26/8/8 23/10/8
f 27/5/8 26/8/8 24/9/8
f 27/5/8 28/7/8 26/8/8
f 27/5/8 29/6/8 28/7/8
f 29/6/8 27/5/8 30/6/8
f 28/7/2 32/6/10 31/7/2
f 32/6/10 28/7/2 29/6/10
f 22/9/11 15/5/9 33/9/11
f 15/5/9 22/9/11 17/5/9
f 34/11/12 22/9/11 33/9/11
f 22/9/11 34/11/12 25/11/12
f 23/10/6 35/8/5 21/8/5
f 35/8/5 23/10/6 36/10/6
f 26/8/1 31/7/2 37/8/1
f 31/7/2 26/8/1 28/7/2
f 27/5/13 39/9/14 38/5/13
f 39/9/14 27/5/13 24/9/14
f 39/9/14 25/11/12 34/11/12
f 25/11/12 39/9/14 24/9/14
f 30/6/15 38/5/13 40/6/15
f 38/5/13 30/6/15 27/5/13
f 20/7/4 35/8/5 41/7/4
f 35/8/5 20/7/4 21/8/5
f 26/8/1 36/10/6 23/10/6
f 36/10/6 26/8/1 37/8/1
f 38/5/16 16/6/16 40/6/16
f 16/6/16 38/5/16 15/5/16
f 15/5/16 38/5/16 33/9/16
f 33/9/16 38/5/16 39/9/16
f 33/9/16 39/9/16 34/11/16
f 30/6/6 32/6/6 29/6/6
f 40/6/6 32/6/6 30/6/6
f 40/6/6 42/6/6 32/6/6
f 16/6/6 42/6/6 40/6/6
f 16/6/6 19/6/6 42/6/6
f 19/6/6 16/6/6 18/6/6
f 19/6/15 41/7/4 42/6/15
f 41/7/4 19/6/15 20/7/4
f 45/12/12 44/12/12 43/12/12
f 44/12/12 45/12/12 46/12/12
f 46/12/12 45/12/12 47/12/12
f 46/12/12 47/12/12 48/12/12
f 48/12/12 47/12/12 49/12/12
f 48/12/12 49/12/12 50/12/12
f 46/12/19 52/13/18 51/13/17
f 52/13/18 46/12/19 48/12/20
f 47/12/23 54/13/22 53/13/21
f 54/13/22 47/12/23 45/12/24
f 57/14/27 56/13/26 55/13/25
f 56/13/26 57/14/27 58/14/28
f 53/13/21 60/14/30 59/14/29
f 60/14/30 53/13/21 54/13/22
f 59/14/29 55/13/25 53/13/21
f 55/13/25 59/14/29 57/14/27
f 43/12/33 62/13/32 61/13/31
f 62/13/32 43/12/33 44/12/34
f 45/12/24 61/13/31 54/13/22
f 61/13/31 45/12/24 43/12/33
f 62/13/32 63/14/35 61/13/31
f 63/14/35 62/13/32 64/14/36
f 61/13/31 60/14/30 54/13/22
f 60/14/30 61/13/31 63/14/35
f 65/14/6 63/14/6 64/14/6
f 63/14/6 65/14/6 60/14/6
f 60/14/6 65/14/6 66/14/6
f 60/14/6 66/14/6 59/14/6
f 59/14/6 66/14/6 58/14/6
f 59/14/6 58/14/6 57/14/6
f 51/13/17 66/14/38 65/14/37
f 66/14/38 51/13/17 52/13/18
f 66/14/38 56/13/26 58/14/28
f 56/13/26 66/14/38 52/13/18
f 46/12/19 62/13/32 44/12/34
f 62/13/32 46/12/19 51/13/17
f 48/12/20 56/13/26 52/13/18
f 56/13/26 48/12/20 50/12/39
f 62/13/32 65/14/37 64/14/36
f 65/14/37 62/13/32 51/13/17
f 49/12/40 53/13/21 55/13/25
f 53/13/21 49/12/40 47/12/23
f 56/13/26 49/12/40 55/13/25
f 49/12/40 56/13/26 50/12/39
f 37/16/8 35/16/8 36/15/8
f 37/16/8 11/17/8 35/16/8
f 9/18/8 35/16/8 11/17/8
f 37/16/8 3/18/8 11/17/8
f 9/18/8 41/19/8 35/16/8
f 8/20/8 41/19/8 9/18/8
f 31/19/8 3/18/8 37/16/8
f 31/19/8 4/20/8 3/18/8
f 31/19/8 14/21/8 4/20/8
f 32/22/8 14/21/8 31/19/8
f 7/21/8 41/19/8 8/20/8
f 14/21/8 32/22/8 7/21/8
f 7/21/8 42/22/8 41/19/8
f 42/22/8 7/21/8 32/22/8
f 69/23/41 68/23/6 67/23/41
f 68/23/6 69/23/41 70/23/6
f 73/24/12 72/24/42 71/24/12
f 72/24/42 73/24/12 74/24/42
f 72/24/42 69/23/41 67/23/41
f 69/23/41 72/24/42 74/24/42

g tower-base-door




usemtl colormap

f 3/1/1 2/2/2 1/1/1
f 2/2/2 3/1/1 4/2/2
f 7/3/3 6/2/4 5/3/3
f 6/2/4 7/3/3 8/2/4
f 11/4/6 10/1/5 9/1/5
f 10/1/5 11/4/6 12/4/6
f 13/3/7 7/3/3 5/3/3
f 7/3/3 13/3/7 14/3/7
f 4/2/2 13/3/7 2/2/2
f 13/3/7 4/2/2 14/3/7
f 6/2/8 13/3/8 5/3/8
f 13/3/8 6/2/8 2/2/8
f 2/2/8 6/2/8 10/1/8
f 2/2/8 10/1/8 1/1/8
f 1/1/8 10/1/8 12/4/8
f 3/1/1 12/4/6 11/4/6
f 12/4/6 3/1/1 1/1/1
f 8/2/4 10/1/5 6/2/4
f 10/1/5 8/2/4 9/1/5
f 17/5/9 16/6/10 15/5/9
f 16/6/10 17/5/9 18/6/10
f 17/5/8 19/6/8 18/6/8
f 19/6/8 17/5/8 20/7/8
f 20/7/8 17/5/8 21/8/8
f 21/8/8 17/5/8 22/9/8
f 21/8/8 22/9/8 23/10/8
f 24/9/8 23/10/8 22/9/8
f 24/9/8 22/9/8 25/11/8
f 24/9/8 26/8/8 23/10/8
f 27/5/8 26/8/8 24/9/8
f 27/5/8 28/7/8 26/8/8
f 27/5/8 29/6/8 28/7/8
f 29/6/8 27/5/8 30/6/8
f 28/7/2 32/6/10 31/7/2
f 32/6/10 28/7/2 29/6/10
f 22/9/11 15/5/9 33/9/11
f 15/5/9 22/9/11 17/5/9
f 34/11/12 22/9/11 33/9/11
f 22/9/11 34/11/12 25/11/12
f 23/10/6 35/8/5 21/8/5
f 35/8/5 23/10/6 36/10/6
f 26/8/1 31/7/2 37/8/1
f 31/7/2 26/8/1 28/7/2
f 27/5/13 39/9/14 38/5/13
f 39/9/14 27/5/13 24/9/14
f 39/9/14 25/11/12 34/11/12
f 25/11/12 39/9/14 24/9/14
f 30/6/15 38/5/13 40/6/15
f 38/5/13 30/6/15 27/5/13
f 20/7/4 35/8/5 41/7/4
f 35/8/5 20/7/4 21/8/5
f 26/8/1 36/10/6 23/10/6
f 36/10/6 26/8/1 37/8/1
f 38/5/16 16/6/16 40/6/16
f 16/6/16 38/5/16 15/5/16
f 15/5/16 38/5/16 33/9/16
f 33/9/16 38/5/16 39/9/16
f 33/9/16 39/9/16 34/11/16
f 30/6/6 32/6/6 29/6/6
f 40/6/6 32/6/6 30/6/6
f 40/6/6 42/6/6 32/6/6
f 16/6/6 42/6/6 40/6/6
f 16/6/6 19/6/6 42/6/6
f 19/6/6 16/6/6 18/6/6
f 19/6/15 41/7/4 42/6/15
f 41/7/4 19/6/15 20/7/4
f 45/12/12 44/12/12 43/12/12
f 44/12/12 45/12/12 46/12/12
f 46/12/12 45/12/12 47/12/12
f 46/12/12 47/12/12 48/12/12
f 48/12/12 47/12/12 49/12/12
f 48/12/12 49/12/12 50/12/12
f 46/12/19 52/13/18 51/13/17
f 52/13/18 46/12/19 48/12/20
f 47/12/23 54/13/22 53/13/21
f 54/13/22 47/12/23 45/12/24
f 57/14/27 56/13/26 55/13/25
f 56/13/26 57/14/27 58/14/28
f 53/13/21 60/14/30 59/14/29
f 60/14/30 53/13/21 54/13/22
f 59/14/29 55/13/25 53/13/21
f 55/13/25 59/14/29 57/14/27
f 43/12/33 62/13/32 61/13/31
f 62/13/32 43/12/33 44/12/34
f 45/12/24 61/13/31 54/13/22
f 61/13/31 45/12/24 43/12/33
f 62/13/32 63/14/35 61/13/31
f 63/14/35 62/13/32 64/14/36
f 61/13/31 60/14/30 54/13/22
f 60/14/30 61/13/31 63/14/35
f 65/14/6 63/14/6 64/14/6
f 63/14/6 65/14/6 60/14/6
f 60/14/6 65/14/6 66/14/6
f 60/14/6 66/14/6 59/14/6
f 59/14/6 66/14/6 58/14/6
f 59/14/6 58/14/6 57/14/6
f 51/13/17 66/14/38 65/14/37
f 66/14/38 51/13/17 52/13/18
f 66/14/38 56/13/26 58/14/28
f 56/13/26 66/14/38 52/13/18
f 46/12/19 62/13/32 44/12/34
f 62/13/32 46/12/19 51/13/17
f 48/12/20 56/13/26 52/13/18
f 56/13/26 48/12/20 50/12/39
f 62/13/32 65/14/37 64/14/36
f 65/14/37 62/13/32 51/13/17
f 49/12/40 53/13/21 55/13/25
f 53/13/21 49/12/40 47/12/23
f 56/13/26 49/12/40 55/13/25
f 49/12/40 56/13/26 50/12/39
f 37/16/8 35/16/8 36/15/8
f 37/16/8 11/17/8 35/16/8
f 9/18/8 35/16/8 11/17/8
f 37/16/8 3/18/8 11/17/8
f 9/18/8 41/19/8 35/16/8
f 8/20/8 41/19/8 9/18/8
f 31/19/8 3/18/8 37/16/8
f 31/19/8 4/20/8 3/18/8
f 31/19/8 14/21/8 4/20/8
f 32/22/8 14/21/8 31/19/8
f 7/21/8 41/19/8 8/20/8
f 14/21/8 32/22/8 7/21/8
f 7/21/8 42/22/8 41/19/8
f 42/22/8 7/21/8 32/22/8
f 69/23/41 68/23/6 67/23/41
f 68/23/6 69/23/41 70/23/6
f 73/24/12 72/24/42 71/24/12
f 72/24/42 73/24/12 74/24/42
f 72/24/42 69/23/41 67/23/41
f 69/23/41 72/24/42 74/24/42

