# Created by Kenney (www.kenney.nl)

mtllib tower-watch.mtl

g tower-watch

v 1.524401 2.4 0.6314276 1 1 1
v 1.524401 2.4 -0.6314276 1 1 1
v 0.6314276 2.4 1.524401 1 1 1
v 0.6314276 2.4 -1.524401 1 1 1
v -0.6314276 2.4 -1.524401 1 1 1
v -0.6314276 2.4 1.524401 1 1 1
v -1.524401 2.4 0.6314276 1 1 1
v -1.524401 2.4 -0.6314276 1 1 1
v 1.524401 2.785 0.6314276 1 1 1
v 0.6314276 2.785 1.524401 1 1 1
v 1.524401 2.785 -0.6314276 1 1 1
v 0.6314276 2.785 -1.524401 1 1 1
v -0.6314276 2.785 -1.524401 1 1 1
v -0.6314276 2.785 1.524401 1 1 1
v -1.524401 2.785 -0.6314276 1 1 1
v -1.524401 2.785 0.6314276 1 1 1
v 0.7950717 2.4 -0.7950717 1 1 1
v 0.9532214 2.4 -0.6369221 1 1 1
v 0.6369221 2.4 -0.9532214 1 1 1
v 0.6369221 1.7 -0.9532214 1 1 1
v 0.9532214 1.7 -0.6369221 1 1 1
v 0.4657423 1.7 -1.124401 1 1 1
v 1.124401 1.7 -0.4657423 1 1 1
v 0.4657423 1.4 -1.124401 1 1 1
v 1.124401 1.4 -0.4657423 1 1 1
v -0.6369221 2.4 -0.9532214 1 1 1
v -0.6369221 1.7 -0.9532214 1 1 1
v -0.7950717 2.4 -0.7950717 1 1 1
v -0.9532214 1.7 -0.6369221 1 1 1
v -0.9532214 2.4 -0.6369221 1 1 1
v -1.124401 1.4 -0.4657423 1 1 1
v -1.124401 1.7 -0.4657423 1 1 1
v -0.4657423 1.4 -1.124401 1 1 1
v -0.4657423 1.7 -1.124401 1 1 1
v 1.124401 1.4 0.4657423 1 1 1
v 1.124401 1.7 0.4657423 1 1 1
v 0.4657423 1.4 1.124401 1 1 1
v 0.9532214 1.7 0.6369221 1 1 1
v 0.6369221 1.7 0.9532214 1 1 1
v 0.4657423 1.7 1.124401 1 1 1
v 0.9532214 2.4 0.6369221 1 1 1
v 0.7950717 2.4 0.7950717 1 1 1
v 0.6369221 2.4 0.9532214 1 1 1
v -0.2236573 1.7 1.124401 1 1 1
v -0.3032223 1.7 1.524401 1 1 1
v -0.4657423 1.7 1.124401 1 1 1
v -0.6314276 1.7 1.524401 1 1 1
v -0.6369221 1.7 0.9532214 1 1 1
v -0.863504 1.7 1.292325 1 1 1
v 1.524401 1.7 -0.3032223 1 1 1
v 1.124401 1.7 -0.2236573 1 1 1
v 1.524401 1.7 -0.6314276 1 1 1
v 1.292325 1.7 -0.863504 1 1 1
v 1.524401 1.7 0.3032223 1 1 1
v 1.524401 1.7 0.6314276 1 1 1
v 1.124401 1.7 0.2236573 1 1 1
v 1.292325 1.7 0.863504 1 1 1
v -1.292325 1.7 0.863504 1 1 1
v -0.9532214 1.7 0.6369221 1 1 1
v -1.292325 2.4 0.863504 1 1 1
v -0.9532214 2.4 0.6369221 1 1 1
v 0.863504 1.7 1.292325 1 1 1
v 0.6314276 1.7 1.524401 1 1 1
v 0.3032223 1.7 1.524401 1 1 1
v 0.2236573 1.7 1.124401 1 1 1
v -1.292325 1.7 -0.863504 1 1 1
v -1.524401 1.7 -0.3032223 1 1 1
v -1.524401 1.7 -0.6314276 1 1 1
v -1.124401 1.7 -0.2236573 1 1 1
v -1.124401 2.4 -0.2236573 1 1 1
v -1.124401 2.4 -3.753939E-14 1 1 1
v -1.124401 1.7 0.2236573 1 1 1
v -1.124401 2.4 0.2236573 1 1 1
v -1.124401 1.4 0.4657423 1 1 1
v -1.124401 1.7 0.4657423 1 1 1
v 0.863504 1.7 -1.292325 1 1 1
v 0.6314276 1.7 -1.524401 1 1 1
v 0.3032223 1.7 -1.524401 1 1 1
v 0.2236573 1.7 -1.124401 1 1 1
v -0.2236573 1.7 -1.124401 1 1 1
v -0.3032223 1.7 -1.524401 1 1 1
v -0.6314276 1.7 -1.524401 1 1 1
v -0.863504 1.7 -1.292325 1 1 1
v 0.3032223 2.4 -1.524401 1 1 1
v 0.2236573 2.4 -1.124401 1 1 1
v -0.3032223 2.4 -1.524401 1 1 1
v -0.2236573 2.4 -1.124401 1 1 1
v 1.292325 2.4 -0.863504 1 1 1
v -1.524401 1.7 0.3032223 1 1 1
v -1.524401 1.7 0.6314276 1 1 1
v -0.7950717 2.4 0.7950717 1 1 1
v -0.6369221 2.4 0.9532214 1 1 1
v -0.4657423 1.4 1.124401 1 1 1
v -1.559329E-13 2.4 1.124401 1 1 1
v -0.2236573 2.4 1.124401 1 1 1
v 0.2236573 2.4 1.124401 1 1 1
v -1.443823E-13 2.4 -1.124401 1 1 1
v 1.124401 2.4 -0.2236573 1 1 1
v 1.124401 2.4 -4.042704E-14 1 1 1
v 1.124401 2.4 0.2236573 1 1 1
v 0.3032223 2.4 1.524401 1 1 1
v -1.501576E-13 2.4 -1.524401 1 1 1
v 0.6314276 0.8 -1.524401 1 1 1
v -0.6314276 0.8 -1.524401 1 1 1
v -1.501576E-13 2.4 1.524401 1 1 1
v -0.3032223 2.4 1.524401 1 1 1
v -0.6314276 0.8 1.524401 1 1 1
v 0.6314276 0.8 1.524401 1 1 1
v -0.863504 2.4 -1.292325 1 1 1
v 1.524401 2.4 0.3032223 1 1 1
v 1.292325 2.4 0.863504 1 1 1
v 1.077914 2.4 1.077914 1 1 1
v 1.524401 0.8 0.6314276 1 1 1
v 0.863504 2.4 1.292325 1 1 1
v 0.863504 2.4 -1.292325 1 1 1
v -1.524401 2.4 -0.3032223 1 1 1
v 1.524401 2.4 -0.3032223 1 1 1
v 1.077914 2.4 -1.077914 1 1 1
v 1.524401 0.8 -0.6314276 1 1 1
v -1.524401 0.8 -0.6314276 1 1 1
v -1.524401 0.8 0.6314276 1 1 1
v -1.524401 2.4 -3.753939E-14 1 1 1
v -1.524401 2.4 0.3032223 1 1 1
v -1.292325 2.4 -0.863504 1 1 1
v 1.524401 2.4 -4.042704E-14 1 1 1
v -0.863504 2.4 1.292325 1 1 1
v -1.077914 2.4 -1.077914 1 1 1
v -1.077914 2.4 1.077914 1 1 1
v -1.385819 0 -0.5740252 1 1 1
v -1.385819 0.4 -0.5740252 1 1 1
v -1.385819 0 0.5740252 1 1 1
v -1.385819 0.4 0.5740252 1 1 1
v 1.385819 0.4 -0.5740252 1 1 1
v 1.385819 0 -0.5740252 1 1 1
v 1.385819 0.4 0.5740252 1 1 1
v 1.385819 0 0.5740252 1 1 1
v 0.5740252 0 1.385819 1 1 1
v -0.5740252 0 1.385819 1 1 1
v 0.5740252 0.4 1.385819 1 1 1
v -0.5740252 0.4 1.385819 1 1 1
v -0.5740252 0 -1.385819 1 1 1
v -0.5740252 0.4 -1.385819 1 1 1
v 0.5740252 0.4 -1.385819 1 1 1
v 0.5740252 0 -1.385819 1 1 1

vn 0 -1 0
vn 0 1 0
vn -0.9238795 0 -0.3826834
vn -0.3826834 0 -0.9238795
vn -0.9238795 0 0.3826834
vn -0.3826834 0 0.9238795
vn 0.3826834 0 0.9238795
vn 0.9238795 0 0.3826834
vn 0.9238795 0 -0.3826834
vn 0.3826834 0 -0.9238795
vn -0.7071068 0 0.7071068
vn 0.7071068 0 0.7071068
vn -0.7071068 0 -0.7071068
vn -0.5555702 0 -0.8314696
vn 1 0 0
vn 0.9807853 0 0.1950903
vn -0.9807853 0 0.1950903
vn 0.5555702 0 0.8314696
vn 0.7071068 0 -0.7071068
vn 0 0 -1
vn 0 0 1
vn -1 0 0
vn 0.9807853 0 -0.1950903
vn 0.8314696 0 -0.5555702
vn -0.1950903 0 0.9807853
vn -0.8314696 0 -0.5555702
vn 0.1950903 0 -0.9807853
vn -0.1950903 0 -0.9807853
vn -0.8314696 0 0.5555702
vn -0.9807853 0 -0.1950903
vn -0.5555702 0 0.8314696
vn 0.1950903 0 0.9807853
vn 0.8314696 0 0.5555702
vn 0.5555702 0 -0.8314696
vn 0.8650554 -0.3511234 0.3583177
vn 0.3583177 -0.3511234 0.8650554
vn -0.3583177 -0.3511234 0.8650554
vn -0.8650554 -0.3511234 0.3583177
vn -0.8650554 -0.3511234 -0.3583177
vn -0.3583177 -0.3511234 -0.8650554
vn 0.3583177 -0.3511234 -0.8650554
vn 0.8650554 -0.3511234 -0.3583177

vt 0.59375 0.075
vt 0.59375 0.175
vt 0.59375 0.1041667
vt 0.59375 0.1166667
vt 0.59375 0.1416667
vt 0.59375 0.1583333
vt 0.34375 0.1166667
vt 0.34375 0.1583333
vt 0.34375 0.1416667

usemtl colormap

f 3/1/1 2/1/1 1/1/1
f 2/1/1 3/1/1 4/1/1
f 4/1/1 3/1/1 5/1/1
f 5/1/1 3/1/1 6/1/1
f 5/1/1 6/1/1 7/1/1
f 5/1/1 7/1/1 8/1/1
f 11/2/2 10/2/2 9/2/2
f 10/2/2 11/2/2 12/2/2
f 10/2/2 12/2/2 13/2/2
f 10/2/2 13/2/2 14/2/2
f 14/2/2 13/2/2 15/2/2
f 14/2/2 15/2/2 16/2/2
f 15/2/3 5/1/4 8/1/3
f 5/1/4 15/2/3 13/2/4
f 7/1/5 15/2/3 8/1/3
f 15/2/3 7/1/5 16/2/5
f 6/1/6 16/2/5 7/1/5
f 16/2/5 6/1/6 14/2/6
f 10/2/7 6/1/6 3/1/7
f 6/1/6 10/2/7 14/2/6
f 9/2/8 3/1/7 1/1/8
f 3/1/7 9/2/8 10/2/7
f 9/2/8 2/1/9 11/2/9
f 2/1/9 9/2/8 1/1/8
f 11/2/9 4/1/10 12/2/10
f 4/1/10 11/2/9 2/1/9
f 13/2/4 4/1/10 5/1/4
f 4/1/10 13/2/4 12/2/10
f 19/1/11 18/1/11 17/1/11
f 20/3/11 18/1/11 19/1/11
f 18/1/11 20/3/11 21/3/11
f 22/3/6 21/3/11 20/3/11
f 22/3/6 23/3/5 21/3/11
f 24/4/6 23/3/5 22/3/6
f 23/3/5 24/4/6 25/4/5
f 28/1/12 27/3/12 26/1/12
f 29/3/12 27/3/12 28/1/12
f 29/3/12 28/1/12 30/1/12
f 31/4/8 27/3/12 29/3/12
f 31/4/8 29/3/12 32/3/8
f 33/4/7 27/3/12 31/4/8
f 27/3/12 33/4/7 34/3/7
f 37/4/4 36/3/3 35/4/3
f 36/3/3 37/4/4 38/3/13
f 38/3/13 37/4/4 39/3/13
f 39/3/13 37/4/4 40/3/4
f 38/3/13 39/3/13 41/1/13
f 41/1/13 39/3/13 42/1/13
f 43/1/13 42/1/13 39/3/13
f 46/3/2 45/3/2 44/3/2
f 45/3/2 46/3/2 47/3/2
f 47/3/2 46/3/2 48/3/2
f 47/3/2 48/3/2 49/3/2
f 52/3/2 51/3/2 50/3/2
f 51/3/2 52/3/2 53/3/2
f 51/3/2 53/3/2 23/3/2
f 23/3/2 53/3/2 21/3/2
f 56/3/2 55/3/2 54/3/2
f 55/3/2 56/3/2 57/3/2
f 57/3/2 56/3/2 36/3/2
f 57/3/2 36/3/2 38/3/2
f 60/1/14 59/3/14 58/3/14
f 59/3/14 60/1/14 61/1/14
f 39/3/2 63/3/2 62/3/2
f 63/3/2 39/3/2 40/3/2
f 63/3/2 40/3/2 64/3/2
f 64/3/2 40/3/2 65/3/2
f 66/3/2 32/3/2 29/3/2
f 67/3/2 32/3/2 66/3/2
f 67/3/2 66/3/2 68/3/2
f 32/3/2 67/3/2 69/3/2
f 71/1/15 69/3/15 70/1/15
f 72/3/15 69/3/15 71/1/15
f 72/3/15 71/1/15 73/1/15
f 74/4/9 69/3/15 72/3/15
f 74/4/9 72/3/15 75/3/9
f 31/4/8 69/3/15 74/4/9
f 69/3/15 31/4/8 32/3/8
f 77/3/2 20/3/2 76/3/2
f 20/3/2 77/3/2 22/3/2
f 22/3/2 77/3/2 78/3/2
f 22/3/2 78/3/2 79/3/2
f 81/3/2 34/3/2 80/3/2
f 34/3/2 81/3/2 82/3/2
f 34/3/2 82/3/2 27/3/2
f 27/3/2 82/3/2 83/3/2
f 85/1/16 78/3/16 84/1/16
f 78/3/16 85/1/16 79/3/16
f 80/3/17 86/1/17 81/3/17
f 86/1/17 80/3/17 87/1/17
f 88/1/18 21/3/18 53/3/18
f 21/3/18 88/1/18 18/1/18
f 89/3/2 75/3/2 72/3/2
f 75/3/2 89/3/2 58/3/2
f 58/3/2 89/3/2 90/3/2
f 58/3/2 59/3/2 75/3/2
f 91/1/19 59/3/19 61/1/19
f 48/3/19 59/3/19 91/1/19
f 48/3/19 91/1/19 92/1/19
f 93/4/10 59/3/19 48/3/19
f 93/4/10 48/3/19 46/3/10
f 74/4/9 59/3/19 93/4/10
f 59/3/19 74/4/9 75/3/9
f 96/1/20 95/1/20 94/1/20
f 65/3/20 95/1/20 96/1/20
f 95/1/20 65/3/20 44/3/20
f 40/3/4 44/3/20 65/3/20
f 40/3/4 46/3/10 44/3/20
f 37/4/4 46/3/10 40/3/4
f 46/3/10 37/4/4 93/4/10
f 87/1/21 85/1/21 97/1/21
f 80/3/21 85/1/21 87/1/21
f 85/1/21 80/3/21 79/3/21
f 34/3/7 79/3/21 80/3/21
f 34/3/7 22/3/6 79/3/21
f 33/4/7 22/3/6 34/3/7
f 22/3/6 33/4/7 24/4/6
f 35/4/3 23/3/5 25/4/5
f 23/3/5 35/4/3 51/3/22
f 51/3/22 35/4/3 56/3/22
f 56/3/22 35/4/3 36/3/3
f 51/3/22 56/3/22 98/1/22
f 98/1/22 56/3/22 99/1/22
f 100/1/22 99/1/22 56/3/22
f 101/1/23 65/3/23 96/1/23
f 65/3/23 101/1/23 64/3/23
f 84/1/20 86/1/20 102/1/20
f 78/3/20 86/1/20 84/1/20
f 86/1/20 78/3/20 81/3/20
f 77/3/20 81/3/20 78/3/20
f 77/3/20 82/3/20 81/3/20
f 103/5/20 82/3/20 77/3/20
f 82/3/20 103/5/20 104/5/20
f 106/1/21 101/1/21 105/1/21
f 45/3/21 101/1/21 106/1/21
f 101/1/21 45/3/21 64/3/21
f 47/3/21 64/3/21 45/3/21
f 47/3/21 63/3/21 64/3/21
f 107/5/21 63/3/21 47/3/21
f 63/3/21 107/5/21 108/5/21
f 26/1/24 83/3/24 109/1/24
f 83/3/24 26/1/24 27/3/24
f 110/1/25 56/3/25 54/3/25
f 56/3/25 110/1/25 100/1/25
f 112/1/12 57/3/12 111/1/12
f 108/5/12 57/3/12 112/1/12
f 113/5/12 57/3/12 108/5/12
f 57/3/12 113/5/12 55/3/12
f 108/5/12 112/1/12 62/3/12
f 62/3/12 112/1/12 114/1/12
f 108/5/12 62/3/12 63/3/12
f 20/3/26 115/1/26 76/3/26
f 115/1/26 20/3/26 19/1/26
f 116/1/27 69/3/27 67/3/27
f 69/3/27 116/1/27 70/1/27
f 98/1/28 50/3/28 51/3/28
f 50/3/28 98/1/28 117/1/28
f 88/1/19 115/1/19 118/1/19
f 53/3/19 115/1/19 88/1/19
f 115/1/19 53/3/19 76/3/19
f 52/3/19 76/3/19 53/3/19
f 52/3/19 77/3/19 76/3/19
f 119/5/19 77/3/19 52/3/19
f 77/3/19 119/5/19 103/5/19
f 121/5/22 68/3/22 120/5/22
f 68/3/22 121/5/22 67/3/22
f 67/3/22 121/5/22 116/1/22
f 116/1/22 121/5/22 122/1/22
f 122/1/22 121/5/22 89/3/22
f 89/3/22 121/5/22 90/3/22
f 123/1/22 122/1/22 89/3/22
f 62/3/29 43/1/29 39/3/29
f 43/1/29 62/3/29 114/1/29
f 45/3/30 95/1/30 44/3/30
f 95/1/30 45/3/30 106/1/30
f 30/1/31 66/3/31 29/3/31
f 66/3/31 30/1/31 124/1/31
f 125/1/15 50/3/15 117/1/15
f 113/5/15 50/3/15 125/1/15
f 119/5/15 50/3/15 113/5/15
f 50/3/15 119/5/15 52/3/15
f 113/5/15 125/1/15 54/3/15
f 54/3/15 125/1/15 110/1/15
f 113/5/15 54/3/15 55/3/15
f 73/1/32 89/3/32 72/3/32
f 89/3/32 73/1/32 123/1/32
f 126/1/33 48/3/33 92/1/33
f 48/3/33 126/1/33 49/3/33
f 41/1/34 57/3/34 38/3/34
f 57/3/34 41/1/34 111/1/34
f 120/5/13 82/3/13 104/5/13
f 82/3/13 120/5/13 83/3/13
f 83/3/13 120/5/13 109/1/13
f 109/1/13 120/5/13 127/1/13
f 127/1/13 120/5/13 66/3/13
f 66/3/13 120/5/13 68/3/13
f 124/1/13 127/1/13 66/3/13
f 107/5/11 90/3/11 121/5/11
f 90/3/11 107/5/11 58/3/11
f 58/3/11 107/5/11 60/1/11
f 60/1/11 107/5/11 128/1/11
f 128/1/11 107/5/11 49/3/11
f 49/3/11 107/5/11 47/3/11
f 126/1/11 128/1/11 49/3/11
f 131/2/5 130/6/3 129/2/3
f 130/6/3 131/2/5 132/6/5
f 135/6/8 134/2/9 133/6/9
f 134/2/9 135/6/8 136/2/8
f 139/6/7 138/2/6 137/2/7
f 138/2/6 139/6/7 140/6/6
f 130/6/3 141/2/4 129/2/3
f 141/2/4 130/6/3 142/6/4
f 133/6/9 144/2/10 143/6/10
f 144/2/10 133/6/9 134/2/9
f 139/6/7 136/2/8 135/6/8
f 136/2/8 139/6/7 137/2/7
f 140/6/6 131/2/5 138/2/6
f 131/2/5 140/6/6 132/6/5
f 142/6/4 144/2/10 141/2/4
f 144/2/10 142/6/4 143/6/10
f 137/2/1 134/2/1 136/2/1
f 134/2/1 137/2/1 144/2/1
f 144/2/1 137/2/1 138/2/1
f 144/2/1 138/2/1 141/2/1
f 141/2/1 138/2/1 131/2/1
f 141/2/1 131/2/1 129/2/1
f 25/7/2 37/7/2 35/7/2
f 37/7/2 25/7/2 24/7/2
f 37/7/2 24/7/2 33/7/2
f 37/7/2 33/7/2 93/7/2
f 93/7/2 33/7/2 31/7/2
f 93/7/2 31/7/2 74/7/2
f 113/9/35 139/8/36 135/8/35
f 139/8/36 113/9/35 108/9/36
f 107/9/37 132/8/38 140/8/37
f 132/8/38 107/9/37 121/9/38
f 130/8/39 121/9/38 120/9/39
f 121/9/38 130/8/39 132/8/38
f 108/9/36 140/8/37 139/8/36
f 140/8/37 108/9/36 107/9/37
f 120/9/39 142/8/40 130/8/39
f 142/8/40 120/9/39 104/9/40
f 104/9/40 143/8/41 142/8/40
f 143/8/41 104/9/40 103/9/41
f 119/9/42 143/8/41 103/9/41
f 143/8/41 119/9/42 133/8/42
f 113/9/35 133/8/42 119/9/42
f 133/8/42 113/9/35 135/8/35

g tower-watch




usemtl colormap

f 3/1/1 2/1/1 1/1/1
f 2/1/1 3/1/1 4/1/1
f 4/1/1 3/1/1 5/1/1
f 5/1/1 3/1/1 6/1/1
f 5/1/1 6/1/1 7/1/1
f 5/1/1 7/1/1 8/1/1
f 11/2/2 10/2/2 9/2/2
f 10/2/2 11/2/2 12/2/2
f 10/2/2 12/2/2 13/2/2
f 10/2/2 13/2/2 14/2/2
f 14/2/2 13/2/2 15/2/2
f 14/2/2 15/2/2 16/2/2
f 15/2/3 5/1/4 8/1/3
f 5/1/4 15/2/3 13/2/4
f 7/1/5 15/2/3 8/1/3
f 15/2/3 7/1/5 16/2/5
f 6/1/6 16/2/5 7/1/5
f 16/2/5 6/1/6 14/2/6
f 10/2/7 6/1/6 3/1/7
f 6/1/6 10/2/7 14/2/6
f 9/2/8 3/1/7 1/1/8
f 3/1/7 9/2/8 10/2/7
f 9/2/8 2/1/9 11/2/9
f 2/1/9 9/2/8 1/1/8
f 11/2/9 4/1/10 12/2/10
f 4/1/10 11/2/9 2/1/9
f 13/2/4 4/1/10 5/1/4
f 4/1/10 13/2/4 12/2/10
f 19/1/11 18/1/11 17/1/11
f 20/3/11 18/1/11 19/1/11
f 18/1/11 20/3/11 21/3/11
f 22/3/6 21/3/11 20/3/11
f 22/3/6 23/3/5 21/3/11
f 24/4/6 23/3/5 22/3/6
f 23/3/5 24/4/6 25/4/5
f 28/1/12 27/3/12 26/1/12
f 29/3/12 27/3/12 28/1/12
f 29/3/12 28/1/12 30/1/12
f 31/4/8 27/3/12 29/3/12
f 31/4/8 29/3/12 32/3/8
f 33/4/7 27/3/12 31/4/8
f 27/3/12 33/4/7 34/3/7
f 37/4/4 36/3/3 35/4/3
f 36/3/3 37/4/4 38/3/13
f 38/3/13 37/4/4 39/3/13
f 39/3/13 37/4/4 40/3/4
f 38/3/13 39/3/13 41/1/13
f 41/1/13 39/3/13 42/1/13
f 43/1/13 42/1/13 39/3/13
f 46/3/2 45/3/2 44/3/2
f 45/3/2 46/3/2 47/3/2
f 47/3/2 46/3/2 48/3/2
f 47/3/2 48/3/2 49/3/2
f 52/3/2 51/3/2 50/3/2
f 51/3/2 52/3/2 53/3/2
f 51/3/2 53/3/2 23/3/2
f 23/3/2 53/3/2 21/3/2
f 56/3/2 55/3/2 54/3/2
f 55/3/2 56/3/2 57/3/2
f 57/3/2 56/3/2 36/3/2
f 57/3/2 36/3/2 38/3/2
f 60/1/14 59/3/14 58/3/14
f 59/3/14 60/1/14 61/1/14
f 39/3/2 63/3/2 62/3/2
f 63/3/2 39/3/2 40/3/2
f 63/3/2 40/3/2 64/3/2
f 64/3/2 40/3/2 65/3/2
f 66/3/2 32/3/2 29/3/2
f 67/3/2 32/3/2 66/3/2
f 67/3/2 66/3/2 68/3/2
f 32/3/2 67/3/2 69/3/2
f 71/1/15 69/3/15 70/1/15
f 72/3/15 69/3/15 71/1/15
f 72/3/15 71/1/15 73/1/15
f 74/4/9 69/3/15 72/3/15
f 74/4/9 72/3/15 75/3/9
f 31/4/8 69/3/15 74/4/9
f 69/3/15 31/4/8 32/3/8
f 77/3/2 20/3/2 76/3/2
f 20/3/2 77/3/2 22/3/2
f 22/3/2 77/3/2 78/3/2
f 22/3/2 78/3/2 79/3/2
f 81/3/2 34/3/2 80/3/2
f 34/3/2 81/3/2 82/3/2
f 34/3/2 82/3/2 27/3/2
f 27/3/2 82/3/2 83/3/2
f 85/1/16 78/3/16 84/1/16
f 78/3/16 85/1/16 79/3/16
f 80/3/17 86/1/17 81/3/17
f 86/1/17 80/3/17 87/1/17
f 88/1/18 21/3/18 53/3/18
f 21/3/18 88/1/18 18/1/18
f 89/3/2 75/3/2 72/3/2
f 75/3/2 89/3/2 58/3/2
f 58/3/2 89/3/2 90/3/2
f 58/3/2 59/3/2 75/3/2
f 91/1/19 59/3/19 61/1/19
f 48/3/19 59/3/19 91/1/19
f 48/3/19 91/1/19 92/1/19
f 93/4/10 59/3/19 48/3/19
f 93/4/10 48/3/19 46/3/10
f 74/4/9 59/3/19 93/4/10
f 59/3/19 74/4/9 75/3/9
f 96/1/20 95/1/20 94/1/20
f 65/3/20 95/1/20 96/1/20
f 95/1/20 65/3/20 44/3/20
f 40/3/4 44/3/20 65/3/20
f 40/3/4 46/3/10 44/3/20
f 37/4/4 46/3/10 40/3/4
f 46/3/10 37/4/4 93/4/10
f 87/1/21 85/1/21 97/1/21
f 80/3/21 85/1/21 87/1/21
f 85/1/21 80/3/21 79/3/21
f 34/3/7 79/3/21 80/3/21
f 34/3/7 22/3/6 79/3/21
f 33/4/7 22/3/6 34/3/7
f 22/3/6 33/4/7 24/4/6
f 35/4/3 23/3/5 25/4/5
f 23/3/5 35/4/3 51/3/22
f 51/3/22 35/4/3 56/3/22
f 56/3/22 35/4/3 36/3/3
f 51/3/22 56/3/22 98/1/22
f 98/1/22 56/3/22 99/1/22
f 100/1/22 99/1/22 56/3/22
f 101/1/23 65/3/23 96/1/23
f 65/3/23 101/1/23 64/3/23
f 84/1/20 86/1/20 102/1/20
f 78/3/20 86/1/20 84/1/20
f 86/1/20 78/3/20 81/3/20
f 77/3/20 81/3/20 78/3/20
f 77/3/20 82/3/20 81/3/20
f 103/5/20 82/3/20 77/3/20
f 82/3/20 103/5/20 104/5/20
f 106/1/21 101/1/21 105/1/21
f 45/3/21 101/1/21 106/1/21
f 101/1/21 45/3/21 64/3/21
f 47/3/21 64/3/21 45/3/21
f 47/3/21 63/3/21 64/3/21
f 107/5/21 63/3/21 47/3/21
f 63/3/21 107/5/21 108/5/21
f 26/1/24 83/3/24 109/1/24
f 83/3/24 26/1/24 27/3/24
f 110/1/25 56/3/25 54/3/25
f 56/3/25 110/1/25 100/1/25
f 112/1/12 57/3/12 111/1/12
f 108/5/12 57/3/12 112/1/12
f 113/5/12 57/3/12 108/5/12
f 57/3/12 113/5/12 55/3/12
f 108/5/12 112/1/12 62/3/12
f 62/3/12 112/1/12 114/1/12
f 108/5/12 62/3/12 63/3/12
f 20/3/26 115/1/26 76/3/26
f 115/1/26 20/3/26 19/1/26
f 116/1/27 69/3/27 67/3/27
f 69/3/27 116/1/27 70/1/27
f 98/1/28 50/3/28 51/3/28
f 50/3/28 98/1/28 117/1/28
f 88/1/19 115/1/19 118/1/19
f 53/3/19 115/1/19 88/1/19
f 115/1/19 53/3/19 76/3/19
f 52/3/19 76/3/19 53/3/19
f 52/3/19 77/3/19 76/3/19
f 119/5/19 77/3/19 52/3/19
f 77/3/19 119/5/19 103/5/19
f 121/5/22 68/3/22 120/5/22
f 68/3/22 121/5/22 67/3/22
f 67/3/22 121/5/22 116/1/22
f 116/1/22 121/5/22 122/1/22
f 122/1/22 121/5/22 89/3/22
f 89/3/22 121/5/22 90/3/22
f 123/1/22 122/1/22 89/3/22
f 62/3/29 43/1/29 39/3/29
f 43/1/29 62/3/29 114/1/29
f 45/3/30 95/1/30 44/3/30
f 95/1/30 45/3/30 106/1/30
f 30/1/31 66/3/31 29/3/31
f 66/3/31 30/1/31 124/1/31
f 125/1/15 50/3/15 117/1/15
f 113/5/15 50/3/15 125/1/15
f 119/5/15 50/3/15 113/5/15
f 50/3/15 119/5/15 52/3/15
f 113/5/15 125/1/15 54/3/15
f 54/3/15 125/1/15 110/1/15
f 113/5/15 54/3/15 55/3/15
f 73/1/32 89/3/32 72/3/32
f 89/3/32 73/1/32 123/1/32
f 126/1/33 48/3/33 92/1/33
f 48/3/33 126/1/33 49/3/33
f 41/1/34 57/3/34 38/3/34
f 57/3/34 41/1/34 111/1/34
f 120/5/13 82/3/13 104/5/13
f 82/3/13 120/5/13 83/3/13
f 83/3/13 120/5/13 109/1/13
f 109/1/13 120/5/13 127/1/13
f 127/1/13 120/5/13 66/3/13
f 66/3/13 120/5/13 68/3/13
f 124/1/13 127/1/13 66/3/13
f 107/5/11 90/3/11 121/5/11
f 90/3/11 107/5/11 58/3/11
f 58/3/11 107/5/11 60/1/11
f 60/1/11 107/5/11 128/1/11
f 128/1/11 107/5/11 49/3/11
f 49/3/11 107/5/11 47/3/11
f 126/1/11 128/1/11 49/3/11
f 131/2/5 130/6/3 129/2/3
f 130/6/3 131/2/5 132/6/5
f 135/6/8 134/2/9 133/6/9
f 134/2/9 135/6/8 136/2/8
f 139/6/7 138/2/6 137/2/7
f 138/2/6 139/6/7 140/6/6
f 130/6/3 141/2/4 129/2/3
f 141/2/4 130/6/3 142/6/4
f 133/6/9 144/2/10 143/6/10
f 144/2/10 133/6/9 134/2/9
f 139/6/7 136/2/8 135/6/8
f 136/2/8 139/6/7 137/2/7
f 140/6/6 131/2/5 138/2/6
f 131/2/5 140/6/6 132/6/5
f 142/6/4 144/2/10 141/2/4
f 144/2/10 142/6/4 143/6/10
f 137/2/1 134/2/1 136/2/1
f 134/2/1 137/2/1 144/2/1
f 144/2/1 137/2/1 138/2/1
f 144/2/1 138/2/1 141/2/1
f 141/2/1 138/2/1 131/2/1
f 141/2/1 131/2/1 129/2/1
f 25/7/2 37/7/2 35/7/2
f 37/7/2 25/7/2 24/7/2
f 37/7/2 24/7/2 33/7/2
f 37/7/2 33/7/2 93/7/2
f 93/7/2 33/7/2 31/7/2
f 93/7/2 31/7/2 74/7/2
f 113/9/35 139/8/36 135/8/35
f 139/8/36 113/9/35 108/9/36
f 107/9/37 132/8/38 140/8/37
f 132/8/38 107/9/37 121/9/38
f 130/8/39 121/9/38 120/9/39
f 121/9/38 130/8/39 132/8/38
f 108/9/36 140/8/37 139/8/36
f 140/8/37 108/9/36 107/9/37
f 120/9/39 142/8/40 130/8/39
f 142/8/40 120/9/39 104/9/40
f 104/9/40 143/8/41 142/8/40
f 143/8/41 104/9/40 103/9/41
f 119/9/42 143/8/41 103/9/41
f 143/8/41 119/9/42 133/8/42
f 113/9/35 133/8/42 119/9/42
f 133/8/42 113/9/35 135/8/35

