# Created by Kenney (www.kenney.nl)

mtllib tower-base.mtl

g tower-base

v 1.385819 2 -0.5740252 1 1 1
v 1.385819 2 0.5740252 1 1 1
v 0.5740252 2 -1.385819 1 1 1
v 0.5740252 2 1.385819 1 1 1
v -0.5740252 2 -1.385819 1 1 1
v -0.5740252 2 1.385819 1 1 1
v -1.385819 2 -0.5740252 1 1 1
v -1.385819 2 0.5740252 1 1 1
v 0.6543887 1.2 1.579834 1 1 1
v -0.6543887 1.2 1.579834 1 1 1
v -0.6543887 1.2 -1.579834 1 1 1
v 0.6543887 1.2 -1.579834 1 1 1
v -1.579834 1.2 -0.6543887 1 1 1
v -1.579834 1.2 0.6543887 1 1 1
v -1.480055 0 -0.6130589 1 1 1
v -1.480055 0 0.6130589 1 1 1
v -0.6130589 0 -1.480055 1 1 1
v 0.6130589 0 -1.480055 1 1 1
v 1.579834 1.2 -0.6543887 1 1 1
v 1.579834 1.2 0.6543887 1 1 1
v 1.480055 0 -0.6130589 1 1 1
v 1.480055 0 0.6130589 1 1 1
v 0.6130589 0 1.480055 1 1 1
v -0.6130589 0 1.480055 1 1 1

vn 0 1 0
vn 0.3814541 0.08008958 0.9209117
vn -0.3814541 0.08008958 0.9209117
vn 0.3701433 0.2538981 0.8936049
vn -0.3701433 0.2538981 0.8936049
vn -0.3814541 0.08008958 -0.9209117
vn 0.3814541 0.08008958 -0.9209117
vn -0.3701433 0.2538981 -0.8936049
vn 0.3701433 0.2538981 -0.8936049
vn -0.9209117 0.08008958 -0.3814541
vn -0.9209117 0.08008958 0.3814541
vn -0.9201604 -0.0896377 -0.3811429
vn -0.9201604 -0.0896377 0.3811429
vn -0.3811429 -0.0896377 -0.9201604
vn 0.3811429 -0.0896377 -0.9201604
vn 0.9209117 0.08008958 -0.3814541
vn 0.9209117 0.08008958 0.3814541
vn 0.8936049 0.2538981 -0.3701433
vn 0.8936049 0.2538981 0.3701433
vn 0.9201604 -0.0896377 -0.3811429
vn 0.9201604 -0.0896377 0.3811429
vn 0 -1 0
vn 0.3811429 -0.0896377 0.9201604
vn -0.3811429 -0.0896377 0.9201604
vn -0.8936049 0.2538981 0.3701433
vn -0.8936049 0.2538981 -0.3701433

vt 0.34375 0.175
vt 0.34375 0.135
vt 0.34375 0.075

usemtl colormap

f 3/1/1 2/1/1 1/1/1
f 2/1/1 3/1/1 4/1/1
f 4/1/1 3/1/1 5/1/1
f 4/1/1 5/1/1 6/1/1
f 6/1/1 5/1/1 7/1/1
f 6/1/1 7/1/1 8/1/1
f 4/1/4 10/2/3 9/2/2
f 10/2/3 4/1/4 6/1/5
f 5/1/8 12/2/7 11/2/6
f 12/2/7 5/1/8 3/1/9
f 15/3/12 14/2/11 13/2/10
f 14/2/11 15/3/12 16/3/13
f 11/2/6 18/3/15 17/3/14
f 18/3/15 11/2/6 12/2/7
f 17/3/14 13/2/10 11/2/6
f 13/2/10 17/3/14 15/3/12
f 1/1/18 20/2/17 19/2/16
f 20/2/17 1/1/18 2/1/19
f 3/1/9 19/2/16 12/2/7
f 19/2/16 3/1/9 1/1/18
f 20/2/17 21/3/20 19/2/16
f 21/3/20 20/2/17 22/3/21
f 19/2/16 18/3/15 12/2/7
f 18/3/15 19/2/16 21/3/20
f 23/3/22 21/3/22 22/3/22
f 21/3/22 23/3/22 18/3/22
f 18/3/22 23/3/22 24/3/22
f 18/3/22 24/3/22 17/3/22
f 17/3/22 24/3/22 16/3/22
f 17/3/22 16/3/22 15/3/22
f 9/2/2 24/3/24 23/3/23
f 24/3/24 9/2/2 10/2/3
f 24/3/24 14/2/11 16/3/13
f 14/2/11 24/3/24 10/2/3
f 4/1/4 20/2/17 2/1/19
f 20/2/17 4/1/4 9/2/2
f 6/1/5 14/2/11 10/2/3
f 14/2/11 6/1/5 8/1/25
f 20/2/17 23/3/23 22/3/21
f 23/3/23 20/2/17 9/2/2
f 7/1/26 11/2/6 13/2/10
f 11/2/6 7/1/26 5/1/8
f 14/2/11 7/1/26 13/2/10
f 7/1/26 14/2/11 8/1/25

g tower-base




usemtl colormap

f 3/1/1 2/1/1 1/1/1
f 2/1/1 3/1/1 4/1/1
f 4/1/1 3/1/1 5/1/1
f 4/1/1 5/1/1 6/1/1
f 6/1/1 5/1/1 7/1/1
f 6/1/1 7/1/1 8/1/1
f 4/1/4 10/2/3 9/2/2
f 10/2/3 4/1/4 6/1/5
f 5/1/8 12/2/7 11/2/6
f 12/2/7 5/1/8 3/1/9
f 15/3/12 14/2/11 13/2/10
f 14/2/11 15/3/12 16/3/13
f 11/2/6 18/3/15 17/3/14
f 18/3/15 11/2/6 12/2/7
f 17/3/14 13/2/10 11/2/6
f 13/2/10 17/3/14 15/3/12
f 1/1/18 20/2/17 19/2/16
f 20/2/17 1/1/18 2/1/19
f 3/1/9 19/2/16 12/2/7
f 19/2/16 3/1/9 1/1/18
f 20/2/17 21/3/20 19/2/16
f 21/3/20 20/2/17 22/3/21
f 19/2/16 18/3/15 12/2/7
f 18/3/15 19/2/16 21/3/20
f 23/3/22 21/3/22 22/3/22
f 21/3/22 23/3/22 18/3/22
f 18/3/22 23/3/22 24/3/22
f 18/3/22 24/3/22 17/3/22
f 17/3/22 24/3/22 16/3/22
f 17/3/22 16/3/22 15/3/22
f 9/2/2 24/3/24 23/3/23
f 24/3/24 9/2/2 10/2/3
f 24/3/24 14/2/11 16/3/13
f 14/2/11 24/3/24 10/2/3
f 4/1/4 20/2/17 2/1/19
f 20/2/17 4/1/4 9/2/2
f 6/1/5 14/2/11 10/2/3
f 14/2/11 6/1/5 8/1/25
f 20/2/17 23/3/23 22/3/21
f 23/3/23 20/2/17 9/2/2
f 7/1/26 11/2/6 13/2/10
f 11/2/6 7/1/26 5/1/8
f 14/2/11 7/1/26 13/2/10
f 7/1/26 14/2/11 8/1/25

